<svg width="35" height="35" viewBox="0 0 35 35" fill="none" xmlns="http://www.w3.org/2000/svg">
<path d="M25.6127 8.13748C25.0574 5.91707 23.8195 3.92682 22.0733 2.44707C21.2894 1.69144 20.4208 1.02886 19.4848 0.472483C18.7181 0.0357639 17.8177 -0.104346 16.9546 0.078733C16.7366 0.123741 16.5352 0.228008 16.3726 0.380066C16.2099 0.532124 16.0924 0.726082 16.0329 0.940608C15.9625 1.7002 16.0167 2.4662 16.1933 3.20832C16.3406 4.67102 16.4719 6.13373 16.501 7.59644C16.5244 8.57255 16.4952 9.54721 16.4135 10.5204C16.1948 13.5187 16.1656 16.5171 15.9615 19.5008C15.9615 20.246 15.8579 20.9635 15.785 21.7233L15.4788 26.3171C15.1307 25.4198 14.5311 24.6421 13.7521 24.0771C12.3187 23.2338 10.6114 22.9871 8.99792 23.3902C7.36955 23.6702 5.88457 24.495 4.78625 25.7294C4.448 26.1701 4.18623 26.6646 4.01187 27.1921C3.79083 27.9341 3.66297 28.7008 3.63125 29.4744C3.60208 29.8253 3.60208 30.1763 3.63125 30.5273C3.66042 30.8919 3.73333 31.2477 3.85 31.5948C4.04332 32.3378 4.41866 33.021 4.94213 33.5827C5.4656 34.1443 6.12072 34.5668 6.84833 34.8119C7.88302 35.0424 8.95393 35.0589 9.99522 34.8602C11.0365 34.6616 12.0262 34.2521 12.9033 33.6569C13.7479 33.1726 14.5088 32.555 15.1565 31.8281C16.4719 30.3654 16.2094 29.1083 16.6192 24.2521C16.6192 23.4194 16.8088 22.5998 16.94 21.7802C17.0956 20.6602 17.2268 19.5344 17.3337 18.4027C17.5831 15.7996 17.7158 13.1819 17.9929 10.5773C18.0901 9.55644 18.129 8.53269 18.1096 7.50602C18.1096 6.04332 17.9346 4.58207 17.7887 3.00123C17.7887 2.73873 17.6575 2.35957 17.5846 1.9629C17.57 1.83165 17.57 1.7004 17.5846 1.56915C17.971 1.55602 18.3546 1.64644 18.6958 1.83165C19.5355 2.30301 20.3158 2.87287 21.0204 3.52915C22.2993 4.57247 23.3036 5.91272 23.9458 7.43311C24.2731 8.16196 24.4189 8.95928 24.3706 9.75678C24.3223 10.5543 24.0815 11.3282 23.6687 12.0123C23.4303 12.3835 23.1504 12.7264 22.8346 13.0346C22.5128 13.3651 22.1667 13.6675 21.7962 13.9417C21.7192 14.0426 21.6851 14.1699 21.7015 14.2958C21.7179 14.4217 21.7834 14.5361 21.8837 14.6139C21.9625 14.7208 22.0799 14.7927 22.2108 14.8145C22.3418 14.8363 22.4761 14.8062 22.5852 14.7306C22.9965 14.4351 23.3917 14.1186 23.7708 13.7812C24.1568 13.438 24.5029 13.0574 24.8092 12.6394C25.2396 11.9816 25.5327 11.2436 25.6708 10.4697C25.8089 9.69587 25.7891 8.90353 25.6127 8.13748ZM12.3331 32.6492C11.0875 33.4466 9.606 33.7925 8.13604 33.6292C7.48573 33.5535 6.8762 33.2735 6.39528 32.8292C5.91435 32.385 5.58687 31.7996 5.46 31.1573C5.38988 30.9136 5.34109 30.6642 5.31417 30.4121C5.29032 30.1491 5.29032 29.8846 5.31417 29.6217C5.33556 29.0879 5.40847 28.5614 5.53292 28.0423C5.635 27.5771 5.83479 27.1381 6.11625 26.7546C6.94713 25.7796 8.07996 25.1103 9.33479 24.8529C10.581 24.4495 11.9355 24.5494 13.109 25.1314C13.7448 25.5179 14.2523 26.0823 14.5702 26.7546C15.4773 28.8458 15.244 30.7037 12.3331 32.6492Z" fill="black"/>
<path d="M10.4603 4.62729C9.80653 3.71781 8.87906 3.04124 7.81339 2.69645C7.34647 2.49168 6.85471 2.34901 6.35069 2.27208C5.92595 2.21264 5.49418 2.31125 5.13735 2.54916C4.88719 2.75664 4.72085 3.04787 4.66923 3.36875C4.66923 3.675 4.81506 3.74791 4.93173 3.99729C5.2686 4.64187 5.59089 4.94812 5.86798 5.60729C6.14506 6.26354 6.21943 6.48375 6.36527 6.93729C6.76048 8.12291 7.34527 9.70229 7.82798 11.1052C7.94464 11.4421 8.06131 11.7935 8.16339 12.1435L8.99902 14.455C8.56756 14.1307 8.06695 13.9106 7.53631 13.8119C7.08277 13.6952 6.32152 14.1473 5.60548 14.6154C4.96381 15.0471 4.50152 15.6975 4.30319 16.4442C4.22726 16.7103 4.20251 16.9884 4.23027 17.2637C4.25506 17.6429 4.33964 18.0192 4.47819 18.375C4.5268 18.5403 4.59534 18.6958 4.68381 18.8417C4.75964 19.0031 4.85687 19.1499 4.97548 19.2821C5.19861 19.5841 5.49304 19.8262 5.83249 19.9868C6.17195 20.1473 6.54587 20.2214 6.92089 20.2023C7.42044 20.1055 7.89596 19.911 8.32015 19.6299C8.74434 19.3489 9.10885 18.9868 9.39277 18.5646C9.68836 18.1907 9.92087 17.771 10.0811 17.3221C10.4019 16.3858 10.0811 15.8594 9.37819 13.6062C9.26152 13.2125 9.17402 12.8173 9.07194 12.4221C8.96985 12.0283 8.79485 11.34 8.63298 10.8135C8.26839 9.58416 7.85714 8.37083 7.50714 7.12833C7.36131 6.6325 7.19069 6.14493 6.99527 5.66562C6.69528 4.98975 6.36835 4.32617 6.01527 3.67645C6.01527 3.55979 5.84027 3.39937 5.73819 3.2375C5.73407 3.17437 5.73407 3.11104 5.73819 3.04791C5.92023 3.0034 6.11031 3.0034 6.29235 3.04791C6.75902 3.10625 7.21256 3.21805 7.65298 3.38333C8.43588 3.61584 9.14923 4.03814 9.72964 4.6127C10.012 4.88466 10.2246 5.22077 10.3492 5.59247C10.4739 5.96418 10.507 6.36048 10.4457 6.7477C10.3779 6.94114 10.2899 7.12688 10.1832 7.30187C10.0976 7.51187 9.99555 7.71215 9.87694 7.9027C9.85654 7.95591 9.85509 8.01451 9.87283 8.06866C9.89057 8.12281 9.92643 8.16919 9.97436 8.2C10.0223 8.23081 10.0794 8.24417 10.136 8.23784C10.1926 8.2315 10.2453 8.20585 10.2853 8.1652C10.4214 7.96006 10.5429 7.74618 10.6499 7.52354C10.7558 7.28631 10.8389 7.04229 10.8992 6.79145C11.0426 6.04061 10.8841 5.26347 10.4603 4.62729ZM8.57464 18.009C8.18262 18.5504 7.622 18.9463 6.98069 19.1348C6.7052 19.1862 6.42073 19.1572 6.16133 19.0511C5.90192 18.9451 5.67856 18.7665 5.51798 18.5369C5.44666 18.4523 5.38774 18.358 5.34298 18.2569C5.2869 18.1483 5.23771 18.0362 5.19569 17.9215C5.12343 17.6958 5.06498 17.4659 5.02069 17.2331C4.98423 17.0208 4.98423 16.8038 5.02069 16.5915C5.21027 16.049 5.56902 15.5823 6.04444 15.26C6.49994 14.8983 7.07223 14.7162 7.65298 14.7481C7.97673 14.8094 8.27569 14.961 8.51631 15.1856C9.24694 15.8885 9.46569 16.7227 8.57464 18.009ZM31.3174 23.2458C31.0553 22.1684 30.4677 21.1978 29.6344 20.4662C29.2578 20.0904 28.8411 19.7569 28.3919 19.4717C28.0157 19.2573 27.5753 19.18 27.148 19.2529C26.8382 19.3527 26.574 19.5595 26.4028 19.8362C26.3557 19.9423 26.3314 20.0571 26.3314 20.1731C26.3314 20.2892 26.3557 20.4039 26.4028 20.51C26.7965 21.4871 26.9526 22.5458 26.8549 23.5958C26.5486 25.9948 26.184 28.3646 26.184 28.3646C25.7917 28.0413 25.3588 27.7707 24.8963 27.5596C24.3008 27.366 23.6642 27.3358 23.053 27.4721C22.2928 27.6147 21.6111 28.0307 21.1367 28.6417C20.9714 28.8624 20.8402 29.101 20.743 29.3577C20.6302 29.7252 20.5621 30.101 20.5388 30.485C20.5233 30.6551 20.5233 30.8253 20.5388 30.9954C20.5534 31.1733 20.5826 31.3493 20.6263 31.5233C20.7199 31.8904 20.9021 32.229 21.1568 32.5094C21.4116 32.7898 21.7311 33.0035 22.0876 33.1319C22.5845 33.2478 23.0998 33.2622 23.6025 33.1743C24.1051 33.0863 24.5849 32.8978 25.013 32.62C25.4286 32.3832 25.8078 32.0875 26.1388 31.7421C26.7358 30.5778 27.0891 29.304 27.1771 27.9985C27.6306 25.3612 27.7189 22.6741 27.4396 20.0127C27.6292 20.0185 27.8159 20.0681 27.9821 20.1585C28.3924 20.3967 28.7677 20.6796 29.108 21.0073C29.7523 21.5215 30.2556 22.1909 30.5707 22.9527C30.7255 23.3117 30.7904 23.7031 30.7599 24.0929C30.7294 24.4827 30.6044 24.8592 30.3957 25.1898C30.2754 25.3683 30.1381 25.5349 29.9859 25.6871C29.8216 25.8419 29.6456 25.9838 29.4594 26.1115C29.4174 26.1572 29.3941 26.217 29.3941 26.2792C29.3941 26.3413 29.4174 26.4011 29.4594 26.4469C29.4951 26.5 29.55 26.5372 29.6125 26.5508C29.675 26.5644 29.7403 26.5533 29.7948 26.5198C30.0029 26.3808 30.1983 26.2252 30.3811 26.0531C30.5775 25.8878 30.7476 25.6978 30.8915 25.4829C31.1144 25.16 31.2673 24.794 31.3403 24.4085C31.4134 24.023 31.4051 23.6265 31.3159 23.2444M24.5142 31.7406C23.9498 32.087 23.2843 32.231 22.6271 32.149C22.3382 32.1001 22.0706 31.9653 21.8594 31.7621C21.6482 31.5589 21.5031 31.2968 21.443 31.01C21.43 30.8981 21.43 30.785 21.443 30.6731C21.4289 30.5569 21.4289 30.4394 21.443 30.3231C21.4527 30.0791 21.4916 29.8399 21.5596 29.6056C21.6121 29.3995 21.6996 29.2094 21.8221 29.0354C22.2053 28.604 22.7198 28.3108 23.2863 28.2012C23.8463 28.0423 24.4471 28.0992 24.9678 28.3617C25.2449 28.5425 25.4578 28.8035 25.5817 29.1083C25.9624 30.0592 25.8442 30.8919 24.5142 31.7406Z" fill="black"/>
</svg>
