<svg width="120" height="115" viewBox="0 0 120 115" fill="none" xmlns="http://www.w3.org/2000/svg">
<path d="M72.3244 71.0004C84.4631 70.9291 94.3659 80.703 94.4534 92.841C94.5409 104.98 84.7802 114.896 72.6416 114.999C60.4803 115.103 50.5419 105.32 50.4542 93.1585C50.3665 80.9974 60.1628 71.0717 72.3244 71.0004Z" fill="#FC4B4D"/>
<path d="M67.311 80.5779C69.1049 80.3539 70.9354 81.0111 72.4527 81.9081C73.8284 81.0796 75.2739 80.5844 76.8917 80.5576C79.1591 80.5196 81.346 81.3971 82.9586 82.9911C84.5613 84.5767 85.4588 86.74 85.449 88.9939C85.4389 92.9029 82.9301 94.9699 80.3838 97.5117L75.8055 102.081L72.4342 105.45L65.2791 98.3022C63.7914 96.8203 62.0029 95.3263 60.8429 93.5805C60.0996 92.4669 59.6386 91.1905 59.4997 89.8594C59.2728 87.6267 59.9363 85.3941 61.346 83.6474C62.8647 81.7905 64.9527 80.8121 67.311 80.5779Z" fill="#F3F3F2"/>
<path d="M11.8293 83.5673C2.12371 77.114 -2.22631 65.0769 1.11257 53.91C4.45034 42.743 14.6933 35.0681 26.3487 35.0005C38.003 34.9328 48.334 42.4882 51.8022 53.6157C55.2693 64.7431 51.0598 76.8299 41.43 83.3955C39.6496 84.6093 37.7277 85.6014 35.7076 86.3499C29.837 88.5243 23.3866 88.5505 17.4993 86.4239C15.5015 85.7024 13.5985 84.7433 11.8293 83.5673Z" fill="#FBD154"/>
<path d="M11.8759 54.821L17.5548 54.8204L17.4991 86.4239C15.5013 85.7023 13.5983 84.7433 11.8291 83.5672L11.8759 54.821Z" fill="#2FBFFE"/>
<path d="M35.6929 54.821L41.3651 54.8215L41.3851 75.4377L41.3907 80.7918C41.3918 81.6112 41.2882 82.5939 41.4297 83.3955C39.6494 84.6093 37.7274 85.6014 35.7074 86.3499L35.6929 54.821Z" fill="#2FBFFE"/>
<path d="M35.6932 54.821C35.0343 54.8337 33.6698 55.0026 33.1369 54.5099C32.9429 54.3303 32.9106 54.1392 32.9485 53.8874C32.9931 53.5828 33.2149 53.3617 33.4446 53.1854C34.2907 52.9363 42.6162 52.9124 43.2605 53.2459C43.5058 53.3724 43.634 53.5166 43.7332 53.7742C43.6987 54.0965 43.6273 54.2902 43.3598 54.4921C42.7589 54.9449 42.0721 54.8366 41.3653 54.8215L35.6932 54.821Z" fill="#3C3B3E"/>
<path d="M11.876 54.821C11.0967 54.8379 10.1592 55.0084 9.51593 54.4883C9.36654 54.2329 9.29742 54.0354 9.37211 53.7346C9.44681 53.4322 9.62964 53.2982 9.87713 53.1389C10.9239 52.9467 19.2271 52.9309 19.6117 53.204C19.8391 53.3652 19.9696 53.5716 20.0052 53.8492C20.0398 54.1177 19.9785 54.3423 19.7879 54.5384C19.3386 54.9996 18.1703 54.8303 17.5549 54.8204L11.876 54.821Z" fill="#3C3B3E"/>
<path d="M26.1815 63.1191C26.3063 63.1108 26.4312 63.1039 26.556 63.0983C28.4423 62.9918 30.2896 63.6552 31.6764 64.9367C32.9517 66.1117 33.8146 67.8051 33.8603 69.5537C33.8737 70.0636 33.8391 70.4985 33.4701 70.8771C33.1948 70.9564 33.1145 70.9802 32.8302 70.8946C32.0198 70.6505 31.9049 68.3236 31.3888 67.4182C30.6162 66.061 29.4267 65.365 27.9629 64.9628C26.8894 64.8075 25.8481 64.8676 24.8381 65.3043C23.468 65.8964 22.4 67.163 22.0209 68.6048C21.8604 69.2164 21.7679 69.9024 21.5037 70.4789C21.381 70.746 21.2506 70.903 20.973 71.016C20.7813 71.0087 20.6698 70.9655 20.5126 70.8595C20.2161 70.6585 20.0589 70.4399 20.0042 70.0843C19.8058 68.8003 20.5494 67.0201 21.2841 65.987C22.478 64.3088 24.1826 63.4412 26.1815 63.1191Z" fill="#3C3B3E"/>
<path d="M84.3917 0.0675582C102.861 -1.09707 118.776 12.935 119.933 31.4048C121.091 49.8747 107.052 65.7838 88.5822 66.9341C70.1221 68.0838 54.2236 54.0548 53.0667 35.5953C51.9099 17.1357 65.9326 1.23162 84.3917 0.0675582Z" fill="#FBD154"/>
<path d="M65.3633 33.5966L107.652 33.5981C107.689 38.1114 106.228 42.1327 103.776 45.8668C98.1395 41.1645 91.4127 38.7709 84.034 39.4562C78.6602 39.9554 73.2459 42.2128 69.2449 45.8648C66.6531 42.2008 65.408 38.0697 65.3633 33.5966Z" fill="#3C3B3E"/>
<path d="M65.3633 33.5966L107.652 33.5981C107.689 38.1114 106.228 42.1327 103.776 45.8668C100.205 50.5762 95.3929 53.7534 89.4708 54.5747C83.8746 55.372 78.1919 53.8962 73.6909 50.4763C71.9582 49.1652 70.511 47.6259 69.2449 45.8648C66.6531 42.2008 65.408 38.0697 65.3633 33.5966Z" fill="#FC4B4D"/>
<path d="M72.1911 15.4448C73.1367 15.3875 74.0656 15.351 75.0013 15.5476C77.0976 16.0051 78.9158 17.2998 80.0339 19.1313C80.5661 19.9886 81.2464 21.4305 80.909 22.4691C80.7847 22.8516 80.6376 22.9915 80.3027 23.1958C80.022 23.2409 79.8674 23.2614 79.5879 23.1751C78.8829 22.9576 78.4945 21.1672 78.1493 20.5292C77.3979 19.1406 76.2578 18.3249 74.7817 17.8557L74.595 17.7979C68.3982 16.6701 68.581 22.5963 66.9013 23.2739C66.7044 23.3533 66.5511 23.3066 66.3608 23.2209C65.9466 23.0344 65.656 22.5059 65.5756 22.0891C65.3953 21.1541 66.1659 19.8902 66.6643 19.1246C67.9696 17.1193 69.866 15.9222 72.1911 15.4448Z" fill="#3C3B3E"/>
<path d="M98.4697 15.4468C99.3301 15.3899 100.194 15.3494 101.048 15.4988C103.09 15.8673 104.902 17.0337 106.082 18.7406C106.757 19.7035 107.494 21.1437 107.234 22.3541C107.152 22.7369 106.979 22.9341 106.663 23.1568C106.288 23.2442 106.108 23.2157 105.743 23.1007C105.027 22.4736 104.847 21.2841 104.398 20.4526C103.667 19.0987 102.547 18.311 101.105 17.8625L100.925 17.8078C94.6816 16.7042 95.0024 22.3588 93.2629 23.2522C93.0867 23.3427 92.8996 23.3352 92.7168 23.2511C92.2934 23.056 91.9963 22.595 91.891 22.1576C91.6654 21.2195 92.471 19.8856 92.9736 19.1172C94.2758 17.1262 96.1528 15.9263 98.4697 15.4468Z" fill="#3C3B3E"/>
</svg>
