<svg width="133" height="133" viewBox="0 0 133 133" fill="none" xmlns="http://www.w3.org/2000/svg">
<path d="M68.7066 12.032C70.2256 13.1655 71.4145 14.7142 72.6385 16.1462C75.596 16.248 78.8878 17.1444 81.7213 18.0382C82.7334 18.3574 83.8125 18.9646 84.8691 19.0432C85.6553 18.8181 86.6542 18.8851 87.4673 18.9051C91.3677 19.0011 95.2882 19.8532 98.7171 21.764C103.89 24.647 108.13 29.7514 109.747 35.4838C110.266 37.3241 110.562 39.2778 110.723 41.183C111.016 41.5914 113.267 44.1405 113.591 44.4139C113.944 44.7785 114.29 45.1534 114.66 45.5008C114.673 45.5258 114.685 45.5511 114.699 45.5761C115 46.1437 115.417 46.6442 115.744 47.2012C116.567 48.6044 117.335 50.0965 117.989 51.5857C121.08 58.6236 122.418 67.2989 121.538 74.9409C121.156 78.2528 120.254 81.7034 119.303 84.8987C118.937 86.1317 116.99 91.8036 116.293 92.6794C115.004 95.1155 113.679 97.5259 112.126 99.809C107.277 106.935 100.5 113.168 92.8667 117.211C88.6881 119.425 84.3347 121.22 79.7382 122.371C70.659 124.643 60.1786 124.43 51.2365 121.678C40.1186 118.256 29.9856 111.491 23.0072 102.118C20.6908 99.0069 18.7924 95.6561 16.9817 92.2333C16.4025 91.1656 15.9135 89.6945 15.8481 88.4803C14.6103 86.9592 13.2947 85.603 12.2673 83.912C9.70879 79.7023 9.09155 73.989 10.9133 69.3667C11.3631 68.2258 12.6233 66.4305 12.8408 65.4598C12.8457 65.4381 12.8493 65.416 12.8536 65.3939C12.8508 65.3771 12.8479 65.3599 12.8453 65.3428C12.7804 64.9127 12.7185 64.4891 12.7313 64.0525C12.834 60.5376 13.7905 56.8578 14.8967 53.5352C18.1098 43.8847 22.8318 36.357 30.3014 29.4306C38.7795 21.569 50.1529 16.9083 61.6244 16.0659C63.3616 15.9383 65.1401 15.8427 66.883 15.8912C68.0084 15.9225 69.1256 16.0488 70.2453 16.0892C69.7501 14.7289 69.2132 13.3874 68.7066 12.032Z" fill="#3DB3E5"/>
<path d="M63.5382 80.5634C65.7988 80.7238 68.1036 80.6472 70.3732 80.7086C73.2828 80.732 76.2678 80.9317 79.1659 80.8179C77.2475 83.455 75.2545 86.0147 73.2485 88.5851C72.5421 89.476 71.8653 90.3902 71.2191 91.3257C74.9689 92.7191 80.3384 92.3107 83.9454 90.6484C84.9332 90.2048 85.8642 89.6438 86.7187 88.9784C89.4327 91.1833 92.6693 92.3238 96.1601 92.2829C97.2061 92.2706 98.3278 92.0566 99.3558 92.1016C99.474 92.1732 99.5706 92.226 99.711 92.2403C100.94 92.3684 102.28 92.2559 103.526 92.2948C107.754 92.4265 112.084 92.4319 116.293 92.6794C115.004 95.1156 113.679 97.526 112.126 99.8091C107.278 106.935 100.5 113.168 92.867 117.211C88.6883 119.425 84.3349 121.22 79.7385 122.371C70.6593 124.643 60.1789 124.43 51.2368 121.678C40.1188 118.256 29.9859 111.491 23.0074 102.118C20.6911 99.007 18.7927 95.6562 16.9819 92.2334C18.7652 92.0546 22.4726 92.4998 23.8509 92.0959C27.2698 92.404 30.8388 92.312 34.2724 92.2612C35.2047 92.2473 36.1318 92.0312 37.0535 92.0726C41.6346 92.1839 44.8683 91.3417 48.997 89.3896C51.5588 90.86 53.7535 91.7525 56.7217 92.0018C57.6809 92.082 58.6921 92.0529 59.6375 92.1978C60.0422 91.1673 60.397 90.1115 60.7739 89.0704C61.2997 87.8964 61.6394 86.577 62.0278 85.3493C62.5324 83.7549 63.0725 82.1696 63.5382 80.5634Z" fill="#17B5C5"/>
<path d="M63.5383 80.5634C65.7989 80.7238 68.1037 80.6472 70.3733 80.7086C73.2829 80.732 76.2679 80.9317 79.166 80.8179C77.2476 83.455 75.2546 86.0147 73.2486 88.5851C72.5422 89.476 71.8654 90.3902 71.2192 91.3257C70.2317 92.5399 69.2442 93.7545 68.373 95.0563C71.8543 94.9904 75.354 94.7141 78.8292 94.4895C77.0307 96.6604 75.4502 99.1068 73.7638 101.376C70.415 105.847 67.0225 110.285 63.5878 114.69C62.4146 116.211 61.3477 117.852 60.1384 119.335C60.0312 119.467 59.917 119.581 59.7521 119.633L59.7202 119.44C59.9887 118.616 60.3345 117.805 60.5256 116.96C61.2536 115.208 61.7168 113.253 62.2668 111.435C63.0599 108.845 63.8759 106.262 64.7153 103.687L65.1814 102.046C63.204 101.938 61.1943 102.036 59.2144 102.052C58.1901 102.061 57.014 102.139 56.0158 101.915L55.9487 101.762C56.3428 101.093 56.6019 100.251 56.8957 99.5292C57.8824 97.1057 58.7335 94.6519 59.6375 92.1978C60.0423 91.1673 60.3971 90.1115 60.774 89.0704C61.2998 87.8964 61.6395 86.577 62.0279 85.3493C62.5324 83.7549 63.0726 82.1696 63.5383 80.5634Z" fill="#FDB119"/>
<path d="M63.5383 80.5634C65.7989 80.7238 68.1037 80.6472 70.3733 80.7086C69.899 82.4315 67.0761 86.0348 66.0084 87.6823L59.6179 97.7093C58.7683 99.0585 58.0951 100.573 57.1605 101.86C56.7598 101.986 56.4177 101.899 56.0158 101.915L55.9487 101.762C56.3428 101.093 56.6019 100.251 56.8957 99.5292C57.8824 97.1057 58.7335 94.6519 59.6375 92.1978C60.0423 91.1673 60.3971 90.1115 60.774 89.0704C61.2998 87.8964 61.6395 86.577 62.0279 85.3493C62.5324 83.7549 63.0726 82.1696 63.5383 80.5634Z" fill="#FED211"/>
<path d="M55.0884 103.348C55.2877 102.756 55.4956 102.207 55.9482 101.761L56.0153 101.915C57.0134 102.139 58.1895 102.061 59.2138 102.052C61.1937 102.036 63.2034 101.938 65.1808 102.046L64.7147 103.686L64.0747 103.403C61.7142 102.996 57.6068 103.305 55.0884 103.348Z" fill="#097BC6"/>
<path d="M64.0755 103.403L64.7156 103.687C63.8763 106.262 63.0602 108.845 62.2672 111.435C61.7172 113.253 61.2539 115.208 60.5259 116.96C60.4387 116.84 60.3614 116.768 60.3524 116.613C60.3078 115.858 60.7342 114.747 60.9388 114.016C61.3664 112.488 61.7352 110.943 62.2225 109.432C62.838 107.525 63.8521 105.379 64.0755 103.403Z" fill="#179CCB"/>
<path d="M59.7518 119.633C59.5758 120.149 59.3409 120.767 58.9603 121.163L58.8813 121.12C58.9693 120.536 59.379 119.917 59.7199 119.44L59.7518 119.633Z" fill="#097BC6"/>
<path d="M86.0565 101.676C86.7621 100.054 92.4426 93.8972 93.9457 92.1567C93.4796 94.1587 93.2001 96.2294 92.9402 98.2678C92.7327 99.8965 92.666 101.748 92.0882 103.286C91.7886 104.082 91.4158 104.643 90.6907 105.091C90.6096 105.142 90.527 105.19 90.4427 105.235C90.3858 105.353 90.3236 105.471 90.2561 105.584C89.7981 106.344 88.9596 106.484 88.1669 106.681C87.3837 106.462 86.6978 106.159 86.1028 105.593C85.5712 105.086 85.1726 104.387 85.1808 103.634C85.1882 102.925 85.5495 102.162 86.0565 101.676Z" fill="#FEFEFE"/>
<path d="M86.0565 101.676C86.0038 102.739 86.1282 103.654 86.8758 104.468C87.4635 105.108 88.2799 105.433 89.1409 105.453C89.5919 105.465 90.0146 105.37 90.4427 105.235C90.3858 105.353 90.3236 105.471 90.2561 105.584C89.7981 106.344 88.9596 106.484 88.1669 106.681C87.3837 106.462 86.6978 106.159 86.1028 105.593C85.5712 105.086 85.1726 104.387 85.1808 103.634C85.1882 102.925 85.5495 102.162 86.0565 101.676Z" fill="#097BC6"/>
<path d="M51.8622 101.51C51.4849 103.537 50.9803 105.636 50.8318 107.691C50.7262 109.151 51.1375 110.833 50.7782 112.241C50.592 112.97 50.0743 113.529 49.5218 114.012L49.5595 114.314C49.4036 114.657 49.2116 114.875 48.9096 115.098C48.1902 115.627 47.2882 115.874 46.401 115.733C45.558 115.599 44.7874 115.084 44.3033 114.386C43.8151 113.682 43.6346 112.81 43.8024 111.97C43.899 111.493 44.1957 110.73 44.6057 110.457L44.7416 110.506C45.2695 109.35 46.214 108.46 47.0349 107.509C48.662 105.622 50.5707 103.643 51.8622 101.51Z" fill="#FEFEFE"/>
<path d="M49.5218 114.012L49.5595 114.314C49.4036 114.657 49.2116 114.875 48.9096 115.098C48.1902 115.627 47.2882 115.874 46.401 115.733C45.558 115.599 44.7874 115.084 44.3033 114.386C43.8151 113.682 43.6346 112.81 43.8024 111.97C43.899 111.493 44.1957 110.73 44.6057 110.457L44.7416 110.506C44.5304 111.41 44.5746 112.319 45.0825 113.124C45.5277 113.829 46.2427 114.32 47.0603 114.482C47.9553 114.661 48.7369 114.446 49.5218 114.012Z" fill="#097BC6"/>
<path d="M37.7852 101.809C39.2814 99.1836 42.2528 96.4078 44.0976 93.8873C43.891 95.8991 43.9953 97.9776 44.0092 99.9992C44.0166 101.06 44.0952 102.164 43.8738 103.208C43.7437 103.821 43.5255 104.243 43.1384 104.732L43.0762 104.811C43.0639 104.826 43.0508 104.842 43.0381 104.858C42.9862 105.155 42.9084 105.393 42.7595 105.654C42.376 106.327 41.7806 106.791 41.0284 106.983C40.1211 107.215 39.1384 107.017 38.3428 106.541C37.5752 106.081 36.9469 105.361 36.7418 104.475C36.584 103.793 36.6851 103.011 37.0719 102.423C37.2559 102.144 37.4417 101.882 37.7852 101.809Z" fill="#FEFEFE"/>
<path d="M43.0381 104.857C42.9862 105.155 42.9084 105.393 42.7595 105.654C42.376 106.327 41.7806 106.791 41.0284 106.983C40.1211 107.215 39.1384 107.017 38.3428 106.541C37.5752 106.081 36.9469 105.361 36.7418 104.474C36.584 103.793 36.6851 103.011 37.0719 102.423C37.2559 102.143 37.4417 101.882 37.7852 101.809C37.5685 102.704 37.5922 103.488 38.0766 104.299C38.4965 105.002 39.2227 105.495 40.0136 105.685C40.9339 105.905 41.7986 105.696 42.5843 105.195C42.7447 105.093 42.8949 104.982 43.0381 104.857Z" fill="#097BC6"/>
<path d="M75.4326 110.364C76.1258 108.924 77.6056 107.721 78.6573 106.523C79.8564 105.157 80.9985 103.761 82.0327 102.264C81.7458 103.85 81.5003 105.431 81.4937 107.047C81.4868 108.715 81.9807 110.682 81.542 112.296C81.3787 112.898 80.9155 113.35 80.4166 113.697C80.255 113.807 80.0905 113.912 79.9231 114.012L79.9661 114.136C79.9141 114.356 79.8727 114.387 79.7017 114.537C79.0727 115.087 78.1781 115.384 77.347 115.31C76.5351 115.23 75.7886 114.829 75.2755 114.195C74.8138 113.635 74.518 112.87 74.6043 112.137C74.671 111.573 74.9779 110.715 75.4326 110.364Z" fill="#FEFEFE"/>
<path d="M79.9231 114.012L79.9661 114.136C79.9141 114.356 79.8727 114.387 79.7017 114.537C79.0727 115.087 78.1781 115.384 77.347 115.31C76.5351 115.23 75.7886 114.829 75.2755 114.195C74.8138 113.635 74.518 112.869 74.6043 112.137C74.671 111.573 74.9779 110.715 75.4326 110.364C75.3557 111.491 75.4285 112.384 76.2167 113.265C76.7736 113.895 77.5639 114.271 78.404 114.304C78.9528 114.323 79.4214 114.244 79.9231 114.012Z" fill="#097BC6"/>
<path d="M68.7074 12.032C70.2265 13.1655 71.4153 14.7142 72.6393 16.1462C75.5968 16.248 78.8887 17.1444 81.7222 18.0382C82.7342 18.3574 83.8134 18.9646 84.87 19.0432C82.6111 19.4679 80.3366 19.8926 78.1795 20.7086C73.4754 22.4881 69.1224 26.3847 66.3036 30.4934C65.9656 30.986 65.3591 31.7444 65.3096 32.3318C65.4606 32.4742 65.4553 32.4717 65.6632 32.4766C64.6209 32.5936 63.5524 32.6641 62.5227 32.8672C56.336 34.0877 51.1285 37.5935 47.2331 42.4876C46.7841 43.0516 45.9665 44.7707 45.2712 44.8415C45.2135 44.8473 45.155 44.8501 45.0969 44.853C40.1338 44.3922 35.307 45.5618 31.4318 48.7656C28.1463 51.4821 26.039 55.4435 25.4162 59.6377C21.1384 59.7122 17.1551 61.0913 14.1457 64.2063C13.8164 64.5472 13.2942 65.378 12.9116 65.5253L12.8545 65.3939C12.8517 65.3771 12.8487 65.3599 12.8462 65.3428C12.7813 64.9127 12.7194 64.4891 12.7322 64.0525C12.8349 60.5376 13.7913 56.8578 14.8976 53.5352C18.1106 43.8847 22.8327 36.357 30.3023 29.4306C38.7804 21.569 50.1537 16.9083 61.6253 16.0659C63.3625 15.9383 65.141 15.8427 66.8839 15.8912C68.0093 15.9225 69.1265 16.0488 70.2461 16.0892C69.751 14.7289 69.2141 13.3874 68.7074 12.032Z" fill="#C7E8F0"/>
<path d="M68.7068 12.032C70.2259 13.1655 71.4147 14.7142 72.6387 16.1462C73.0156 17.1792 74.4487 18.4035 74.1635 19.5886C74.1 19.8527 73.8471 20.1131 73.6225 20.2526C73.4133 20.3824 73.1887 20.4222 72.9517 20.351C71.6307 19.9537 70.9387 17.265 70.2795 16.1457C70.2684 16.1267 70.257 16.108 70.2455 16.0892C69.7503 14.7289 69.2134 13.3874 68.7068 12.032Z" fill="#FED211"/>
<path d="M57.0571 23.3086C58.1326 23.3312 60.1599 24.3802 61.1511 24.8504C62.0943 25.2977 64.4204 26.2295 64.7404 27.3208C64.8419 27.6678 64.702 27.9533 64.5416 28.254C64.269 28.478 64.0599 28.6343 63.694 28.6137C62.0334 28.5204 58.3188 24.6106 57.0571 23.3086Z" fill="#FED211"/>
<path d="M84.8697 19.0432C85.6559 18.818 86.6548 18.8851 87.4679 18.9051C91.3683 19.0011 95.2888 19.8532 98.7177 21.764C103.891 24.647 108.131 29.7514 109.747 35.4838C110.266 37.3241 110.562 39.2777 110.723 41.183C110.644 42.0469 110.677 42.9112 110.608 43.7734C110.371 50.1186 108.29 55.0023 104.173 59.7694C101.442 57.9128 97.6386 57.4151 94.4171 57.4135L94.3422 56.228C93.4746 49.5632 91.3442 44.3181 86.3164 39.6618C80.3306 34.1182 73.6961 32.1781 65.6629 32.4766C65.455 32.4717 65.4603 32.4742 65.3093 32.3318C65.3588 31.7444 65.9653 30.986 66.3033 30.4934C69.1221 26.3847 73.4751 22.4881 78.1792 20.7086C80.3363 19.8926 82.6108 19.4679 84.8697 19.0432Z" fill="url(#paint0_linear_57_30)"/>
<path d="M94.342 56.2278C95.8402 55.5559 97.5819 55.2612 99.1202 54.6233C104.621 52.3426 107.273 48.3649 110.608 43.7733C110.37 50.1184 108.29 55.0022 104.173 59.7693C101.442 57.9126 97.6384 57.415 94.4169 57.4134L94.342 56.2278Z" fill="#FDB119"/>
<path d="M89.5595 22.7126C90.6906 22.596 91.9576 22.8328 93.0564 23.0987C98.0597 24.3096 102.182 27.5446 104.841 31.9123C105.6 33.1604 107.24 35.8852 106.799 37.3778C106.665 37.8317 106.314 38.007 105.929 38.215C105.75 38.2169 105.55 38.2285 105.373 38.1978C105.165 38.1615 104.976 38.0523 104.85 37.8808C104.302 37.1355 104.073 36.0971 103.727 35.2464C103.353 34.3476 102.895 33.4858 102.36 32.6721C99.5812 28.4682 95.9063 26.3183 91.0561 25.3302C90.3645 25.1893 89.0795 25.042 88.705 24.4045C88.5896 24.2081 88.5614 23.9993 88.6199 23.7794C88.757 23.2606 89.1294 22.9774 89.5595 22.7126Z" fill="#FEFEFE"/>
<path d="M106.014 39.0941C106.746 38.862 107.527 39.2655 107.763 39.9967C107.998 40.7278 107.597 41.5112 106.867 41.749C106.133 41.9884 105.344 41.5853 105.108 40.85C104.871 40.1148 105.277 39.3276 106.014 39.0941Z" fill="#FEFEFE"/>
<path d="M25.4153 59.6376C26.0382 55.4434 28.1455 51.482 31.431 48.7656C35.3061 45.5617 40.133 44.3921 45.096 44.8529L45.1013 44.8861L44.7883 44.9794C44.0426 46.4424 43.218 47.8771 42.5244 49.3643C41.7861 50.9476 39.7873 55.9365 40.2317 57.6299C40.2418 57.6684 40.2626 57.7032 40.278 57.7396L40.1975 57.7592C39.206 57.9917 38.1685 58.0117 37.1782 58.2454C32.6301 59.3188 29.925 61.9006 27.1912 65.4933L26.9633 65.3472C26.4715 65.801 26.0611 66.6113 25.7175 67.1875C24.1742 69.7751 23.2325 72.1711 23.1118 75.2039C22.9357 79.6302 24.3076 83.7863 27.3475 87.0614C29.794 89.6972 33.5348 91.4668 37.0532 92.0724C36.1316 92.0311 35.2044 92.2472 34.2722 92.2611C30.8385 92.3118 27.2696 92.4039 23.8506 92.0957C22.4723 92.4997 18.7649 92.0544 16.9817 92.2332C16.4025 91.1656 15.9135 89.6944 15.8481 88.4802C14.6103 86.9591 13.2947 85.6029 12.2673 83.9119C9.70879 79.7022 9.09155 73.9889 10.9133 69.3667C11.3631 68.2257 12.6233 66.4304 12.8408 65.4597C12.8457 65.438 12.8493 65.4159 12.8536 65.3938L12.9108 65.5252C13.2933 65.3779 13.8155 64.5471 14.1448 64.2063C17.1543 61.0912 21.1375 59.7121 25.4153 59.6376Z" fill="#179CCB"/>
<path d="M15.8481 88.4802C15.8715 88.4909 15.895 88.5011 15.9182 88.5121C16.6396 88.8559 17.2688 89.4235 17.9453 89.8507C19.8208 91.0359 21.6854 91.6788 23.8507 92.0958C22.4724 92.4997 18.765 92.0544 16.9818 92.2333C16.4026 91.1656 15.9136 89.6944 15.8481 88.4802Z" fill="#C7E8F0"/>
<path d="M110.723 41.183C111.016 41.5914 113.267 44.1405 113.591 44.4139C113.944 44.7785 114.291 45.1533 114.66 45.5008C114.673 45.5257 114.686 45.5511 114.699 45.5761C115 46.1437 115.418 46.6442 115.744 47.2011C116.567 48.6044 117.336 50.0964 117.989 51.5856C121.08 58.6236 122.419 67.2989 121.538 74.9408C121.157 78.2527 120.254 81.7034 119.304 84.8987C118.937 86.1317 116.99 91.8036 116.293 92.6794C112.084 92.4318 107.755 92.4265 103.526 92.2947C102.28 92.2558 100.94 92.3683 99.7112 92.2403C99.5708 92.2259 99.4742 92.1731 99.356 92.1015C103.683 91.2462 107.516 88.7602 110.062 85.1581C112.7 81.4124 113.618 76.7136 112.845 72.2113C112.847 72.1556 112.849 72.138 112.841 72.0754C112.405 68.5077 109.841 64.3209 107.211 61.9531C106.291 61.1252 105.165 60.5093 104.173 59.7694C108.29 55.0023 110.37 50.1185 110.608 43.7734C110.677 42.9112 110.643 42.0469 110.723 41.183Z" fill="#C7E8F0"/>
<path d="M111.542 55.9304C111.819 55.9157 112.091 55.9534 112.35 56.0565C113.474 56.5046 118.222 60.2319 118.618 61.1264C118.374 61.2099 118.301 61.1514 118.061 61.0745C116.393 60.4524 111.837 58.9989 110.911 57.6742C110.741 57.4307 110.606 57.1434 110.678 56.8402C110.78 56.4191 111.209 56.1608 111.542 55.9304Z" fill="#FED211"/>
<path d="M37.0531 92.0724C33.5346 91.4667 29.7939 89.6972 27.3474 87.0614C24.3074 83.7863 22.9355 79.6301 23.1117 75.2039C23.2324 72.1711 24.174 69.775 25.7174 67.1875C26.0609 66.6113 26.4713 65.801 26.9631 65.3472L27.1911 65.4933C24.9617 69.3957 24.1011 73.5588 25.3101 77.9548C26.4258 82.0115 28.8494 85.2878 32.5363 87.3675C35.8893 89.2589 39.9588 89.8515 43.6861 88.799C45.6929 88.2326 47.4219 87.0966 49.1247 85.9298C52.6646 88.9013 56.3583 89.2209 60.7735 89.0703C60.3966 90.1114 60.0418 91.1672 59.6371 92.1976C58.6917 92.0528 57.6805 92.0818 56.7213 92.0016C53.7531 91.7524 51.5584 90.8598 48.9966 89.3895C44.8679 91.3415 41.6342 92.1837 37.0531 92.0724Z" fill="#097BC6"/>
<path d="M86.9002 85.5316C87.9921 86.7982 89.8082 87.8704 91.3367 88.5141C94.8958 90.0127 99.0437 89.9452 102.603 88.4928C107.543 86.4774 111.259 81.772 112.21 76.5273C112.416 75.3917 112.251 73.1766 112.618 72.3041L112.846 72.2112C113.619 76.7135 112.7 81.4123 110.062 85.158C107.516 88.7601 103.684 91.2461 99.3564 92.1014C98.3284 92.0564 97.2067 92.2705 96.1607 92.2827C92.67 92.3237 89.4334 91.1831 86.7193 88.9782C85.8649 89.6436 84.9339 90.2047 83.946 90.6483C80.339 92.3106 74.9695 92.719 71.2197 91.3255C71.8659 90.39 72.5428 89.4758 73.2491 88.5849C73.8842 88.9103 74.6139 89.0862 75.3174 89.1824C79.6568 89.7741 83.5351 88.1159 86.9002 85.5316Z" fill="#097BC6"/>
<path d="M45.1018 44.8861L45.4251 44.9516L45.4758 45.1263C45.3756 45.2712 45.2786 45.4169 45.1706 45.5556C44.8186 46.0062 44.5841 46.6143 44.3378 47.1328C42.7766 50.4152 42.0657 54.0553 42.0088 57.6815C41.4355 57.6983 40.8492 57.6901 40.2785 57.7396C40.2631 57.7032 40.2423 57.6684 40.2322 57.63C39.7878 55.9366 41.7866 50.9476 42.5249 49.3643C43.2185 47.8772 44.0431 46.4424 44.7887 44.9794L45.1018 44.8861Z" fill="#097BC6"/>
<path d="M67.1895 36.6447C68.5039 36.5868 69.82 36.7209 71.096 37.0429C76.9541 38.4663 82.0703 41.9671 85.2042 47.1435C87.2361 50.4996 87.9567 54.1614 87.9899 58.0524C87.9972 58.8847 88.0815 59.9479 87.8278 60.7447C87.7288 61.0565 87.6371 61.0811 87.3597 61.2128C87.0826 61.2075 86.8277 61.1862 86.5551 61.1322C86.2077 60.5597 86.6455 58.9392 86.6648 58.2414C86.6983 56.4883 86.4802 54.7392 86.017 53.0479C84.61 47.9824 82.0049 44.3967 77.6977 41.4323C76.1312 40.3544 74.1628 39.3149 72.3032 38.8932C71.0624 38.6119 67.7215 38.3729 66.946 37.851C66.7041 37.6883 66.6845 37.5958 66.626 37.3299C66.7082 36.9861 66.9251 36.8482 67.1895 36.6447Z" fill="#17B5C5"/>
<path d="M94.5004 61.532C96.2261 61.4726 98.4441 62.5043 99.9485 63.3228C103.286 65.1087 105.77 68.1562 106.846 71.7857C107.179 72.9192 107.971 76.2397 107.376 77.2272C107.216 77.492 106.961 77.5399 106.679 77.6041C106.503 77.4126 106.366 77.2092 106.287 76.9584C105.857 75.5936 105.95 73.7201 105.395 72.0312C104.216 68.4431 101.207 65.1267 97.6555 63.7901C96.4344 63.3306 95.0451 63.2078 93.8882 62.6029C93.5997 62.4524 93.4302 62.3296 93.3333 62.0137C93.3758 61.9257 93.4118 61.85 93.4777 61.7767C93.7183 61.5087 94.1693 61.5414 94.5004 61.532Z" fill="#17B5C5"/>
<path d="M114.242 43.1354C116.849 42.3309 121.637 43.7485 124.266 44.4405C122.375 44.7908 116.198 45.9927 114.66 45.5008C114.291 45.1534 113.944 44.7785 113.592 44.4139C113.693 43.8766 113.887 43.5529 114.242 43.1354Z" fill="#FED211"/>
<path d="M111.591 17.5955L111.719 17.7137C111.72 17.7518 111.724 17.8204 111.716 17.862C111.645 18.2112 111.18 18.7798 110.984 19.0862C109.906 20.7675 108.638 23.1002 106.854 24.0916C106.288 24.4059 105.852 24.4523 105.234 24.2722C105.126 24.1577 105.01 24.0375 104.923 23.9056C104.746 23.6375 104.736 23.2731 104.823 22.9725C105.333 21.2137 109.957 18.4834 111.591 17.5955Z" fill="#FED211"/>
<path d="M83.5937 7.44897C83.6133 7.46342 83.6346 7.47586 83.6526 7.49235C84.4805 8.25099 85.558 12.9339 85.7237 14.1347C85.8424 14.9907 85.8772 15.6091 85.3407 16.3231C85.3235 16.3274 85.3063 16.3319 85.2891 16.3359C85.2601 16.3424 85.231 16.3479 85.2024 16.3543C85.0244 16.3939 84.8386 16.4444 84.6552 16.4187C84.3229 16.372 84.0242 16.155 83.8298 15.8894C82.7118 14.3617 83.2528 9.2509 83.5937 7.44897Z" fill="#FED211"/>
<path d="M119.819 30.2152C119.952 30.1827 120.086 30.1901 120.223 30.1884L120.297 30.3159C120.269 30.3559 120.223 30.4294 120.185 30.4678C119.397 31.2812 114.617 33.5904 113.413 33.9713C113.045 34.0877 112.716 34.1288 112.331 34.1199C112.31 34.1085 112.289 34.0975 112.268 34.0857C111.949 33.9068 111.64 33.6134 111.553 33.2451C111.494 32.9964 111.569 32.7761 111.717 32.5731C112.848 31.0199 118.023 30.5071 119.819 30.2152Z" fill="#FED211"/>
<path d="M98.9127 10.2759L99.0825 10.3894C99.1922 11.2632 98.7862 12.4959 98.5976 13.3662C98.3267 14.6187 97.9375 17.5195 96.7479 18.2048C96.409 18.4 96.0824 18.2983 95.7301 18.2116C95.5349 17.9902 95.3949 17.793 95.3442 17.4959C95.0258 15.6411 97.8221 11.7447 98.9127 10.2759Z" fill="#FED211"/>
<defs>
<linearGradient id="paint0_linear_57_30" x1="65.507" y1="36.4749" x2="110.579" y2="38.1295" gradientUnits="userSpaceOnUse">
<stop stop-color="#FEBD18"/>
<stop offset="1" stop-color="#FFDD12"/>
</linearGradient>
</defs>
</svg>
