<svg width="131" height="132" viewBox="0 0 131 132" fill="none" xmlns="http://www.w3.org/2000/svg">
<g clip-path="url(#clip0_57_21)">
<path d="M109.29 16.6053C109.981 17.3619 110.55 18.3325 111.068 19.2168C112.917 22.3548 114.39 25.7005 115.456 29.1842C115.72 30.0726 115.939 30.9779 116.16 31.8779C116.281 32.372 116.349 32.9665 116.572 33.4179L117.144 36.6609C117.14 36.6969 117.136 36.7328 117.133 36.7689C117.071 37.4981 117.406 39.2412 117.472 40.095C117.611 42.1541 117.655 44.2185 117.602 46.2814C117.224 58.4988 112.803 71.5093 103.476 79.7709C101.14 81.8411 98.5071 83.6107 95.6286 84.8329C95.822 85.4548 95.8959 86.1437 96.0096 86.7851L96.6239 90.2655C96.8237 91.3919 97.0681 92.508 97.2744 93.6333C97.4989 94.8586 97.6846 96.1307 98.0109 97.332C98.1994 98.0249 98.5337 98.6806 98.7409 99.3707C98.9528 100.087 99.0691 100.828 99.0863 101.575C99.1408 103.514 98.6234 105.464 97.7303 107.175C96.3721 109.778 93.9869 112.076 91.1514 112.958C89.0362 113.615 86.7191 113.607 84.7338 112.548C82.9189 111.58 81.5719 109.918 81.0001 107.939C80.1927 105.189 80.7061 102.229 82.0825 99.7528C83.5809 97.056 86.0551 94.9936 89.0346 94.1662C91.2754 93.544 93.3535 93.8988 95.3989 94.9299L93.9989 87.8923C93.8412 87.1342 93.7608 86.3365 93.5594 85.591C90.1065 86.6172 87.0021 87.1942 83.3855 87.3027C70.7694 87.6831 58.394 82.5922 45.785 84.8614C44.3532 85.1187 42.9791 85.4075 41.601 85.8806C42.0976 88.7192 42.797 91.5504 43.4002 94.3695L46.6842 109.719C46.9109 110.765 47.1114 111.828 47.3843 112.863C47.838 114.583 48.3049 115.341 48.3051 117.26C48.3054 119.617 47.4537 122.001 46.1167 123.921C44.9986 125.527 43.502 126.939 41.7237 127.779C41.1889 128.032 40.6135 128.185 40.0801 128.43L38.2579 128.751C38.1278 128.74 37.9952 128.747 37.8646 128.746C35.5199 128.742 33.6817 128.177 31.9973 126.466C30.0563 124.493 29.5813 122.054 29.6112 119.38C29.2189 118.888 28.3448 118.226 27.8485 117.75C26.7741 116.717 25.7404 115.641 24.7498 114.527C20.6011 109.908 17.0928 105.295 14.7902 99.4632C14.4376 98.5703 14.1004 97.6554 13.8362 96.7319C13.6569 96.105 13.5348 95.4041 13.2979 94.8013L13.2571 94.6998L12.6106 91.0335C12.6555 90.6885 12.5849 90.2811 12.5623 89.9324C12.514 89.1876 12.4592 88.4416 12.4631 87.6943C12.4644 84.4284 12.9341 81.1797 13.8578 78.0484C16.8557 68.1968 23.5579 59.9022 32.5485 54.9168C32.2571 53.223 31.8042 51.5309 31.4387 49.8485L29.1605 39.3574C28.8966 38.1489 28.5469 36.9389 28.3317 35.723C28.2848 35.4582 28.2194 35.1392 28.311 34.8801C28.4194 34.5736 28.6749 34.3371 28.974 34.2212C29.2851 34.1007 29.6673 34.0745 29.9733 34.2237C30.4597 34.461 30.6163 35.0377 30.7642 35.5122C33.5715 37.1305 36.6957 38.1707 39.3608 40.0478C42.2687 42.096 44.7501 45.455 47.8631 46.9878C49.9299 48.0055 52.3643 47.728 54.4766 47.0112C53.8754 47.4499 53.2131 47.7978 52.511 48.0435C47.9572 49.6381 42.4163 46.6599 38.3751 44.7272L31.8766 41.6112C32.0727 42.1781 32.1626 42.7982 32.2862 43.3861L32.8853 46.1755C33.446 48.771 34.1007 51.3789 34.5519 53.9945C46.9088 48.4633 58.4473 51.3176 71.055 53.5162C76.4061 54.4492 82.0157 55.18 87.4046 54.14C87.0204 51.8107 86.5107 49.4667 86.0243 47.1562C85.7857 46.0252 85.6069 44.881 85.3763 43.7475C85.1844 42.806 84.794 41.494 84.7755 40.5626C84.7719 40.3643 84.8583 40.1334 84.9705 39.9733C85.1149 39.7674 85.3342 39.6301 85.5841 39.5985C86.3673 39.4993 86.9603 40.46 87.4332 40.9651C87.742 41.2949 88.0605 41.5909 88.4192 41.865C92.0187 44.6156 96.5931 45.5482 100.296 48.2788C104.8 45.0453 108.251 41.132 110.328 35.9347C112.035 31.6605 112.58 26.8664 111.415 22.3757C110.897 20.3762 110.098 18.4998 109.29 16.6053ZM36.6854 63.7146C37.2701 66.1564 37.8146 68.6341 38.3064 71.0962C48.8706 66.9311 59.5766 69.2521 70.1832 71.8873C74.0264 72.8419 77.897 73.6925 81.8493 74.0352C82.9685 74.1326 84.1102 74.2207 85.2337 74.182C87.2157 74.1358 89.3276 74.0123 91.2508 73.5095C90.9123 71.6585 90.5043 69.8192 90.1559 67.9699C90.0733 67.532 89.9523 67.0991 89.8878 66.658C88.7379 66.7285 87.5969 66.8971 86.4457 66.9496C83.657 67.0783 80.8765 66.8335 78.1211 66.4029C73.5986 65.6966 69.1757 64.3865 64.7433 63.2654C58.9881 61.8098 52.9751 60.7479 47.0194 61.1559C45.7411 61.2435 43.527 61.4514 42.3663 61.8575C40.4217 62.2949 38.5417 62.9999 36.6854 63.7146ZM29.0582 118.667C29.1885 118.825 29.3115 119.015 29.5098 119.086C29.6109 119.049 29.6392 119.043 29.6876 118.938C29.828 118.632 29.8051 118.167 29.8788 117.833C29.9862 117.344 30.2059 116.828 30.3746 116.356C31.4479 113.352 33.9051 110.796 36.8213 109.541C38.9353 108.631 41.3901 108.408 43.5561 109.282C43.8843 109.415 44.1947 109.575 44.5051 109.745C44.3069 109.206 44.2296 108.609 44.1119 108.048L43.5408 105.367C43.1675 103.615 39.7355 86.9616 39.5217 86.7384L39.3757 86.7726C32.9982 89.4852 27.9426 94.6027 25.3002 101.022C23.7759 104.761 23.2182 109.01 24.8102 112.833C25.7882 115.181 27.3334 116.87 29.0582 118.667ZM87.7513 83.6521C88.8206 83.6098 89.869 83.4255 90.9261 83.2693C91.6401 83.1634 92.3665 83.0836 93.0755 82.9525C92.5698 80.597 92.0617 78.2111 91.6616 75.8358C88.3708 76.3436 85.3525 76.4789 82.0384 76.1022C70.2971 74.768 59.3135 69.0485 47.1596 70.2354C45.9959 70.3491 44.6618 70.408 43.5457 70.7667C42.5405 70.995 41.5508 71.3854 40.5755 71.7196C39.9228 71.9432 39.2179 72.1349 38.5907 72.4194C38.9312 74.3165 39.539 76.1871 39.8112 78.0926C48.4554 75.2153 57.888 77.0793 66.4067 79.5121C73.6063 81.5686 80.1165 83.8603 87.7513 83.6521ZM34.7842 55.099C35.1354 56.3291 35.3719 57.6093 35.648 58.859C35.9079 60.0351 36.218 61.222 36.4029 62.4114C37.9822 61.7649 39.5651 61.1631 41.2092 60.7003C51.9317 57.6817 62.1491 59.8479 72.8737 61.2065C75.3197 61.5323 77.7759 61.7731 80.2381 61.9285C80.961 61.9685 81.8098 62.07 82.5283 61.9898C84.6522 61.9584 86.8083 61.8608 88.9 61.459C88.6407 60.7711 88.5475 60.0102 88.3996 59.2908C88.1884 58.2637 87.9553 57.2292 87.7693 56.1983C77.8066 57.7169 67.84 54.4944 58.0538 53.0706C53.8249 52.4553 49.4522 52.0989 45.1861 52.4801C43.5646 52.625 41.9664 52.9057 40.3663 53.1968C39.1598 53.565 37.9677 53.9925 36.7733 54.3986C36.1243 54.6193 35.4 54.8049 34.7842 55.099ZM89.9214 55.7633C90.0978 56.7463 90.3102 57.7258 90.5041 58.7058C90.6577 59.4811 90.7823 60.2868 91.0091 61.0436C91.3912 60.9517 91.7733 60.8599 92.1594 60.7843C96.3681 59.6323 99.8088 57.7918 103.1 54.9141C102.937 53.9022 102.066 51.2265 101.204 50.6578C101.129 50.6085 101.161 50.6205 101.072 50.6242C100.227 51.2004 99.3955 51.8048 98.5217 52.3372C95.9754 53.8889 92.8647 55.2296 89.9214 55.7633ZM113.25 28.8628C113.201 30.2895 113.151 31.7348 112.894 33.1418C111.926 38.4561 108.724 43.9668 104.795 47.6364C103.967 48.4101 103.044 49.0863 102.193 49.836C102.758 51.1018 103.325 52.3839 103.613 53.7472C103.661 53.9355 103.712 54.1235 103.755 54.3127C110.082 48.2399 113.28 40.359 113.474 31.6112C113.491 30.862 113.562 29.5146 113.25 28.8628ZM34.6535 64.8324C33.2829 65.6626 31.9204 66.4971 30.65 67.4781C24.1464 72.5442 19.5154 79.6405 17.4895 87.644C16.3319 92.3563 16.2215 97.3968 17.9319 101.994C18.1844 102.672 18.4464 103.376 18.7932 104.011L18.9053 104.175C18.9704 103.763 18.7598 103.227 18.7056 102.807C18.6416 102.31 18.6212 101.797 18.5946 101.297C18.5249 99.991 18.6194 98.6563 18.7487 97.3565C19.6294 88.5135 24.9293 79.7695 32.0777 74.5844C33.4363 73.5989 34.9004 72.8626 36.3048 71.9638C36.1684 71.2369 34.888 65.0762 34.6797 64.8495C34.6726 64.8418 34.6622 64.8381 34.6535 64.8324ZM89.4505 53.6771C91.9931 52.9007 94.4531 51.8747 96.7946 50.6141C97.3932 50.2598 97.9858 49.8962 98.5732 49.5234C95.696 49.2631 92.9266 48.9515 90.256 47.7649C89.4912 47.4252 88.8447 46.8653 88.0781 46.5363C88.4782 48.9284 89.0104 51.2935 89.4505 53.6771ZM36.5542 73.3947C29.4038 77.2849 23.6268 84.7206 21.3348 92.5252C20.0009 96.9213 19.839 101.591 20.8651 106.072C21.0805 106.984 21.281 107.905 21.6877 108.755L21.686 108.654C21.6711 108.07 21.514 107.43 21.4287 106.847C21.2993 105.953 21.2458 105.051 21.2686 104.148C21.4443 97.353 24.8197 89.8581 29.3875 84.8943C31.7583 82.3366 34.6102 80.2734 37.7795 78.8242C37.5504 77.6571 37.2738 76.4989 37.0251 75.3364C36.9103 74.7997 36.8348 74.2512 36.7119 73.7178C36.6816 73.5866 36.6411 73.4989 36.5542 73.3947ZM114.948 34.195L114.93 34.2767C114.729 35.2028 114.669 36.1696 114.52 37.1067C114.282 38.5201 113.987 39.9237 113.638 41.3137C111.457 50.0699 106.696 58.0219 99.0596 63.0148C96.7726 64.5096 94.6423 65.3244 92.0639 66.1608C92.4571 68.4111 92.9928 70.6429 93.3632 72.8942C95.7834 72.1376 98.2338 70.8997 100.306 69.4385C104.265 66.6468 108.182 62.0906 110.433 57.7918C113.552 51.8326 114.905 44.9433 115.113 38.2584C115.148 37.131 115.255 35.2602 114.948 34.195ZM95.1799 82.2365C95.8499 82.1891 96.6712 81.7036 97.2725 81.4066C100.916 79.6079 103.95 77.1031 106.604 74.0365C114.695 64.6874 117.831 51.9821 116.94 39.795C116.908 39.3564 116.905 38.7362 116.727 38.3338C116.633 39.9366 116.666 41.5255 116.465 43.1236C115.243 52.837 111.129 62.9531 103.72 69.5597C101.236 71.7743 97.0661 74.5633 93.7732 75.2569C94.0198 76.2282 94.1748 77.22 94.3628 78.2041C94.6172 79.5516 94.8898 80.8959 95.1799 82.2365ZM32.5578 56.0725C30.6835 57.1968 28.8331 58.3398 27.1283 59.7153C20.9698 64.6848 15.9917 72.2745 14.0627 79.9791C12.34 86.86 12.752 93.5408 15.678 100.043L15.7161 100.124C15.7536 99.8907 15.3344 97.4813 15.2809 96.871C15.1552 95.4216 15.144 93.9642 15.2477 92.513C16.0165 81.9754 22.2733 71.8519 30.7399 65.7285C31.9155 64.8783 33.1609 64.1445 34.4068 63.4044C34.1109 61.6924 33.6745 59.9879 33.2979 58.2912C33.1527 57.6366 33.0316 56.6352 32.7835 56.0535C32.6989 56.0519 32.6415 56.0537 32.5578 56.0725Z" fill="#FCFCFB"/>
<path d="M51.1839 16.4999C52.6007 15.9563 54.1893 16.6736 54.7228 18.098C55.2563 19.5224 54.5306 21.1087 53.1061 21.6321C51.6958 22.1503 50.1318 21.4305 49.6036 20.0204C49.0755 18.6103 49.7811 17.0381 51.1839 16.4999Z" fill="#FCFCFB"/>
<path d="M70.603 38.5939C71.5021 38.2083 72.5394 38.3367 73.3189 38.9302C74.0984 39.5238 74.4998 40.491 74.3705 41.4631C74.2412 42.4351 73.6007 43.2621 72.6935 43.6288C71.311 44.1875 69.7368 43.5261 69.1633 42.1461C68.5903 40.7659 69.2322 39.1816 70.603 38.5939Z" fill="#FCFCFB"/>
<path d="M91.1134 11.5032C92.5831 11.1962 94.0229 12.1444 94.3256 13.6185C94.6277 15.0928 93.6782 16.5318 92.2068 16.8289C90.7423 17.1246 89.3135 16.1771 89.0126 14.7099C88.7112 13.2428 89.6507 11.8088 91.1134 11.5032Z" fill="#FCFCFB"/>
<path d="M94.6705 29.6145C96.0917 29.1861 97.5911 29.9944 98.0183 31.4194C98.4456 32.8446 97.6396 34.3459 96.2174 34.7721C94.7975 35.1976 93.3005 34.3893 92.8736 32.9659C92.4467 31.5425 93.2511 30.0424 94.6705 29.6145Z" fill="#FCFCFB"/>
<path d="M115.026 84.7892C116.451 84.2933 118.007 85.0512 118.5 86.4806C118.993 87.9099 118.235 89.4673 116.808 89.9569C115.385 90.4452 113.836 89.6866 113.345 88.2618C112.854 86.837 113.606 85.2831 115.026 84.7892Z" fill="#FCFCFB"/>
<path d="M60.8112 96.1622C62.1762 95.6431 63.7041 96.3281 64.2296 97.6937C64.7553 99.0598 64.0813 100.594 62.7215 101.127C61.3518 101.663 59.8071 100.98 59.2777 99.6046C58.7483 98.2289 59.436 96.6844 60.8112 96.1622Z" fill="#FCFCFB"/>
<path d="M67.0373 7.69528L67.2044 7.66581C68.4032 8.40906 68.6173 9.61985 69.4566 10.638C70.6684 12.108 75.0511 12.3461 76.9469 12.9967C78.599 13.564 79.9841 14.5918 80.7563 16.193C82.0512 18.8789 81.6623 22.2568 80.7145 24.984L79.8365 25.4449C80.3507 23.1803 80.7008 20.7817 80.2117 18.4758C79.96 17.2912 79.3805 16.1781 78.3376 15.512C76.5694 14.3823 73.9427 14.5761 71.9725 15.0003C72.3235 15.7368 72.7802 16.4541 73.1875 17.1616L75.4197 20.9944C75.8269 21.6804 76.3082 22.3669 76.6402 23.0914C76.8 23.4402 76.9141 23.7832 76.9406 24.1693C77.0307 25.4832 76.286 26.7888 75.4434 27.7377C74.2711 29.0582 72.5618 30.1553 70.7571 30.2405C70.0872 30.272 69.3675 30.1338 68.8663 29.6561C68.4253 29.2359 68.2352 28.612 68.2168 28.0157C68.1756 26.6988 69.0195 25.3889 69.8863 24.468C71.3469 22.9171 72.9685 22.207 75.0716 22.14L69.788 13.2077L68.1641 10.4772C67.8336 9.92204 67.4656 9.36228 67.204 8.77077C67.0419 8.40513 67.0165 8.08662 67.0373 7.69528Z" fill="#FCFCFB"/>
</g>
<defs>
<clipPath id="clip0_57_21">
<rect width="112.386" height="114.218" fill="white" transform="translate(0 19.5158) rotate(-10)"/>
</clipPath>
</defs>
</svg>
