<svg width="171" height="95" viewBox="0 0 171 95" fill="none" xmlns="http://www.w3.org/2000/svg">
<path d="M111.596 58.9037C108.52 52.4508 107.572 36.2996 109.99 29.5039C111.597 24.9836 114.775 20.8549 119.169 18.7658C122.652 17.1097 128.231 16.4016 131.954 17.7101C132.988 18.0732 133.669 18.9797 134.627 19.4488C135.606 19.9285 136.778 20.031 137.786 20.4878C140.814 21.86 143.323 25.1414 144.713 28.0908C145.453 29.635 145.982 31.2713 146.287 32.9559C146.693 35.2769 146.671 37.6733 146.665 40.0219C146.652 45.7809 146.478 51.7168 144.499 57.1889C144.289 57.7707 144.066 58.3466 143.792 58.9021C142.484 59.1174 134.452 59.4125 133.909 59.8146C133.725 59.1335 133.788 58.4432 133.819 57.746C131.854 59.1657 129.692 61.283 127.04 60.8638C124.983 60.5391 123.593 59.0583 121.921 57.9908C121.9 58.557 121.839 59.1565 121.876 59.7201C118.862 59.6262 114.474 59.507 111.596 58.9037Z" fill="#554746"/>
<path d="M132.938 25.4092C133.359 27.5362 134.205 30.4483 136.088 31.7154C138.273 33.1855 140.252 33.149 140.864 36.1714C141.029 36.9841 140.99 38.3198 141.378 39.0175C141.033 40.7547 140.973 42.6164 140.753 44.3803C140.628 45.378 140.311 46.4647 140.316 47.4623L140.198 47.5165C139.798 49.3956 137.756 53.2903 136.354 54.6352L136.078 54.9578C135.413 55.9679 134.492 56.7622 133.819 57.7461C131.854 59.1657 129.692 61.2831 127.04 60.8639C124.983 60.5392 123.593 59.0583 121.921 57.9908C121.276 57.015 120.414 56.159 119.664 55.261C117.975 53.2375 116.333 50.7287 115.528 48.2081C115.555 47.9665 115.593 47.7674 115.469 47.547C114.423 45.6946 114.134 40.6479 114.312 38.4861C114.534 37.4626 115.163 36.8582 116.017 36.314C118.13 34.9676 120.649 34.537 123.009 33.8192C127.185 32.5495 131.132 29.4071 132.938 25.4092Z" fill="#EBB88D"/>
<path d="M130.459 49.5004C130.535 49.3096 130.498 49.0817 130.589 48.8682L131.005 48.8778C131.26 48.924 131.546 49.0004 131.804 49.0071L131.928 49.4357L131.698 49.5638L131.236 50.337L131.054 50.7996C130.755 50.5622 130.454 50.3278 130.151 50.0964L130.459 49.5004Z" fill="#FCFDFA"/>
<path d="M127.192 38.2665C127.206 38.2341 127.221 38.1963 127.238 38.1647C127.438 37.7996 127.593 37.7816 127.977 37.6805C128.168 37.8472 128.347 37.9814 128.428 38.231L128.492 38.2031L128.562 38.4165C128.461 38.6552 128.368 38.7415 128.143 38.8692L128.093 39.012C128.96 38.9546 132.96 42.3787 134.004 43.0476L134.078 43.2189C134.223 43.6029 134.252 43.7225 134.58 43.9681C133.615 45.5782 132.72 47.213 131.811 48.8541L131.894 48.9857L131.804 49.007C131.546 49.0004 131.26 48.9239 131.005 48.8777L130.589 48.8681C130.498 49.0816 130.535 49.3095 130.459 49.5004L130.151 50.0963C129.503 50.3347 128.497 51.4147 127.912 51.8938C127.178 51.3268 126.474 50.5428 125.632 50.1605C125.392 49.6847 125.324 49.3648 125.306 48.8388L124.757 48.7891L124.751 48.7352C123.992 48.327 122.777 44.5642 121.69 43.8538L121.665 43.0933C123.494 42.2972 125.566 39.5625 127.422 38.9858L127.381 38.8752C127.28 38.6903 127.243 38.47 127.192 38.2665Z" fill="#EBB88D"/>
<path d="M128.093 39.0119C128.96 38.9545 132.96 42.3787 134.004 43.0476L134.079 43.2188C134.223 43.6029 134.252 43.7224 134.58 43.9681C133.616 45.5781 132.72 47.213 131.811 48.8541L131.894 48.9857L131.804 49.007C131.546 49.0003 131.26 48.9239 131.005 48.8777L131.151 48.764C130.474 48.5246 129.255 45.0524 128.628 44.2377C128.147 42.4514 128.11 40.8549 128.093 39.0119Z" fill="#EBB88D"/>
<path d="M134.079 43.2189C134.223 43.6029 134.252 43.7225 134.58 43.9681C133.616 45.5781 132.72 47.213 131.811 48.8541L131.894 48.9857L131.804 49.007C131.546 49.0003 131.26 48.9239 131.005 48.8777L131.151 48.764C131.937 47.1634 133.745 44.8383 134.079 43.2189Z" fill="#F1E6D6"/>
<path d="M128.627 44.2378C129.255 45.0524 130.474 48.5246 131.151 48.764L131.005 48.8777L130.589 48.8681C130.498 49.0816 130.535 49.3095 130.46 49.5003L130.151 50.0963C129.503 50.3347 128.497 51.4147 127.912 51.8937C127.178 51.3268 126.474 50.5428 125.632 50.1605C125.392 49.6847 125.324 49.3648 125.306 48.8388C125.937 48.4742 127.316 45.1562 127.582 44.3597L127.904 44.145L128.627 44.2378Z" fill="#EBB88D"/>
<path d="M128.628 44.2378C129.255 45.0524 130.474 48.5246 131.151 48.764L131.005 48.8777L130.589 48.8681C130.498 49.0816 130.535 49.3095 130.46 49.5003C130.042 47.9835 128.736 45.5638 127.904 44.145L128.628 44.2378Z" fill="#EFDECA"/>
<path d="M127.192 38.2665C127.206 38.2341 127.221 38.1963 127.238 38.1647C127.438 37.7996 127.593 37.7816 127.977 37.6805C128.168 37.8472 128.347 37.9814 128.428 38.231L128.492 38.2031L128.562 38.4165C128.461 38.6552 128.368 38.7415 128.143 38.8692L128.093 39.012C128.11 40.855 128.147 42.4514 128.627 44.2378L127.904 44.145L127.581 44.3597C127.416 44.3219 127.243 44.229 127.086 44.164C127.554 42.4262 127.578 40.7663 127.422 38.9858L127.381 38.8752C127.28 38.6903 127.243 38.47 127.192 38.2665Z" fill="#FCFDFA"/>
<path d="M127.192 38.2665C127.206 38.2341 127.221 38.1963 127.239 38.1647C127.438 37.7996 127.594 37.7816 127.977 37.6805C128.168 37.8472 128.347 37.9814 128.429 38.231C128.195 38.6912 127.854 38.711 127.382 38.8752C127.28 38.6903 127.243 38.47 127.192 38.2665Z" fill="#FCFDFA"/>
<path d="M124.751 48.7352C125.808 47.6068 126.293 45.531 127.086 44.1641C127.243 44.2291 127.416 44.3219 127.582 44.3598C127.316 45.1562 125.937 48.4743 125.306 48.8388L124.757 48.7891L124.751 48.7352Z" fill="#F1E6D6"/>
<path d="M121.69 43.8538C122.777 44.5642 123.992 48.3271 124.751 48.7352L124.757 48.7891L125.306 48.8388C125.324 49.3649 125.392 49.6848 125.632 50.1606L125.375 50.4521C125.859 50.9369 126.349 51.5889 126.931 51.9414C127.336 51.7711 127.77 51.714 128.19 51.8778C128.409 51.9637 128.47 52.0362 128.613 52.2202C128.459 52.6151 128.294 52.9911 128.272 53.4202L128.05 53.8521C127.766 53.9219 127.697 53.8806 127.433 53.7802L127.24 53.9847C126.807 54.6562 127.103 55.8933 126.611 56.4418C126.493 56.2862 126.416 56.1568 126.356 55.9706C126.357 56.2357 126.354 56.4746 126.292 56.7338L126.056 56.7612L126.234 57.3312L126.28 57.4112C126.206 57.7445 126.155 58.1245 125.994 58.4261C124.413 57.044 122.272 56.1617 120.592 54.8392C120.638 54.5993 120.709 54.3314 120.657 54.0894C120.596 53.8119 120.383 53.7496 120.157 53.6007L119.771 52.935L119.289 53.2298C118.254 51.6603 117.445 49.7154 116.74 47.9664C117.14 47.8051 117.353 47.7812 117.575 47.3928L117.689 47.2876C117.696 46.9167 117.852 46.8289 118.087 46.5509C119.065 45.6994 119.935 44.4416 121.041 43.7771L121.69 43.8538Z" fill="#EFDECA"/>
<path d="M124.757 48.7891L125.306 48.8388C125.324 49.3648 125.392 49.6847 125.632 50.1605L125.375 50.452C125.859 50.9369 126.349 51.5888 126.931 51.9413C127.336 51.771 127.77 51.7139 128.19 51.8777C128.409 51.9637 128.47 52.0361 128.613 52.2201C128.459 52.615 128.294 52.9911 128.272 53.4201L128.05 53.8521C127.766 53.9219 127.697 53.8805 127.433 53.7802L127.24 53.9846C126.807 54.6561 127.103 55.8932 126.611 56.4418C126.493 56.2861 126.416 56.1568 126.356 55.9705C126.357 56.2357 126.354 56.4745 126.292 56.7337L126.056 56.7611L126.234 57.3311C125.077 57.5109 121.887 54.8042 120.642 54.195C121.751 52.6951 123.143 51.3661 124.608 50.214C124.544 50.1875 124.539 50.1886 124.472 50.142C124.192 49.9443 124.144 49.7609 124.1 49.4445C124.31 49.0639 124.38 49.0105 124.757 48.7891Z" fill="#EBB88D"/>
<path d="M125.375 50.452C125.859 50.9369 126.349 51.5889 126.932 51.9414C127.336 51.7711 127.77 51.714 128.19 51.8778C128.409 51.9637 128.47 52.0362 128.614 52.2202C128.459 52.615 128.294 52.9911 128.272 53.4202L128.051 53.8521C127.766 53.9219 127.697 53.8806 127.433 53.7802L127.24 53.9847C126.807 54.6561 127.103 55.8933 126.612 56.4418C126.493 56.2862 126.416 56.1568 126.356 55.9706C126.506 54.1833 125.012 52.1445 125.375 50.452Z" fill="#EBB88D"/>
<path d="M126.931 51.9414C127.336 51.7711 127.77 51.714 128.19 51.8778C128.409 51.9637 128.47 52.0362 128.613 52.2202C128.459 52.615 128.294 52.9911 128.272 53.4202L128.05 53.8521C127.766 53.9219 127.697 53.8806 127.433 53.7802C127.473 53.0565 127.26 52.563 126.931 51.9414Z" fill="#FCFDFA"/>
<path d="M124.757 48.7891L125.306 48.8388C125.324 49.3648 125.392 49.6847 125.632 50.1605L125.375 50.452C125.012 52.1445 126.506 54.1832 126.356 55.9705C126.357 56.2357 126.354 56.4745 126.292 56.7337L126.056 56.7611L124.608 50.214C124.544 50.1875 124.539 50.1886 124.472 50.142C124.192 49.9443 124.144 49.7609 124.1 49.4445C124.31 49.0639 124.38 49.0105 124.757 48.7891Z" fill="#F1E6D6"/>
<path d="M117.511 47.9484C119.43 48.4589 122.296 48.9295 123.996 49.6854C122.789 51.0507 121.447 52.3136 120.157 53.6007L119.771 52.935C119.126 51.2638 118.336 49.5372 117.511 47.9484Z" fill="#EBB88D"/>
<path d="M118.087 46.5509C119.066 45.6994 119.936 44.4416 121.041 43.7771C122.127 45.4466 123.045 47.1997 123.96 48.9664C121.902 48.3021 119.793 47.7858 117.689 47.2876C117.696 46.9167 117.852 46.8289 118.087 46.5509Z" fill="#EBB88D"/>
<path d="M131.204 34.9001C132.288 35.1887 133.296 35.7175 134.305 36.1955C135.896 37.1439 137.952 37.4968 139.387 38.4765L139.375 38.6805L139.499 39.085L139.807 39.2061C139.826 39.3899 139.895 39.6733 139.822 39.8434L139.629 39.4649C138.931 39.4832 135.963 42.4661 135.264 43.0579L135.234 43.2628L134.787 43.6877L134.58 43.9682C134.252 43.7225 134.223 43.603 134.079 43.2189L134.004 43.0477C132.96 42.3788 128.96 38.9546 128.093 39.012L128.144 38.8693C128.368 38.7416 128.461 38.6552 128.562 38.4165L128.492 38.2032C128.614 37.4027 129.94 36.2341 130.413 35.5205L131.204 34.9001Z" fill="#EBB88D"/>
<path d="M128.562 38.4165C130.638 39.7345 132.485 41.3836 134.565 42.6654C136.273 41.5796 137.869 40.0376 139.375 38.6804L139.499 39.085L139.807 39.206C139.826 39.3899 139.895 39.6733 139.822 39.8434L139.629 39.4649C138.931 39.4831 135.963 42.4661 135.264 43.0579L135.234 43.2628L134.787 43.6877L134.58 43.9682C134.252 43.7225 134.223 43.6029 134.079 43.2189L134.004 43.0476C132.96 42.3788 128.96 38.9546 128.093 39.012L128.144 38.8692C128.368 38.7415 128.461 38.6552 128.562 38.4165Z" fill="#F1E6D6"/>
<path d="M134.004 43.0476L134.129 42.764C134.424 42.6562 134.617 42.6387 134.911 42.7818C135.04 42.8447 135.159 42.9609 135.264 43.0579L135.233 43.2628L134.787 43.6877L134.58 43.9682C134.252 43.7225 134.223 43.6029 134.078 43.2189L134.004 43.0476Z" fill="#FCFDFA"/>
<path d="M124.857 35.0405L125.426 34.848L125.689 35.0688C126.173 35.6626 127.296 37.3631 127.957 37.5973L127.977 37.6805C127.594 37.7815 127.438 37.7996 127.239 38.1647C127.221 38.1963 127.206 38.234 127.192 38.2665C127.243 38.47 127.28 38.6903 127.382 38.8752L127.422 38.9858C125.566 39.5624 123.494 42.2972 121.665 43.0933C121.488 42.8375 121.276 42.7137 121.014 42.5571L120.851 42.5048C119.892 41.761 117.031 39.6271 116.447 38.6951C117.132 37.8526 122.265 35.8662 123.69 35.0582C124.074 35.0478 124.473 35.0144 124.857 35.0405Z" fill="#EBB88D"/>
<path d="M127.192 38.2665C127.243 38.47 127.28 38.6903 127.382 38.8752L127.422 38.9858C125.566 39.5625 123.494 42.2972 121.665 43.0933C121.487 42.8375 121.276 42.7137 121.014 42.5572C122.355 42.2292 125.824 39.2724 127.192 38.2665Z" fill="#F1E6D6"/>
<path d="M124.857 35.0405L125.426 34.848L125.689 35.0688C126.173 35.6626 127.296 37.3631 127.957 37.5973L127.977 37.6805C127.593 37.7815 127.438 37.7996 127.239 38.1647C127.221 38.1963 127.206 38.234 127.192 38.2665C127.176 37.4524 125.45 35.6541 124.857 35.0405Z" fill="#EFDECA"/>
<path d="M127.912 51.8937C128.497 51.4147 129.503 50.3347 130.151 50.0963C130.454 50.3277 130.755 50.5621 131.054 50.7995L131.236 50.3369C132.578 51.1464 133.833 52.7768 134.958 53.887L134.902 54.3104C133.14 55.3093 131.559 56.6167 129.743 57.5281L129.491 57.4132C129.234 56.9345 129.071 56.5169 128.96 55.9845C128.722 55.1322 128.493 54.2772 128.272 53.4201C128.294 52.9911 128.459 52.615 128.613 52.2201C128.47 52.0361 128.409 51.9637 128.19 51.8778C127.77 51.7139 127.336 51.7711 126.931 51.9414C126.349 51.5888 125.859 50.9369 125.375 50.452L125.632 50.1605C126.474 50.5428 127.178 51.3268 127.912 51.8937Z" fill="#EBB88D"/>
<path d="M127.912 51.8937C128.497 51.4147 129.503 50.3347 130.151 50.0963C130.454 50.3277 130.755 50.5621 131.054 50.7995C130.68 52.3274 130.277 53.8553 129.982 55.4005C129.688 55.4542 129.614 55.4129 129.348 55.3018C129.264 55.5819 129.218 55.8143 128.96 55.9845C128.722 55.1322 128.493 54.2772 128.272 53.4201C128.294 52.9911 128.459 52.615 128.613 52.2201C128.47 52.0361 128.409 51.9637 128.19 51.8778C127.77 51.7139 127.336 51.7711 126.931 51.9414C126.349 51.5888 125.859 50.9369 125.375 50.452L125.632 50.1605C126.474 50.5428 127.178 51.3268 127.912 51.8937Z" fill="#EFDECA"/>
<path d="M128.613 52.2202C128.95 51.8592 129.882 50.6793 130.387 50.6334C130.4 50.6322 130.414 50.6325 130.427 50.6321C130.511 51.0973 129.507 54.5461 129.348 55.3018C129.264 55.582 129.218 55.8144 128.96 55.9845C128.722 55.1322 128.493 54.2772 128.272 53.4202C128.294 52.9911 128.459 52.6151 128.613 52.2202Z" fill="#EBB88D"/>
<path d="M128.96 55.9845C129.218 55.8143 129.264 55.5819 129.348 55.3018C129.614 55.4129 129.688 55.4542 129.982 55.4005C129.974 56.1117 129.544 56.9055 129.743 57.5281L129.491 57.4132C129.234 56.9345 129.071 56.5169 128.96 55.9845Z" fill="#EFDECA"/>
<path d="M135.234 43.2628C136.289 44.3912 137.533 45.4121 138.504 46.601L138.219 46.8717L138.135 47.1657C138.146 47.3661 138.138 47.5966 138.191 47.7898L138.093 48.0781C137.794 47.9386 132.632 49.3292 131.928 49.4357L131.804 49.007L131.894 48.9857L131.811 48.8541C132.72 47.213 133.616 45.5782 134.58 43.9682L134.787 43.6877L135.234 43.2628Z" fill="#EBB88D"/>
<path d="M131.811 48.8541C133.882 48.248 136.139 47.9648 138.135 47.1656C138.146 47.3661 138.138 47.5966 138.191 47.7897L138.093 48.0781C137.794 47.9386 132.632 49.3291 131.928 49.4356L131.804 49.007L131.894 48.9857L131.811 48.8541Z" fill="#EFDECA"/>
<path d="M135.234 43.2628C136.289 44.3912 137.534 45.4121 138.504 46.601L138.219 46.8717C137.246 46.4394 135.617 44.5084 134.787 43.6877L135.234 43.2628Z" fill="#F1E6D6"/>
<path d="M131.928 49.4356C132.632 49.3291 137.794 47.9386 138.093 48.0781C137.381 49.9075 136.644 51.689 135.75 53.4374L135.768 53.4854C135.477 53.5986 135.212 53.7039 134.958 53.887C133.833 52.7768 132.578 51.1464 131.236 50.3369L131.699 49.5637L131.928 49.4356Z" fill="#EBB88D"/>
<path d="M131.236 50.3369L131.699 49.5637C132.116 50.1358 135.146 53.3357 135.699 53.4303C135.716 53.4332 135.733 53.4351 135.75 53.4374L135.768 53.4854C135.477 53.5986 135.212 53.704 134.958 53.887C133.833 52.7768 132.578 51.1464 131.236 50.3369Z" fill="#EFDECA"/>
<path d="M116.119 39.243C117.5 40.5048 119.146 41.6555 120.374 43.0544L120.414 43.0558C120.525 42.7547 120.61 42.7049 120.851 42.5048L121.014 42.5572C121.275 42.7138 121.487 42.8375 121.665 43.0933L121.69 43.8538L121.041 43.7771C119.935 44.4416 119.065 45.6994 118.087 46.551L117.5 46.1015C117.268 46.1826 117.233 46.1256 117.015 46.0296C116.643 43.7825 116.214 41.5216 116.119 39.243Z" fill="#EBB88D"/>
<path d="M120.851 42.5048L121.014 42.5571C121.275 42.7137 121.487 42.8375 121.665 43.0933L121.69 43.8538L121.041 43.7771C119.935 44.4415 119.065 45.6993 118.087 46.5509L117.5 46.1015C118.316 45.3565 120.084 44.1007 120.374 43.0544L120.414 43.0558C120.525 42.7546 120.61 42.7049 120.851 42.5048Z" fill="#EFDECA"/>
<path d="M120.851 42.5048L121.014 42.5571C121.276 42.7137 121.487 42.8375 121.665 43.0933L121.69 43.8538L121.041 43.7771C120.743 43.5578 120.57 43.3942 120.414 43.0558C120.525 42.7546 120.61 42.7049 120.851 42.5048Z" fill="#FCFDFA"/>
<path d="M135.264 43.0578C135.963 42.466 138.931 39.4831 139.629 39.4648L139.822 39.8433C139.124 42.0196 139.178 44.393 138.504 46.601C137.534 45.412 136.289 44.3912 135.234 43.2628L135.264 43.0578Z" fill="#EBB88D"/>
<path d="M115.319 37.8626C116.643 37.8928 121.836 35.2855 123.5 34.663L123.689 35.0582C122.265 35.8662 117.132 37.8527 116.447 38.6952C117.031 39.6272 119.891 41.761 120.851 42.5048C120.61 42.7049 120.525 42.7547 120.414 43.0558L120.374 43.0544C119.146 41.6555 117.5 40.5048 116.119 39.243C116.214 41.5216 116.643 43.7825 117.015 46.0296L116.748 46.2562L116.527 46.1805L116.268 45.4096C116.326 43.8357 115.611 40.7615 115.276 39.1339L114.991 38.6553C114.993 38.2445 115.067 38.188 115.319 37.8626Z" fill="#F1E6D6"/>
<path d="M115.276 39.1339L114.991 38.6553C114.993 38.2445 115.067 38.188 115.319 37.8625C115.74 37.9679 115.909 37.9818 116.211 38.2904C116.29 38.6111 116.29 38.6597 116.136 38.9518C115.802 39.1437 115.663 39.1329 115.276 39.1339Z" fill="#FCFDFA"/>
<path d="M128.272 53.4202C128.493 54.2772 128.722 55.1322 128.96 55.9845C129.071 56.517 129.234 56.9345 129.491 57.4133L129.743 57.5281C131.559 56.6168 133.14 55.3093 134.902 54.3105L134.958 53.887C135.212 53.704 135.477 53.5987 135.768 53.4854L136.21 53.6387L136.128 53.8221L136.354 54.6352L136.078 54.9578C135.566 54.8048 135.409 54.7479 134.925 55.0098C133.153 55.9695 131.53 57.2372 129.803 58.2806C129.715 58.1421 129.608 57.9473 129.472 57.8545C129.187 57.6602 128.855 57.7911 128.538 57.8443L128.082 58.1051C128.201 58.2355 128.203 58.4347 128.087 58.5672C128.025 58.6381 127.937 58.6805 127.843 58.6848C127.748 58.6891 127.656 58.6553 127.588 58.5903C127.462 58.4717 127.443 58.2779 127.545 58.1373L127.064 57.7133C126.969 57.4466 126.931 57.1803 126.705 57.0032L126.28 57.4111L126.234 57.3312L126.056 56.7612L126.292 56.7338C126.354 56.4746 126.357 56.2357 126.356 55.9706C126.416 56.1568 126.493 56.2862 126.612 56.4418C127.103 55.8933 126.807 54.6561 127.24 53.9847L127.433 53.7802C127.697 53.8806 127.766 53.9219 128.051 53.8521L128.272 53.4202Z" fill="#F1E6D6"/>
<path d="M127.24 53.9847L127.587 54.3653L127.804 54.3218C128.432 55.0491 128.383 56.8959 128.538 57.8443L128.082 58.1052C128.201 58.2356 128.203 58.4347 128.087 58.5673C128.025 58.6381 127.937 58.6805 127.843 58.6848C127.748 58.6891 127.656 58.6553 127.588 58.5904C127.462 58.4717 127.443 58.278 127.545 58.1374L127.064 57.7134C126.969 57.4466 126.931 57.1804 126.705 57.0033L126.28 57.4112L126.234 57.3312L126.056 56.7612L126.292 56.7338C126.354 56.4746 126.357 56.2358 126.356 55.9706C126.416 56.1569 126.493 56.2862 126.612 56.4419C127.103 55.8933 126.807 54.6562 127.24 53.9847Z" fill="#EBB88D"/>
<path d="M127.24 53.9847L127.587 54.3653C127.612 55.4779 127.304 56.6308 127.064 57.7134C126.969 57.4466 126.931 57.1804 126.705 57.0033L126.28 57.4112L126.234 57.3312L126.056 56.7612L126.292 56.7338C126.354 56.4746 126.357 56.2358 126.356 55.9706C126.416 56.1569 126.493 56.2862 126.612 56.4419C127.103 55.8933 126.807 54.6562 127.24 53.9847Z" fill="#EFDECA"/>
<path d="M127.545 58.1373C127.605 58.0525 127.701 57.9994 127.805 57.9935C127.91 57.987 128.011 58.0283 128.082 58.1051C128.201 58.2355 128.203 58.4346 128.087 58.5672C128.025 58.6381 127.937 58.6805 127.842 58.6847C127.748 58.689 127.656 58.6552 127.588 58.5903C127.462 58.4717 127.443 58.2779 127.545 58.1373Z" fill="#F1E6D6"/>
<path d="M135.768 53.4855L136.21 53.6387L136.128 53.8221C135.956 54.259 135.899 54.34 135.532 54.6326C135.422 54.6363 135.205 54.6739 135.13 54.6025C135.032 54.5102 134.946 54.4415 134.902 54.3105L134.958 53.887C135.212 53.704 135.477 53.5987 135.768 53.4855Z" fill="#FCFDFA"/>
<path d="M125.689 35.0689C125.754 35.0338 125.819 35.0012 125.888 34.9744C126.478 34.7442 129.475 34.7719 130.057 35.0258L130.135 35.0858C130.223 35.228 130.306 35.3926 130.413 35.5206C129.94 36.2341 128.613 37.4027 128.492 38.2032L128.428 38.231C128.347 37.9814 128.168 37.8473 127.977 37.6806L127.957 37.5974C127.296 37.3632 126.173 35.6627 125.689 35.0689Z" fill="#EBB88D"/>
<path d="M130.057 35.0258L130.135 35.0857C130.223 35.228 130.306 35.3925 130.413 35.5205C129.94 36.234 128.614 37.4026 128.492 38.2032L128.429 38.231C128.347 37.9814 128.168 37.8472 127.977 37.6806L127.957 37.5974C128.596 36.7056 129.399 35.9149 130.057 35.0258Z" fill="#F1E6D6"/>
<path d="M139.807 39.206L140.398 39.1467C140.118 41.1298 139.753 43.1048 139.511 45.0925C139.43 45.7574 139.515 46.8895 139.326 47.4747C139.249 47.713 139.024 47.9277 138.837 48.0802L138.191 47.7897C138.138 47.5966 138.147 47.3661 138.135 47.1657L138.219 46.8717L138.504 46.601C139.178 44.393 139.124 42.0196 139.822 39.8434C139.895 39.6733 139.826 39.3899 139.807 39.206Z" fill="#F1E6D6"/>
<path d="M125.248 34.0409C127.038 34.1206 128.841 34.1512 130.628 34.0033L130.135 35.0858L130.057 35.0258C129.475 34.7719 126.478 34.7442 125.888 34.9744C125.819 35.0012 125.754 35.0337 125.689 35.0689L125.426 34.8481L125.248 34.0409Z" fill="#EFDECA"/>
<path d="M138.191 47.7897L138.836 48.0801L138.664 48.5995C138.071 49.9859 137.182 52.6012 136.21 53.6386L135.768 53.4854L135.75 53.4374C136.644 51.689 137.381 49.9075 138.093 48.0781L138.191 47.7897Z" fill="#EFDECA"/>
<path d="M134.715 35.754C136.317 36.3761 137.976 37.3012 139.613 37.7688L139.387 38.4764C137.952 37.4967 135.896 37.1438 134.305 36.1954L134.715 35.754Z" fill="#EFDECA"/>
<path d="M116.268 45.4095L116.527 46.1804L116.748 46.2562L117.015 46.0296C117.233 46.1255 117.268 46.1826 117.5 46.1015L118.087 46.5509C117.852 46.8289 117.696 46.9167 117.689 47.2876L117.575 47.3928C117.353 47.7812 117.14 47.8051 116.74 47.9664L116.295 47.5476C116.163 47.1263 116.233 47.0083 116.368 46.5867L116.268 45.4095Z" fill="#FCFDFA"/>
<path d="M116.268 45.4095L116.527 46.1804L116.748 46.2562L117.015 46.0296C117.233 46.1255 117.268 46.1826 117.5 46.1015L118.087 46.5509C117.852 46.8289 117.696 46.9167 117.689 47.2876L117.575 47.3928C117.474 47.1782 117.332 46.7875 117.151 46.6382C116.914 46.4427 116.655 46.5519 116.368 46.5867L116.268 45.4095Z" fill="#EFDECA"/>
<path d="M126.28 57.4111L126.704 57.0032C126.93 57.1803 126.969 57.4465 127.064 57.7133L127.544 58.1373C127.443 58.2779 127.462 58.4716 127.588 58.5903C127.314 58.8243 127.127 58.944 126.77 59.0089C126.369 58.8699 126.275 58.7454 125.994 58.426C126.155 58.1244 126.206 57.7444 126.28 57.4111Z" fill="#FCFDFA"/>
<path d="M132.003 34.5507C132.932 34.8469 133.832 35.3404 134.715 35.7541L134.305 36.1954C133.296 35.7174 132.288 35.1887 131.204 34.9001C131.617 34.8388 131.711 34.8481 132.003 34.5507Z" fill="#F1E6D6"/>
<path d="M139.613 37.7689C140.046 37.8116 140.52 37.8005 140.845 38.1244C140.921 38.4163 140.909 38.5076 140.758 38.7707C140.673 38.9179 140.525 39.0367 140.398 39.1467L139.807 39.206L139.499 39.085L139.375 38.6804L139.387 38.4765L139.613 37.7689Z" fill="#FCFDFA"/>
<path d="M128.538 57.8442C128.855 57.7911 129.187 57.6601 129.472 57.8544C129.608 57.9473 129.715 58.1421 129.803 58.2806C129.597 58.6815 129.561 58.8227 129.165 59.0352C128.739 59.039 128.421 58.806 128.087 58.5672C128.203 58.4346 128.201 58.2355 128.082 58.1051L128.538 57.8442Z" fill="#FCFDFA"/>
<path d="M130.628 34.0033C130.928 33.9179 131.055 33.8677 131.346 34.0242C131.581 34.1508 131.803 34.3741 132.003 34.5507C131.711 34.8481 131.617 34.8388 131.204 34.9001L130.413 35.5205C130.306 35.3925 130.223 35.228 130.135 35.0857L130.628 34.0033Z" fill="#FCFDFA"/>
<path d="M119.771 52.9351L120.157 53.6008C120.383 53.7496 120.596 53.8119 120.657 54.0894C120.709 54.3315 120.638 54.5993 120.592 54.8392C120.447 54.7909 120.303 54.7399 120.163 54.6782C119.62 54.4388 119.487 53.7443 119.289 53.2298L119.771 52.9351Z" fill="#FCFDFA"/>
<path d="M123.5 34.6629C124.054 34.3748 124.604 34.0235 125.248 34.0408L125.426 34.848L124.857 35.0405C124.473 35.0144 124.074 35.0478 123.69 35.0581L123.5 34.6629Z" fill="#FCFDFA"/>
<path d="M141.378 39.0175C141.833 39.0445 142.331 39.0208 142.717 39.2942C143.321 40.1356 143.008 41.5935 142.848 42.5524C142.604 44.0214 142.202 45.4126 141.505 46.7353C141.111 46.9795 140.719 47.2324 140.316 47.4623C140.311 46.4647 140.628 45.3779 140.753 44.3803C140.973 42.6164 141.033 40.7547 141.378 39.0175Z" fill="#CFA27F"/>
<path d="M114.312 38.4861C114.134 40.6479 114.423 45.6947 115.469 47.547C115.593 47.7674 115.555 47.9665 115.528 48.2081C115.174 47.4484 114.625 47.1935 114.133 46.5641C112.733 44.77 112.447 41.4369 112.721 39.2835C113.392 39.1073 113.861 39.0438 114.312 38.4861Z" fill="#CFA27F"/>
<path d="M27.4355 35.9028C27.424 35.1399 27.4206 34.3768 27.4251 33.6137C27.4762 28.8602 28.3413 24.4617 31.9108 21.0083C35.3659 17.6656 40.7042 16.8948 45.3134 16.9767C50.1934 17.0634 56.5962 18.926 60.0361 22.5064C63.8519 26.4782 63.5207 30.728 63.4072 35.8137C64.3547 36.3759 64.944 36.9914 65.2247 38.0786C65.7351 40.0533 64.5762 42.4228 63.5734 44.0921C63.1023 44.8767 62.2323 46.0787 61.2912 46.315C60.7798 46.4435 60.205 46.458 59.6791 46.5001C58.9139 50.1641 57.5884 53.5438 55.0664 56.3607L54.6781 56.7187C54.448 56.986 54.1737 57.2565 53.9775 57.5485C53.5186 57.9059 53.0549 58.2575 52.5865 58.6026C48.8663 61.7381 48.5812 62.6211 43.4437 62.3688C42.4531 61.6807 41.4704 60.9706 40.5412 60.2015C39.5549 59.3852 38.5891 58.4078 37.4784 57.7728C36.768 56.7574 35.7925 55.9126 35.0239 54.9346C33.1688 52.5743 32.1354 49.353 31.5714 46.435C31.3011 46.4165 31.0311 46.3939 30.7615 46.3673C29.6438 46.2538 28.789 45.6519 28.0962 44.7907C26.8021 43.1821 25.7035 40.5087 25.9449 38.4124C26.0791 37.2457 26.5231 36.6178 27.4355 35.9028Z" fill="#EBB88D"/>
<path d="M41.67 49.6609C41.8361 49.8223 42.0087 50.0203 42.1917 50.1597L41.8893 50.3108L41.0948 51.1746L40.6157 50.8148C40.9434 50.5346 41.2257 50.1842 41.5153 49.865L41.67 49.6609Z" fill="#F1E6D6"/>
<path d="M27.4354 35.9028C27.4239 35.1399 27.4205 34.3768 27.425 33.6137C27.4761 28.8602 28.3412 24.4617 31.9107 21.0083C35.3658 17.6656 40.7041 16.8948 45.3133 16.9767C50.1933 17.0634 56.5962 18.926 60.0361 22.5064C63.8518 26.4782 63.5206 30.728 63.4071 35.8137C63.1071 36.3771 63.0909 37.1323 63.0108 37.762C62.5656 41.2511 62.4785 43.6129 59.3574 45.7434C59.942 43.2956 61.5272 36.6675 60.1845 34.4092C59.9705 34.049 59.7075 33.8344 59.2967 33.7403C57.741 33.3839 56.0848 34.5585 54.4581 34.2898C48.1408 33.246 41.0083 27.7229 34.7076 31.8898C33.1138 32.9438 31.4963 34.526 31.1143 36.4688C30.6356 38.9039 31.4412 43.0955 31.7843 45.6361C30.2026 44.8754 29.3623 44.0743 28.7741 42.3884C28.0364 40.2742 28.0128 38.0305 27.4354 35.9028Z" fill="#623915"/>
<path d="M37.3146 22.219C37.7195 22.3357 38.1979 22.8595 38.5266 23.1354C37.7704 23.8811 36.7346 24.2841 36.0281 25.0333C35.1733 25.9397 34.7012 27.1641 33.7904 28.0255C32.6699 29.0852 31.1006 29.9325 30.1868 31.1584C29.9606 31.1787 29.7546 31.0956 29.5413 31.0294C29.3591 30.8068 29.2367 30.7055 29.2568 30.396C29.33 29.2695 36.0229 23.3527 37.3146 22.219Z" fill="#6D4622"/>
<path d="M57.9541 36.7688C58.2423 36.9835 58.5466 37.2551 58.8913 37.366C58.7203 40.8143 57.9901 44.2244 57.8643 47.6966C57.9417 48.2329 57.8729 48.4862 57.5481 48.9176C57.4739 49.0159 57.397 49.1126 57.3179 49.2074C56.5995 51.3687 55.4025 53.3657 54.6507 55.5401L54.6292 55.7618L55.0664 56.3608L54.6782 56.7187C54.3378 56.6135 54.085 56.4922 53.7426 56.6774C53.5792 56.7654 53.3683 56.9415 53.2486 57.0848C51.4742 58.14 49.5815 59.4206 48.1695 60.9347C47.9914 60.5713 47.7737 59.997 47.7348 59.594C47.7761 59.9729 47.8453 60.3813 47.7927 60.7608C47.757 61.0184 47.7367 61.0388 47.5295 61.1918C47.2843 61.114 47.0822 61.1043 46.9326 60.888C47.0981 60.6878 47.2614 60.4855 47.4226 60.2815L47.3388 60.0158C47.2936 58.1566 48.3113 51.8246 48.0461 50.5401L48.0291 50.3932L47.8146 49.9485L48.1877 49.4091C48.3065 49.0666 48.3751 48.9591 48.6472 48.7192L48.5945 48.6142L49.148 47.9975C49.524 46.4534 51.4453 44.9699 51.5214 43.0101C51.5374 42.9872 51.5514 42.9627 51.5695 42.9414C51.8437 42.6178 52.1031 42.6693 52.4971 42.6412L52.2935 42.6221C52.786 41.9139 53.6129 41.2198 54.2168 40.5928C55.4477 39.3142 56.642 37.9643 57.9541 36.7688Z" fill="#EFDECA"/>
<path d="M56.7919 48.7754L56.686 48.5214C56.8656 48.8339 57.0124 49.0132 57.3178 49.2075C56.5994 51.3687 55.4024 53.3657 54.6507 55.5401C54.435 55.334 54.1726 55.2042 53.9134 55.0619L53.772 54.99C53.454 54.537 52.9853 54.12 52.6217 53.6944C51.5034 52.3841 50.3986 51.0842 49.2227 49.824C51.6078 49.1225 54.3221 49.0723 56.7919 48.7754Z" fill="#EBB88D"/>
<path d="M56.7918 48.7754L56.6859 48.5214C56.8655 48.8339 57.0123 49.0132 57.3177 49.2075C56.5993 51.3687 55.4023 53.3657 54.6506 55.5401C54.4349 55.334 54.1725 55.2042 53.9133 55.0619C54.471 54.7318 56.524 49.6903 56.7918 48.7754Z" fill="#F1E6D6"/>
<path d="M48.97 50.5228C50.2057 51.796 52.014 54.5429 53.3779 55.37L53.5285 56.137C52.4865 56.3039 48.9629 59.3933 47.8711 60.1838C48.2647 56.9667 48.5602 53.7394 48.97 50.5228Z" fill="#EBB88D"/>
<path d="M51.5214 43.0101C51.5374 42.9872 51.5514 42.9628 51.5695 42.9414C51.8437 42.6178 52.1031 42.6693 52.4971 42.6412C52.6692 42.9388 52.7087 43.0457 52.7047 43.3892L52.4577 43.6728L52.3994 43.745C53.8275 45.208 55.345 46.5853 56.7684 48.0463C55.5031 48.1393 50.2969 49.1399 49.5178 48.7831L49.3567 48.565C49.2485 48.6297 49.1597 48.6897 49.0312 48.7045L49.148 47.9976C49.524 46.4535 51.4453 44.97 51.5214 43.0101Z" fill="#EBB88D"/>
<path d="M51.5214 43.0101C51.5374 42.9872 51.5514 42.9628 51.5695 42.9414C51.8437 42.6178 52.1031 42.6693 52.4971 42.6412C52.6692 42.9388 52.7087 43.0457 52.7047 43.3892L52.4577 43.6728L52.3994 43.745C51.3766 44.4036 50.3643 47.4695 49.3567 48.565C49.2485 48.6297 49.1597 48.6897 49.0312 48.7045L49.148 47.9976C49.524 46.4535 51.4453 44.97 51.5214 43.0101Z" fill="#F1E6D6"/>
<path d="M51.5212 43.0101C51.5373 42.9872 51.5512 42.9628 51.5693 42.9414C51.8435 42.6178 52.1029 42.6693 52.4969 42.6412C52.6691 42.9388 52.7085 43.0457 52.7046 43.3892L52.4575 43.6728C52.2908 43.669 52.0798 43.6808 51.9255 43.6121C51.6595 43.4939 51.6314 43.2651 51.5212 43.0101Z" fill="#FCFDFA"/>
<path d="M48.1875 49.4091C48.3064 49.0667 48.375 48.9591 48.6471 48.7192C48.8615 49.0184 48.9903 49.2538 49.0728 49.6135C48.8972 50.0027 48.7415 50.1315 48.3327 50.2853C48.232 50.3229 48.1308 50.3589 48.029 50.3933L47.8145 49.9485L48.1875 49.4091Z" fill="#FCFDFA"/>
<path d="M56.686 48.5213C56.742 48.3098 56.8264 48.1024 56.8995 47.8961C57.256 47.663 57.4485 47.6979 57.8642 47.6966C57.9416 48.2329 57.8728 48.4861 57.548 48.9176C57.4738 49.0159 57.3969 49.1126 57.3179 49.2074C57.0124 49.0131 56.8656 48.8338 56.686 48.5213Z" fill="#FCFDFA"/>
<path d="M53.7719 54.99L53.9134 55.0619C54.1725 55.2041 54.435 55.334 54.6506 55.5401L54.6291 55.7618C54.3893 56.0479 54.2876 56.2524 53.9155 56.357C53.7881 56.2915 53.6369 56.2298 53.5285 56.137L53.3779 55.37L53.7719 54.99Z" fill="#FCFDFA"/>
<path d="M57.9072 37.5532L58.0336 37.7128C58.3197 39.0511 57.3453 45.8921 56.9001 47.3637C56.3021 46.6728 55.5939 46.0428 54.9443 45.3982C54.1571 44.679 53.4342 43.8803 52.6965 43.1107C54.4813 41.3964 56.4279 39.5341 57.9072 37.5532Z" fill="#EBB88D"/>
<path d="M45.0189 38.847C45.1975 39.1177 45.2369 39.3119 45.2606 39.6331L45.592 39.6478L45.7445 39.1245L45.923 39.0504C47.9824 40.0904 49.5582 41.8551 51.5213 43.0101C51.4452 44.97 49.5239 46.4535 49.1479 47.9976L48.5944 48.6143L48.6471 48.7193C48.375 48.9591 48.3064 49.0667 48.1876 49.4091L47.8145 49.9486C47.0276 50.4069 46.0786 51.7445 45.1458 51.6708L44.5304 51.8381C44.0404 51.6885 43.515 51.1185 43.1733 50.7495C43.0032 50.4066 42.6496 50.5713 42.3537 50.2236C42.6423 50.1709 42.7778 50.1329 42.9805 49.9064L42.7547 49.3689L42.3295 48.9011L42.5374 48.6963L42.4691 48.4894L42.2766 48.5945C41.3786 48.082 39.7957 44.4795 39.2322 43.4266L39.2822 43.1585C41.0058 41.5779 43.121 40.2237 45.0189 38.847Z" fill="#EBB88D"/>
<path d="M45.0189 38.847C45.1975 39.1177 45.2369 39.3119 45.2606 39.6331L45.592 39.6478C45.7838 40.1129 45.9785 40.5642 46.0824 41.0586L45.3466 41.5982C45.1098 41.5967 44.9917 41.4979 44.8136 41.3585C44.1561 43.3955 42.5027 46.4361 42.4691 48.4894L42.2766 48.5945C41.3786 48.082 39.7957 44.4795 39.2322 43.4266L39.2822 43.1585C41.0058 41.5779 43.121 40.2237 45.0189 38.847Z" fill="#EBB88D"/>
<path d="M45.2607 39.6331L45.5921 39.6478C45.7839 40.1129 45.9786 40.5642 46.0826 41.0586L45.3467 41.5982C45.1099 41.5967 44.9918 41.4978 44.8137 41.3585C44.8858 40.7613 45.0776 40.2033 45.2607 39.6331Z" fill="#FCFDFA"/>
<path d="M45.592 39.6477L45.7445 39.1244L45.923 39.0503C47.9824 40.0903 49.5582 41.855 51.5213 43.0101C51.4452 44.9699 49.5239 46.4534 49.1479 47.9975L48.5944 48.6142C48.049 46.4249 46.9693 44.3232 46.3362 42.1371C46.2749 41.7762 46.1688 41.4148 46.0825 41.0585C45.9785 40.5642 45.7838 40.1128 45.592 39.6477Z" fill="#EBB88D"/>
<path d="M42.4692 48.4893C42.5028 46.436 44.1561 43.3954 44.8137 41.3584C44.9918 41.4978 45.1098 41.5966 45.3466 41.5982L45.4454 41.6954C44.0152 43.996 43.6749 46.8733 42.7547 49.3688L42.3296 48.901L42.5375 48.6963L42.4692 48.4893Z" fill="#F1E6D6"/>
<path d="M45.908 42.8653L46.0623 42.2432L46.3363 42.1371C46.9694 44.3232 48.0491 46.4249 48.5945 48.6142L48.6472 48.7192C48.3751 48.959 48.3065 49.0666 48.1877 49.409C48.0586 47.7627 46.5513 44.5605 45.908 42.8653Z" fill="#F1E6D6"/>
<path d="M42.9806 49.9064C43.7462 50.4189 44.4822 51.0305 45.1458 51.6707L44.5305 51.838C44.0405 51.6884 43.5151 51.1184 43.1734 50.7494C43.0033 50.4065 42.6497 50.5712 42.3538 50.2236C42.6424 50.1709 42.7779 50.1328 42.9806 49.9064Z" fill="#EFDECA"/>
<path d="M46.0826 41.0586C46.1689 41.4149 46.275 41.7762 46.3363 42.1371L46.0623 42.2433L45.908 42.8653C45.8264 42.4098 45.6773 42.0905 45.4455 41.6954L45.3467 41.5982L46.0826 41.0586Z" fill="#EFDECA"/>
<path d="M32.4902 37.3911L33.1282 37.2198C33.1419 37.5289 33.0963 37.9562 33.2635 38.2112L33.4355 38.0724C35.1792 39.3923 36.3704 41.4058 37.9212 42.9192C38.064 42.6079 38.1379 42.6141 38.4414 42.4899L38.5898 42.5806L39.2823 43.1585L39.2323 43.4266C39.7958 44.4795 41.3787 48.0819 42.2766 48.5945L42.4692 48.4894L42.5375 48.6963L42.3296 48.901L42.7547 49.3689L42.9806 49.9064C42.7779 50.1329 42.6424 50.1709 42.3538 50.2236L42.1917 50.1597C42.0087 50.0203 41.8361 49.8223 41.67 49.6609L41.5153 49.865C41.2258 50.1842 40.9434 50.5346 40.6157 50.8148C39.3639 52.0645 38.2298 53.4153 36.905 54.5934C35.9112 52.8132 34.9468 50.996 34.1916 49.1002L33.8298 49.0173L33.6678 49.1755L33.6705 49.7077C33.5419 49.4475 33.3984 49.2538 33.2074 49.0365C32.944 48.5989 32.8902 48.2805 32.9378 47.773C32.9971 46.8442 32.8788 45.8436 32.8514 44.908C32.7934 42.3998 32.6729 39.8934 32.4902 37.3911Z" fill="#EFDECA"/>
<path d="M33.2634 38.2112L33.4354 38.0724C35.1791 39.3922 36.3703 41.4058 37.9211 42.9192C37.8297 44.0579 34.9 46.3642 34.077 47.1914L33.8965 47.1313C33.115 45.3639 33.4209 40.4222 33.2634 38.2112Z" fill="#EBB88D"/>
<path d="M34.1917 49.1002C34.4877 48.8276 34.6742 48.875 35.0601 48.8889C36.313 48.9339 40.6128 49.3113 41.5153 49.8649C41.2258 50.1842 40.9434 50.5345 40.6158 50.8148C39.3639 52.0645 38.2298 53.4153 36.905 54.5933C35.9112 52.8131 34.9468 50.9959 34.1917 49.1002Z" fill="#EBB88D"/>
<path d="M32.9377 47.773C33.3072 47.6576 33.4809 47.5602 33.8629 47.649C34.0182 47.914 34.0626 48.0152 33.9689 48.3269C33.8445 48.7407 33.5597 48.8636 33.2073 49.0365C32.9439 48.5989 32.8901 48.2805 32.9377 47.773Z" fill="#FCFDFA"/>
<path d="M41.6699 49.6608C41.7398 49.4198 41.8174 49.1811 41.9027 48.9451L42.3295 48.901L42.7546 49.3689L42.9805 49.9064C42.7778 50.1328 42.6423 50.1709 42.3537 50.2236L42.1916 50.1597C42.0086 50.0203 41.836 49.8223 41.6699 49.6608Z" fill="#FCFDFA"/>
<path d="M37.9211 42.9191C38.064 42.6078 38.1378 42.614 38.4413 42.4899L38.5897 42.5805L39.2822 43.1585L39.2322 43.4266C39.2237 43.4384 39.2164 43.4513 39.2068 43.4622C38.9798 43.7175 38.8675 43.6814 38.5513 43.6913C38.1529 43.4292 38.1162 43.3576 37.9211 42.9191Z" fill="#FCFDFA"/>
<path d="M38.4979 43.6876C38.536 43.7168 38.5433 43.7214 38.5831 43.7576C38.6251 43.7959 41.2712 48.3355 41.3333 48.4934C41.36 48.5613 41.3495 48.7181 41.3552 48.7967C40.7203 49.2426 38.3828 48.6398 37.5392 48.5119C36.4394 48.2277 35.1761 48.2273 34.0371 47.9875C35.5227 46.5579 36.9854 45.0866 38.4979 43.6876Z" fill="#EBB88D"/>
<path d="M45.1459 51.6707C46.0787 51.7444 47.0277 50.4068 47.8146 49.9485L48.0291 50.3932L48.0461 50.5401C48.3113 51.8246 47.2936 58.1566 47.3388 60.0158C47.053 60.3808 46.9627 60.5461 46.4794 60.6067C45.7464 60.698 44.6494 60.75 44.0488 60.2611C44.003 60.2241 44.0031 60.2203 43.9581 60.1725L43.4818 59.9723L43.0828 59.8145C42.0458 59.2354 37.9618 56.0891 37.3433 55.2003C37.2643 54.8729 37.1496 54.8166 36.905 54.5933C38.2298 53.4152 39.3639 52.0645 40.6158 50.8148L41.0948 51.1745L41.8894 50.3107L42.1918 50.1596L42.3538 50.2236C42.6497 50.5712 43.0033 50.4065 43.1734 50.7494C43.5151 51.1184 44.0405 51.6884 44.5306 51.838L45.1459 51.6707Z" fill="#EBB88D"/>
<path d="M42.1918 50.1597L42.3538 50.2236C42.6497 50.5712 43.0033 50.4066 43.1734 50.7494C42.779 51.5001 43.7424 58.8565 43.9581 60.1726L43.4818 59.9724L43.0828 59.8146C42.0458 59.2354 37.9618 56.0892 37.3433 55.2004C37.2643 54.873 37.1496 54.8166 36.905 54.5933C38.2298 53.4153 39.3639 52.0645 40.6158 50.8148L41.0948 51.1745L41.8894 50.3108L42.1918 50.1597Z" fill="#EBB88D"/>
<path d="M42.1916 50.1597L42.3536 50.2236C42.6495 50.5712 43.0031 50.4066 43.1732 50.7494C42.7788 51.5001 43.7423 58.8565 43.9579 60.1726L43.4816 59.9724L43.0826 59.8146C43.199 59.0911 42.1647 50.7911 41.8892 50.3108L42.1916 50.1597Z" fill="#EFDECA"/>
<path d="M40.6158 50.8148L41.0948 51.1745C39.8633 52.5373 38.5985 53.8607 37.3433 55.2004C37.2643 54.873 37.1496 54.8166 36.905 54.5934C38.2298 53.4153 39.3639 52.0645 40.6158 50.8148Z" fill="#EFDECA"/>
<path d="M45.1458 51.6707C46.0786 51.7444 47.0276 50.4068 47.8145 49.9485L48.029 50.3932L48.0459 50.5401C47.3969 51.0246 46.814 51.5501 46.2297 52.1101C45.8945 51.9318 45.5002 51.8108 45.1458 51.6707Z" fill="#F1E6D6"/>
<path d="M44.5305 51.838L45.1458 51.6707C45.5003 51.8108 45.8946 51.9318 46.2298 52.1101C46.1428 52.2731 46.0553 52.4458 45.9465 52.5953C45.7545 52.8591 45.6442 52.9552 45.3244 53.0073C44.923 52.7811 44.7314 52.2352 44.5305 51.838Z" fill="#FCFDFA"/>
<path d="M49.2997 34.826C52.1902 35.3131 55.0597 35.9168 57.9011 36.6356L57.9538 36.7688C56.6418 37.9643 55.4474 39.3141 54.2166 40.5928C53.6126 41.2198 52.7858 41.9139 52.2932 42.6221L52.4968 42.6412C52.1028 42.6692 51.8434 42.6178 51.5692 42.9414C51.5512 42.9627 51.5372 42.9871 51.5212 43.0101C49.5581 41.855 47.9823 40.0903 45.9228 39.0503L45.7444 39.1244L45.5919 39.6477L45.2605 39.633C45.2368 39.3118 45.1974 39.1176 45.0188 38.847C44.8304 38.7614 44.6785 38.6242 44.5186 38.4953L44.9779 38.0134L45.3291 37.5223L45.4487 37.5321L45.9503 38.1047C45.9623 38.0801 45.9739 38.0553 45.9864 38.0309C46.5539 36.9159 48.1179 35.2297 49.2997 34.826Z" fill="#EBB88D"/>
<path d="M45.3291 37.5223L45.4487 37.5321L45.9503 38.1047L46.0105 38.2647C47.3979 39.2159 50.9825 42.2125 52.2932 42.6221L52.4968 42.6412C52.1028 42.6692 51.8434 42.6178 51.5692 42.9414C51.5512 42.9627 51.5372 42.9871 51.5212 43.0101C49.5581 41.855 47.9823 40.0903 45.9228 39.0503L45.7444 39.1244L45.5919 39.6477L45.2605 39.633C45.2368 39.3118 45.1974 39.1176 45.0188 38.847C44.8304 38.7614 44.6785 38.6242 44.5186 38.4953L44.9779 38.0134L45.3291 37.5223Z" fill="#F1E6D6"/>
<path d="M45.3291 37.5223L45.4487 37.5321L45.9503 38.1047L46.0105 38.2647C45.9487 38.437 45.9109 38.7016 45.7425 38.7845C45.5501 38.8792 45.3619 38.8291 45.1585 38.8122C45.1005 38.8074 45.0686 38.8188 45.0188 38.847C44.8304 38.7614 44.6785 38.6242 44.5186 38.4953L44.9779 38.0134L45.3291 37.5223Z" fill="#FCFDFA"/>
<path d="M41.5441 34.8254C41.8966 34.9581 42.2774 35.0741 42.607 35.2558C43.3133 36.2261 44.1711 37.1254 44.978 38.0134L44.5187 38.4953C44.6787 38.6242 44.8305 38.7613 45.0189 38.8469C43.1211 40.2236 41.0059 41.5778 39.2822 43.1584L38.5897 42.5805L38.4413 42.4898C38.1378 42.614 38.064 42.6078 37.9212 42.9191C36.3703 41.4057 35.1792 39.3922 33.4355 38.0723L33.2635 38.2111C33.0962 37.9561 33.1418 37.5289 33.1282 37.2198L33.3319 36.9601L33.4211 37.0125C36.125 36.2696 38.8327 35.5406 41.5441 34.8254Z" fill="#EBB88D"/>
<path d="M33.3319 36.9602L33.4211 37.0126C33.755 37.4213 34.1618 37.7422 34.5139 38.1349L38.4413 42.49C38.1378 42.6141 38.064 42.6079 37.9212 42.9192C36.3703 41.4058 35.1792 39.3923 33.4355 38.0725L33.2635 38.2113C33.0962 37.9563 33.1418 37.529 33.1282 37.2199L33.3319 36.9602Z" fill="#EFDECA"/>
<path d="M44.5186 38.4954C44.6785 38.6243 44.8304 38.7614 45.0188 38.847C43.1209 40.2237 41.0058 41.5779 39.2821 43.1585L38.5896 42.5806C39.666 42.4026 43.3206 39.3608 44.5186 38.4954Z" fill="#F1E6D6"/>
<path d="M33.6705 49.7076L33.6677 49.1754L33.8297 49.0172L34.1916 49.1001C34.9467 50.9959 35.9112 52.8131 36.9049 54.5933C37.1496 54.8166 37.2643 54.8729 37.3432 55.2003C37.9618 56.0891 42.0458 59.2354 43.0827 59.8145L43.4817 59.9723L43.0673 60.6405C42.1104 59.953 37.0671 56.1675 36.6183 55.5819C36.2081 55.0474 35.9836 54.2584 35.6867 53.6509C35.0398 52.3264 34.3326 51.0257 33.6705 49.7076Z" fill="#EFDECA"/>
<path d="M33.1414 36.2575C35.7116 36.1758 38.8877 34.739 41.5175 34.2723C41.5136 34.4473 41.485 34.6594 41.544 34.8255C38.8325 35.5406 36.1248 36.2696 33.421 37.0126L33.3318 36.9601C33.3292 36.7077 33.2301 36.49 33.1414 36.2575Z" fill="#F1E6D6"/>
<path d="M49.6172 34.2985C52.0448 34.643 55.9449 36.0184 58.1803 35.9612C58.0878 36.1796 57.9706 36.4097 57.9012 36.6356C55.0598 35.9168 52.1903 35.3131 49.2998 34.8261C49.5079 34.6834 49.5271 34.5268 49.6172 34.2985Z" fill="#F1E6D6"/>
<path d="M47.3388 60.0159L47.4226 60.2815C47.2614 60.4855 47.0981 60.6878 46.9326 60.888C47.0822 61.1043 47.2843 61.114 47.5295 61.1918C47.7367 61.0389 47.757 61.0185 47.7927 60.7608C47.8453 60.3814 47.7761 59.9729 47.7348 59.594C47.7737 59.9971 47.9914 60.5714 48.1695 60.9347C48.0859 61.0678 47.8694 61.3909 47.7079 61.4425C47.0273 61.6609 45.4505 60.8827 44.4244 61.2611C44.2048 61.3416 43.9761 61.3963 43.7506 61.4586C43.378 61.246 43.2824 60.997 43.0674 60.6406L43.4818 59.9724L43.9581 60.1726C44.0032 60.2204 44.003 60.2241 44.0489 60.2611C44.6495 60.7501 45.7464 60.698 46.4794 60.6068C46.9627 60.5461 47.053 60.3808 47.3388 60.0159Z" fill="#F1E6D6"/>
<path d="M45.4487 37.5322C46.4975 36.4596 47.5047 35.3532 48.2636 34.0483L48.2976 33.9892C48.7498 33.9068 49.2012 34.14 49.6172 34.2985C49.527 34.5269 49.5078 34.6835 49.2997 34.8261C48.1179 35.2298 46.5539 36.916 45.9864 38.031C45.9739 38.0554 45.9623 38.0802 45.9503 38.1048L45.4487 37.5322Z" fill="#FCFDFA"/>
<path d="M42.9569 34.9136C43.7278 35.7663 44.6483 36.6068 45.3292 37.5224L44.978 38.0134C44.171 37.1254 43.3132 36.2262 42.6069 35.2559L42.9569 34.9136Z" fill="#F1E6D6"/>
<path d="M58.1805 35.9612C58.5827 35.9464 58.83 35.891 59.1968 36.0885C59.2629 36.5741 59.0634 36.9147 58.8913 37.3661C58.5466 37.2552 58.2423 36.9836 57.9541 36.7688L57.9014 36.6356C57.9707 36.4098 58.088 36.1796 58.1805 35.9612Z" fill="#FCFDFA"/>
<path d="M41.5177 34.2724C41.8846 34.1069 42.1802 33.8939 42.5844 33.9614C42.765 34.2676 42.8597 34.5731 42.9571 34.9136L42.607 35.2559C42.2774 35.0742 41.8966 34.9582 41.5442 34.8255C41.4852 34.6594 41.5138 34.4473 41.5177 34.2724Z" fill="#FCFDFA"/>
<path d="M32.4901 37.3911C32.3186 36.9888 32.1807 36.7739 32.2352 36.3291C32.5978 36.1274 32.7384 36.2018 33.1414 36.2575C33.2301 36.4901 33.3293 36.7078 33.3318 36.9602L33.1281 37.2199L32.4901 37.3911Z" fill="#FCFDFA"/>
<path d="M52.5864 58.6027C53.0547 58.2576 53.5185 57.906 53.9773 57.5486C53.7257 59.2741 54.0338 63.6334 55.1114 65.0477C56.2186 66.5017 59.1815 66.9316 60.9012 67.4082C61.8401 67.7383 62.7763 68.085 63.7361 68.3507C66.1554 69.0237 68.5258 69.875 70.8966 70.6994C71.8016 71.0139 72.7857 71.2463 73.6595 71.6279C72.8717 72.8221 71.7264 73.8537 70.652 74.7897C65.9538 78.8839 59.9322 81.9899 53.8063 83.2463C43.6163 85.3363 32.9878 83.658 24.2593 77.8963C21.5871 76.1326 19.2828 74.0008 16.9839 71.7868C19.9231 71.0048 24.1873 68.8858 26.798 68.4902C27.5754 68.2015 28.3932 67.9809 29.1848 67.7308C31.1212 66.9525 34.3626 66.6702 35.7853 65.1368C36.9746 63.8551 37.536 59.521 37.4782 57.7729C38.5889 58.4079 39.5548 59.3853 40.5411 60.2016C41.4703 60.9707 42.453 61.6808 43.4436 62.3689C48.5811 62.6212 48.8662 61.7382 52.5864 58.6027Z" fill="#1A5074"/>
<path d="M52.5863 58.6027C53.0547 58.2576 53.5184 57.906 53.9773 57.5486C53.7257 59.2741 54.0338 63.6334 55.1114 65.0477C56.2186 66.5017 59.1815 66.9316 60.9012 67.4082C60.9496 67.7324 60.9603 67.807 60.7544 68.0839C58.4636 71.161 52.7206 72.7915 49.0551 73.2842C43.4109 74.0437 36.0094 73.3427 31.3413 69.8052C30.5909 69.2363 29.7404 68.4945 29.1848 67.7308C31.1211 66.9525 34.3626 66.6702 35.7853 65.1368C36.9746 63.8551 37.536 59.521 37.4782 57.7729C38.5889 58.4079 39.5547 59.3853 40.541 60.2016C41.4703 60.9707 42.453 61.6808 43.4435 62.3689C48.5811 62.6212 48.8662 61.7382 52.5863 58.6027Z" fill="#CFA27F"/>
<path d="M60.9013 67.4081C61.8402 67.7382 62.7764 68.0849 63.7362 68.3506C63.7115 68.3559 63.6873 68.3602 63.6626 68.3656C62.9899 68.5239 60.6061 71.229 59.7043 71.8269C53.2188 76.1255 44.8177 76.9564 37.3959 74.9061C35.6496 74.4236 34.0083 73.8836 32.4268 72.9927C30.7602 72.054 29.0499 70.8984 27.805 69.4326C27.5008 69.0741 27.2631 68.6286 26.7981 68.4901C27.5755 68.2014 28.3933 67.9808 29.1849 67.7307C29.7405 68.4944 30.591 69.2362 31.3415 69.8051C36.0095 73.3426 43.4111 74.0436 49.0553 73.2841C52.7207 72.7914 58.4638 71.1608 60.7545 68.0838C60.9605 67.8069 60.9497 67.7323 60.9013 67.4081Z" fill="#1F6693"/>
<path d="M121.921 57.9908C123.593 59.0584 124.983 60.5392 127.04 60.8639C129.692 61.2831 131.854 59.1657 133.819 57.7461C133.788 58.4433 133.725 59.1335 133.909 59.8146C134.115 61.8134 134.524 64.483 136.184 65.8238C138.139 67.4017 141.34 67.3567 143.566 68.5036C147.564 69.5884 151.464 71.0681 155.418 72.3095C150.283 78.6359 139.917 83.1159 131.912 83.9484C121.633 85.1125 111.318 82.087 103.305 75.5578C102.153 74.625 100.993 73.6148 99.9297 72.5822C103.709 71.2431 107.499 69.8782 111.336 68.7124C112.534 68.6502 118.373 66.5306 119.341 65.7621C121.043 64.4101 121.634 61.7828 121.876 59.7202C121.839 59.1566 121.9 58.5571 121.921 57.9908Z" fill="#C30100"/>
<path d="M121.921 57.9908C123.593 59.0584 124.983 60.5392 127.039 60.8639C129.692 61.2831 131.854 59.1657 133.819 57.7461C133.788 58.4433 133.725 59.1335 133.909 59.8146C134.114 61.8134 134.524 64.483 136.184 65.8238C138.139 67.4017 141.34 67.3567 143.566 68.5036C139.742 72.7062 134.365 74.1376 128.863 74.4054C123.12 74.6845 116.92 73.6787 112.542 69.7038C112.222 69.4134 111.775 68.7495 111.335 68.7124C112.534 68.6502 118.373 66.5306 119.341 65.7621C121.043 64.4101 121.634 61.7828 121.876 59.7202C121.839 59.1566 121.9 58.5571 121.921 57.9908Z" fill="#CFA27F"/>
<path d="M100.574 52.4663C101.025 52.4482 101.407 52.4552 101.851 52.5627C103.204 53.784 101.806 60.2231 102.749 62.4295C102.962 62.9276 103.304 63.3709 103.79 63.6291C105.464 64.5206 109.302 64.2136 111.279 64.1401C112.07 64.1111 113.034 63.9377 113.773 64.2683C114.106 64.4176 114.364 64.6848 114.476 65.0343C114.565 65.3139 114.615 65.9408 114.474 66.2032C114.387 66.3637 114.141 66.3916 113.973 66.4469C111.702 66.7078 107.277 66.7528 105.021 66.5076C103.515 66.3439 102.185 65.8608 101.219 64.6446C99.5596 62.5562 99.9188 59.5312 99.9151 57.0382C99.9135 55.969 99.821 54.8365 99.9506 53.7765C100.021 53.2014 100.096 52.8359 100.574 52.4663Z" fill="#FCFDFA"/>
<path d="M153.418 52.4519C154.102 52.4245 154.502 52.3812 155.032 52.8661C155.405 53.6804 155.372 60.0207 155.345 61.2772C155.315 62.6662 154.844 63.9672 153.824 64.9371C151.336 67.303 145.833 66.5644 142.617 66.499C142.055 66.4759 141.39 66.5151 140.923 66.163C140.66 65.9649 140.385 65.6552 140.353 65.3155C140.331 65.0895 140.405 64.9044 140.559 64.7358C141.583 63.6232 147.693 64.2689 149.435 64.1315C150.452 64.051 151.583 63.7788 152.233 62.9244C153.873 60.7668 152.002 54.1168 153.418 52.4519Z" fill="#FCFDFA"/>
<path d="M18.6397 52.4524C18.889 52.4625 19.127 52.4725 19.3618 52.5648C20.941 53.1855 19.6412 60.5257 20.4935 62.4214C21.9967 65.7652 28.8717 63.2088 31.6652 64.3086C31.9112 64.4057 32.136 64.5635 32.2356 64.8168C32.3755 65.1727 32.281 65.6659 32.104 65.9939C31.9077 66.3567 31.5284 66.3905 31.1676 66.493C28.7986 66.7839 23.8658 66.8693 21.5612 66.3084C20.2931 65.9998 19.379 65.2956 18.7084 64.1792C18.3146 63.5239 18.064 62.8052 17.9259 62.0549C17.6092 60.3347 17.4702 54.9943 17.9027 53.3578C18.0264 52.8901 18.2249 52.6883 18.6397 52.4524Z" fill="#FCFDFA"/>
<path d="M71.1408 52.4975C71.6017 52.4678 72.1141 52.3762 72.5357 52.601C73.4687 53.62 73.1342 58.4503 73.1229 60.0341C73.11 61.8456 72.875 63.6592 71.5135 64.9843C69.2206 67.2166 63.0839 66.5424 59.9242 66.5183C59.6053 66.5397 59.2477 66.5049 58.9477 66.3921C58.6896 66.2955 58.4551 66.0744 58.3406 65.8248C58.1534 65.4158 58.2911 65.0197 58.4347 64.6226C59.3036 63.6511 66.4405 64.3301 68.3096 63.9592C73.0251 63.0242 69.341 55.1285 71.1172 52.5308C71.1252 52.5196 71.1328 52.5086 71.1408 52.4975Z" fill="#FCFDFA"/>
<path d="M61.6266 11.4792C63.8147 11.3922 67.6799 11.196 69.6937 11.9855C70.9182 12.4606 71.8963 13.4125 72.4034 14.6222C72.6717 15.2466 72.8207 15.909 72.8954 16.5826C73.0212 17.716 73.1675 23.83 72.8637 24.5436C72.7615 24.784 72.5701 24.9494 72.3227 25.0384C71.978 25.1624 71.6253 25.0274 71.3118 24.8863C71.0639 24.5775 71.0494 24.4435 70.987 24.0519C70.9692 21.5865 71.1929 18.919 70.916 16.4813C70.3008 11.072 60.8657 14.8228 58.7309 13.0475C58.5035 12.8581 58.504 12.7751 58.4739 12.485C58.5395 12.3528 58.6169 12.2215 58.7261 12.1198C59.5096 11.3901 60.6345 11.495 61.6266 11.4792Z" fill="#FCFDFA" fill-opacity="0.976471"/>
<path d="M143.153 12.0867C145.341 11.9998 149.206 11.8035 151.22 12.593C152.444 13.0682 153.422 14.0201 153.93 15.2297C154.198 15.8541 154.347 16.5165 154.422 17.1902C154.547 18.3236 154.694 24.4376 154.39 25.1511C154.288 25.3915 154.096 25.557 153.849 25.6459C153.504 25.7699 153.151 25.635 152.838 25.4938C152.59 25.1851 152.575 25.051 152.513 24.6595C152.495 22.1941 152.719 19.5266 152.442 17.0889C151.827 11.6796 142.392 15.4304 140.257 13.655C140.03 13.4657 140.03 13.3826 140 13.0925C140.066 12.9604 140.143 12.829 140.252 12.7273C141.036 11.9976 142.161 12.1026 143.153 12.0867Z" fill="#FCFDFA" fill-opacity="0.976471"/>
<path d="M22.3942 11.8575C23.5526 11.7823 30.5856 11.6602 31.1901 12.0623C31.4561 12.2392 31.4782 12.3474 31.5387 12.6437C30.3782 14.2782 23.186 12.1981 21.0312 14.1447C19.9953 15.0806 19.9873 16.3911 19.938 17.6746C19.8927 19.5184 20.2826 22.6057 19.9024 24.2541C19.8372 24.5368 19.7786 24.6383 19.5267 24.7889C19.1723 25.0009 18.6892 25.0378 18.2957 24.9337C18.206 24.7907 18.1406 24.6412 18.1043 24.4756C17.7261 22.7518 17.7765 15.2622 18.6813 13.9716C19.5396 12.7472 20.9655 12.1104 22.3942 11.8575Z" fill="#FCFDFA" fill-opacity="0.976471"/>
<path d="M104.579 11.8487C105.779 11.781 112.869 11.6018 113.658 11.8645C113.758 11.8978 113.91 12.0233 114.004 12.082C114.159 12.4218 114.195 12.5119 114.151 12.8837C112.717 14.2706 105.48 12.3746 103.223 14.186C102.375 14.8672 102.124 15.8458 102.025 16.8733C101.897 18.508 101.919 20.2151 101.957 21.8549C101.973 22.5075 102.092 23.2296 102.025 23.8735C101.979 24.313 101.781 24.6958 101.439 24.9714C101.126 25.0378 101.049 25.018 100.755 24.8916C100.574 24.7392 100.518 24.5774 100.476 24.3521C100.16 22.6728 100.142 15.1121 101.002 13.8792C101.839 12.6794 103.18 12.0889 104.579 11.8487Z" fill="#FCFDFA" fill-opacity="0.980392"/>
<path d="M22.5693 60.4866C22.7175 60.9122 22.7783 61.2723 23.2211 61.4951C25.1959 62.4869 31.6604 60.9836 33.1084 62.0087L33.1859 62.3045C33.0214 62.5814 32.8342 62.6276 32.5234 62.7059C30.8468 63.1267 24.0209 63.0752 22.5181 62.1654C22.1551 61.9459 21.9927 61.6346 21.8147 61.2659C21.9367 60.8746 22.2476 60.705 22.5693 60.4866Z" fill="url(#paint0_linear_60_5)"/>
<path d="M67.3617 62.6603C65.2081 62.992 59.7791 63.0521 57.6566 62.7516C57.4131 62.5626 57.37 62.4961 57.2754 62.203C58.0202 61.3947 65.6297 61.7119 67.2499 61.6062C67.0493 61.9213 66.9923 61.947 67.0412 62.3313L67.3617 62.6603Z" fill="#B4E9EE"/>
<path d="M150.06 62.3876C148.999 62.9877 141.903 63.0038 140.549 62.7193C140.189 62.6442 139.935 62.5749 139.729 62.2658L139.898 62.0044C142.109 61.2116 147.021 61.9802 149.759 61.6244L149.516 62.0742C149.694 62.2937 149.798 62.305 150.06 62.3876Z" fill="#B4E9EE"/>
<path d="M105.377 62.5153C104.827 62.2711 104.454 62.0661 104.208 61.4805C103.633 60.1135 103.502 52.9056 104.027 51.5688L104.296 51.6228C105.298 52.9419 104.344 58.6547 104.913 60.7957C105.039 61.2696 105.186 61.5014 105.616 61.7489L105.652 61.7693L105.963 61.8176L105.979 61.9673L106.347 61.999L106.07 61.875L106.365 62.0494L105.674 62.0435L105.613 62.2475C105.955 62.4794 106.074 62.3956 106.473 62.3387C106.187 62.5878 105.75 62.518 105.377 62.5153Z" fill="#D2EEED" fill-opacity="0.984314"/>
<path d="M105.652 61.7693C107.597 61.7033 113.689 61.3791 115.224 61.9722L115.42 62.1858C115.248 62.4762 115.161 62.4745 114.832 62.5593C113.177 62.9855 107.041 63.0268 105.377 62.5153C105.75 62.518 106.187 62.5878 106.473 62.3388C106.074 62.3957 105.955 62.4794 105.613 62.2475L105.674 62.0436L106.365 62.0495L106.07 61.875L106.347 61.999L105.979 61.9673L105.963 61.8176L105.652 61.7693Z" fill="#B4E9EE"/>
<path d="M68.2602 60.1227C68.1763 58.4159 67.9746 53.0323 68.543 51.7564L68.7549 51.5969C68.9372 51.7035 69.0022 51.7011 69.0571 51.9071C69.412 53.24 69.4088 60.1221 68.9716 61.3716C68.97 60.9428 69.0705 60.5134 68.8038 60.1704L68.2602 60.1227Z" fill="#B4E9EE" fill-opacity="0.988235"/>
<path d="M21.8147 61.2658C21.5104 59.0556 21.6295 56.7182 21.6466 54.4902C21.6532 53.6354 21.7359 52.7778 21.6191 51.9276L21.8424 51.7312L22.1175 51.7689C22.37 52.0302 22.4437 52.2825 22.4889 52.6392C22.5906 53.4413 22.4842 54.3217 22.4626 55.1316C22.4155 56.8958 22.3642 58.7341 22.5693 60.4865C22.2476 60.7049 21.9367 60.8745 21.8147 61.2658Z" fill="#D2EEED"/>
<path d="M111.994 15.2296C112.786 15.2372 113.662 15.1785 114.384 15.5466L114.419 15.7059C113.389 16.1592 107.229 15.9624 105.425 16.1349C104.708 16.3759 104.839 17.0071 104.345 17.3887C104.217 17.2006 104.126 17.0992 104.116 16.8623C104.105 16.5485 104.236 16.252 104.456 16.0306C105.658 14.8225 110.315 15.2266 111.994 15.2296Z" fill="#D5E4EC" fill-opacity="0.984314"/>
<path d="M67.6316 16.1317C64.8429 15.673 61.7321 15.9507 58.8971 15.9331C58.5315 15.9308 58.0787 15.9682 57.8125 15.6994C57.9975 15.5035 58.2518 15.4564 58.5062 15.4038C60.107 15.0729 65.7855 15.0373 67.3847 15.393C67.759 15.4762 68.1031 15.7053 68.4199 15.9142C68.0854 16.1704 68.0494 16.1622 67.6316 16.1317Z" fill="#D5E4EC" fill-opacity="0.976471"/>
<path d="M148.819 15.991C146.03 15.5324 142.92 15.8101 140.085 15.7925C139.719 15.7902 139.266 15.8276 139 15.5588C139.185 15.3629 139.439 15.3157 139.694 15.2631C141.295 14.9323 146.973 14.8967 148.572 15.2524C148.946 15.3356 149.291 15.5647 149.607 15.7736C149.273 16.0298 149.237 16.0216 148.819 15.991Z" fill="#D5E4EC" fill-opacity="0.976471"/>
<path d="M150.545 59.2553C151.158 57.4197 150.468 55.0919 150.998 53.1808L151.2 53.2039L151.413 53.5412C151.394 55.3259 151.648 59.4265 151.277 60.9159C151.256 60.5514 151.228 60.245 151.089 59.9047L150.901 59.9315L150.512 60.5584C150.49 60.1178 150.512 59.6943 150.545 59.2553Z" fill="#D2EEED" fill-opacity="0.980392"/>
<path d="M24.0558 15.2487C25.7878 15.3414 27.5246 15.1851 29.2546 15.2733C29.7084 15.3047 30.3779 15.2579 30.7313 15.5703L30.7448 15.8064C28.735 15.8257 26.7025 15.9057 24.6945 15.8372C24.307 15.824 23.9298 15.8259 23.6577 15.5363L24.0558 15.2487Z" fill="#D5E4EC" fill-opacity="0.94902"/>
<path d="M69.0717 17.5038C69.3868 18.8601 68.9523 22.8986 68.941 24.5296L68.7561 24.7523C68.9588 25.0031 68.9437 25.1155 68.9792 25.4296L68.891 25.6113L68.7281 25.5401C68.534 25.0364 68.3904 18.7669 68.5942 18.2777C68.6905 18.2787 68.7932 18.2413 68.8867 18.2181L69.0717 17.5038Z" fill="#B4E9EE" fill-opacity="0.0117647"/>
<path d="M21.7822 18.6565C21.8134 17.8316 21.7435 16.596 22.2717 15.9124C22.6859 15.3764 23.4295 15.3203 24.0557 15.2487L23.6576 15.5363C23.9296 15.8258 24.3068 15.824 24.6943 15.8372C26.7023 15.9057 28.7349 15.8257 30.7447 15.8064L31.0051 15.8835C29.4373 16.0303 23.4208 15.4973 22.5613 16.4702C22.4399 17.3419 22.447 18.2207 22.3258 19.0888L22.0077 18.6475L21.7822 18.6565Z" fill="#D2EEED" fill-opacity="0.403922"/>
<path d="M150.545 59.2553C150.452 57.4165 150.248 53.0679 150.807 51.4573L150.982 51.3977C151.474 51.9744 151.423 52.8347 151.414 53.5412L151.2 53.2039L150.998 53.1808C150.468 55.0919 151.159 57.4197 150.545 59.2553Z" fill="#D5E4EC" fill-opacity="0.976471"/>
<path d="M68.2602 60.1227L68.8039 60.1705C69.0706 60.5134 68.97 60.9428 68.9716 61.3716C68.5667 62.115 68.1328 62.3699 67.3617 62.6603L67.0412 62.3313C66.9922 61.947 67.0492 61.9212 67.2498 61.6062C67.4509 61.5461 67.6424 61.4285 67.829 61.3319C68.1532 60.9798 68.1871 60.5751 68.2602 60.1227Z" fill="#D2EEED"/>
<path d="M21.7823 18.6565L22.0078 18.6476L22.3258 19.0888C22.5537 20.2969 22.2229 23.0912 22.0767 24.3794C21.8157 23.27 21.7049 19.8788 21.7823 18.6565Z" fill="#B4E9EE" fill-opacity="0.152941"/>
<path d="M150.512 60.5585L150.902 59.9316L151.089 59.9048C151.228 60.2451 151.256 60.5515 151.277 60.916C150.975 61.6078 150.732 61.9926 150.06 62.3877C149.798 62.305 149.694 62.2937 149.516 62.0742L149.759 61.6244C150.139 61.2976 150.311 61.0035 150.512 60.5585Z" fill="#FCFDFA" fill-opacity="0.988235"/>
<path d="M68.4199 15.9142C68.7323 16.1005 68.8705 16.602 68.956 16.9431C69.0012 17.1286 69.0399 17.3156 69.0716 17.5038L68.8867 18.2181C68.7931 18.2414 68.6904 18.2787 68.5941 18.2777C68.4473 17.3571 68.4215 16.7319 67.6316 16.1317C68.0494 16.1622 68.0854 16.1704 68.4199 15.9142Z" fill="#D2EEED" fill-opacity="0.290196"/>
<path d="M29.2546 15.2734C30.1439 15.1889 30.892 15.2398 31.7488 15.4996L31.8901 15.6711C31.6349 15.8884 31.3238 15.8679 31.0053 15.8835L30.7448 15.8065L30.7313 15.5703C30.3779 15.258 29.7084 15.3048 29.2546 15.2734Z" fill="#D5E4EC" fill-opacity="0.803922"/>
<defs>
<linearGradient id="paint0_linear_60_5" x1="27.3679" y1="60.3507" x2="27.5691" y2="62.6972" gradientUnits="userSpaceOnUse">
<stop stop-color="#DDF0F4" stop-opacity="0.976471"/>
<stop offset="1" stop-color="#BCE8E9"/>
</linearGradient>
</defs>
</svg>
