<svg width="228" height="179" viewBox="0 0 228 179" fill="none" xmlns="http://www.w3.org/2000/svg">
<path d="M74.3628 23.1561C82.6846 24.1496 92.7018 26.2877 101.06 27.7866C100.452 31.209 99.7151 35.4419 99.2888 38.8746C106.754 40.2105 117.325 44.0004 123.755 48.0136C124.14 49.1841 124.422 50.6722 123.13 51.3192C122.288 51.3868 118.47 49.2089 117.401 48.7045C111.299 45.825 105.234 44.2019 98.6437 42.6977C98.0753 46.7886 97.2358 51.5771 96.794 55.5933C100.597 56.6395 117.849 62.4354 119.514 64.5415C119.774 65.6136 118.728 66.9604 117.72 67.3346C116.756 67.3432 114.99 66.329 114.099 65.8713C108.31 62.9001 102.608 60.5319 96.3973 58.5802C95.969 61.9518 95.9729 65.9364 92.9899 68.1146C90.9916 69.5736 88.3834 70.2491 85.9229 69.8586C82.7457 69.3346 79.5879 66.8026 80.47 63.2755C81.5811 58.6604 86.9127 56.9978 91.0711 58.1539C92.5084 58.5537 93.163 59.0019 94.3527 59.8732L94.1355 58.0524C88.451 56.7211 82.9708 55.924 77.1724 55.32C76.1983 55.2185 74.999 55.0904 74.0424 54.9091C73.6779 58.3052 74.1519 59.962 71.1027 62.4511C67.6925 65.2347 61.3023 65.6686 58.3524 61.9865C56.6974 59.9211 57.565 57.5619 58.9103 55.5651C49.2052 57.0798 34.6785 60.2252 25.9123 64.8151L28.4215 59.8794L34.8383 47.2575L37.3974 42.2238C48.9733 38.3071 60.7864 36.35 72.9774 35.8789C73.1353 35.1547 73.2125 34.4245 73.2733 33.6866C73.5635 30.1689 73.9218 26.6578 74.3628 23.1561Z" fill="#FCFCFB"/>
<path d="M97.3472 33.8417L97.4883 33.9487C97.5947 34.5146 97.0932 37.0778 96.9713 37.806C91.5313 36.1477 85.769 35.7978 80.1187 35.5912C79.2804 35.5604 76.2019 35.709 75.6496 35.4011L76.2376 29.9177C82.9468 30.6876 90.4655 32.7726 97.3472 33.8417Z" fill="#040C28"/>
<path d="M9.29605 97.4997C12.291 96.2592 15.4309 94.9081 18.4855 93.8914C23.3685 92.2662 28.4223 91.3679 33.3644 90.3029C52.0496 86.2761 69.5742 87.5475 87.2231 95.0101C95.4936 98.5407 103.735 102.564 110.924 108.021C111.548 108.525 113.677 110.036 113.905 110.688C114.652 112.824 112.377 113.295 110.954 112.074C105.322 107.241 99.1462 103.94 92.5122 100.68C75.753 92.4454 57.4375 89.0038 38.9527 92.4713C36.3147 92.946 33.6234 93.5988 31.0422 94.0903C21.7208 95.8653 15.041 97.8956 6.75371 102.501L9.29605 97.4997Z" fill="#FCFCFB"/>
<path d="M19.0932 78.2273C46.214 67.816 78.7789 67.3851 105.343 79.8013C107.026 80.588 111.393 82.7081 107.878 84.6355C106.857 84.7568 105.814 84.1536 104.924 83.684C78.3893 69.6812 43.9203 71.236 16.8361 82.6671L19.0932 78.2273Z" fill="#FCFCFB"/>
<path d="M138.67 38.1121C142.58 39.7828 144.221 44.1093 143.88 48.1077C143.388 53.8861 138.027 58.8893 133.846 62.427C134.021 66.1051 134.273 72.3064 134.977 75.8254C138.163 76.4888 140.9 77.0954 143.392 79.3662C146.589 82.2795 147.308 86.0064 147.323 90.1534C147.325 90.8144 147.166 91.3624 147.191 91.8949C147.395 91.6915 147.549 91.5196 147.738 91.303C149.066 91.0563 149.491 92.3749 150.238 93.3884C154.696 99.4362 158.114 106.068 161.029 112.972C162.642 116.791 163.517 120.983 165.817 124.41C166.519 125.465 166.204 127.194 165.852 128.383C169.1 138.046 170.573 150.93 170.686 161.081C170.708 163.052 170.731 165.645 170.526 167.585L169.065 168.336C168.937 167.025 168.877 165.605 168.793 164.287C168.253 155.861 167.349 147.524 165.583 139.254C164.959 136.336 164.421 133.485 163.477 130.633C156.386 133.335 151.866 123.767 160.942 121.522C160.103 118.945 159.323 116.824 158.246 114.351C154.582 106.008 151.77 101.412 146.725 93.8817C145.264 99.2135 142.157 101.624 137.801 104.534C137.643 111.755 137.402 118.221 132.671 124.225C127.006 131.415 115.564 127.93 114.947 118.802C114.767 115.175 117.431 112.163 121.088 112.053C122.647 111.968 124.796 113.076 124.649 114.874C124.543 116.995 121.729 117.294 120.768 118.319C118.686 120.54 121.135 123.965 123.939 123.664C131.674 122.835 133.646 112.138 133.252 106.225C131.683 106.423 130.321 106.552 128.762 106.541C114.947 106.452 106.812 92.032 112.844 79.8205C116.501 72.4175 122.571 67.2927 128.476 61.6724C128.581 57.0895 127.817 52.6573 128.542 48.0092C129.374 42.679 132.287 36.9982 138.67 38.1121Z" fill="#FCFCFB"/>
<path d="M129.388 66.214C129.771 66.999 130.08 75.1565 130.171 76.7444C124.408 78.1632 120.048 83.1869 121.488 89.4986C121.83 90.9974 123.175 94.5381 125.196 93.6819C126.146 93.2794 125.663 92.0475 125.412 91.3293C123.402 86.5037 125.695 83.7942 129.912 81.4888C130.334 85.0913 130.73 88.0486 131.343 91.6564C131.985 94.9286 132.649 98.3846 132.777 101.709C121.223 105.337 111.678 93.6844 116.75 82.8759C119.212 77.6278 125.346 70.6375 129.388 66.214Z" fill="#040C28"/>
<path d="M143.357 61.1498C144.487 61.7023 145.083 62.2264 145.94 63.1155C160.031 77.7414 168.422 95.981 173.7 115.389C177.805 129.823 180.804 144.676 181.776 159.672C181.967 162.615 182.432 166.102 182.418 169C182.09 168.967 181.46 168.516 181.132 168.313C180.376 168.046 180.376 167.133 180.267 166.41C177.972 151.183 175.622 136.549 171.739 121.581C166.599 101.76 158.338 81.6199 143.799 66.7873C142.289 65.2458 138.625 61.583 143.357 61.1498Z" fill="#FCFCFB"/>
<path d="M140.497 107.371C141.449 107.912 142.852 110.343 143.495 111.38C147.492 117.826 151.201 124.914 153.39 132.195C155.414 138.929 156.915 145.775 158.042 152.706C158.892 157.932 159.915 163.05 159.651 168.379C159.603 169.347 159.578 171.292 159.135 172.118L158.939 171.953C157.058 152.287 152.479 130.911 141.809 113.975C140.585 112.033 136.835 108.497 140.497 107.371Z" fill="#FCFCFB"/>
<path d="M133.291 127.237C133.454 127.298 133.842 127.467 133.941 127.562C136.391 129.918 142.705 142.868 143.223 145.675L143.005 145.793C139.584 140.22 136.405 134.593 132.597 129.262C132.256 128.785 132.273 128.758 132.279 128.21C132.525 127.691 132.816 127.563 133.291 127.237Z" fill="#FCFCFB"/>
<path d="M96.8674 42.1157C97.2839 42.7424 95.7295 53.274 95.5235 54.893C87.1622 53.012 81.2341 52.3137 72.8123 51.4173C73.2855 47.0365 73.6313 42.8957 73.9216 38.5102C81.6099 38.46 89.6467 41.4294 96.8674 42.1157Z" fill="#040C28"/>
<path d="M38.919 46.5961C46.8907 43.0558 59.9916 40.7005 68.7217 40.9125C68.2452 44.0295 68.271 46.8152 67.9239 49.8577C64.5605 49.4723 61.978 49.8673 58.6653 50.2645C50.3099 51.2664 41.7094 53.1628 33.9252 56.4191L38.919 46.5961Z" fill="#040C28"/>
</svg>
