<svg width="25" height="25" viewBox="0 0 25 25" fill="none" xmlns="http://www.w3.org/2000/svg">
<path fill-rule="evenodd" clip-rule="evenodd" d="M21.9353 0.0358499C22.3122 -0.0270105 22.6983 -0.00702863 23.0668 0.0944061C23.4352 0.195841 23.7771 0.376295 24.0687 0.623224C24.3604 0.870153 24.5947 1.17763 24.7555 1.52429C24.9163 1.87094 24.9996 2.24846 24.9998 2.63059V18.1832C24.9995 19.3418 24.617 20.4679 23.9116 21.3869C23.2061 22.3059 22.2171 22.9664 21.098 23.2661C19.9789 23.5657 18.7921 23.4878 17.7218 23.0443C16.6515 22.6008 15.7575 21.8165 15.1783 20.8131C14.5992 19.8097 14.3672 18.6432 14.5186 17.4946C14.6699 16.346 15.196 15.2794 16.0152 14.4602C16.8345 13.641 17.9012 13.1151 19.0498 12.9639C20.1984 12.8127 21.3649 13.0447 22.3682 13.624V7.89374L9.21032 10.0872V19.499C9.21032 19.578 9.20374 19.6543 9.19059 19.728C9.28505 20.7398 9.0422 21.7544 8.49986 22.6138C7.95752 23.4732 7.14617 24.1291 6.19219 24.4792C5.23822 24.8294 4.19521 24.8542 3.22567 24.5498C2.25613 24.2454 1.41451 23.6288 0.831924 22.7962C0.249343 21.9636 -0.0414773 20.9616 0.00477465 19.9464C0.0510266 18.9313 0.431753 17.9599 1.08764 17.1837C1.74352 16.4075 2.63772 15.87 3.63093 15.655C4.62414 15.44 5.66057 15.5596 6.57874 15.9951V4.82401C6.57867 4.20106 6.79958 3.59829 7.20218 3.12292C7.60479 2.64756 8.16297 2.33043 8.77743 2.22795L21.9353 0.0358499ZM9.21032 7.42006L22.3682 5.22664V2.63059L9.21032 4.82401V7.42006Z" fill="#050D29"/>
</svg>
