<svg width="602" height="394" viewBox="0 0 602 394" fill="none" xmlns="http://www.w3.org/2000/svg">
<path d="M21.9141 235.392C23.0441 233.225 22.2892 205.982 22.288 201.961L22.3339 95.2792C22.2985 76.3898 22.0208 57.391 22.4469 38.5091C22.6445 29.7563 28.7544 22.9833 38.5117 22.8643C51.3557 22.7077 64.2669 22.7616 77.1632 22.7796L142.867 22.7364L360.121 22.7143L497.948 22.7416L540.648 22.5917C551.057 22.5566 580.357 19.688 583.33 33.0914C587.109 50.1183 582.585 230.7 585.225 233.613C587.891 234.54 590.606 235.223 591.896 237.828C593.611 241.284 593.887 310.586 592.027 314.971C591.406 316.436 589.926 317.53 588.399 318.094C587.138 318.561 585.824 318.834 584.49 319.04C584.537 329.965 588.211 358.007 571.168 358.983C547.52 360.335 522.966 358.416 499.267 359.42C396.757 358.328 293.323 360.743 190.712 359.625C162.577 359.316 134.262 360.092 106.118 359.386C91.5844 359.041 44.4295 361.023 34.0228 358.034C18.7816 353.659 22.6008 337.561 22.4189 325.162C22.3922 323.338 22.7247 320.687 21.7512 319.077C21.706 319.001 21.6532 318.931 21.6041 318.858C17.662 317.469 14.3334 316.581 14.3845 312.012C14.6445 288.741 14.0144 265.432 14.4675 242.178C14.5596 237.451 16.8147 235.462 21.9141 235.392Z" fill="#7683EF"/>
<path d="M106.118 359.386C112.437 337.213 123.274 313.59 130.056 291.297C130.846 288.7 133.678 284.281 135.68 282.192C147.791 278.616 208.542 280.628 224.746 280.637L363.67 280.438L423.826 280.455C434.719 280.421 460.488 279.713 469.886 281.892C474.897 285.543 483.932 312.787 486.03 319.702C489.29 330.437 497.757 347.88 499.146 358.355C499.193 358.708 499.232 359.063 499.266 359.42C396.757 358.328 293.322 360.743 190.712 359.625C162.577 359.316 134.262 360.092 106.118 359.386Z" fill="#4462C4"/>
<path d="M205.685 304.783C214.477 304.528 226.612 303.9 234.984 305.399C235.435 310.401 237.687 323.102 232.007 325.24C223.387 326.332 211.244 326.254 202.673 324.69C201.495 320.064 200.588 311.464 202.319 306.756C202.839 305.343 204.15 305.277 205.685 304.783Z" fill="#FEFEFE"/>
<path d="M373.211 304.74C382.296 304.404 395.115 304.083 403.757 305.476C404.375 310.922 406.569 321.701 401.511 325.121C396.001 325.699 374.809 327.339 371.486 323.846C370.34 320.341 370.704 312.904 370.71 308.991C370.715 306.736 371.679 305.946 373.211 304.74Z" fill="#FEFEFE"/>
<path d="M442.011 325.561C448.928 324.632 455.362 329.061 456.449 335.503C457.536 341.946 452.873 348.007 445.986 349.106C441.448 349.831 436.844 348.221 433.935 344.891C431.024 341.561 430.261 337.03 431.934 333.027C433.604 329.024 437.456 326.171 442.011 325.561Z" fill="#FEFEFE"/>
<path d="M159.927 325.673C166.649 324.471 173.191 328.428 174.757 334.647C176.323 340.863 172.357 347.129 165.766 348.848C161.251 350.025 156.408 348.799 153.151 345.652C149.893 342.508 148.745 337.95 150.159 333.779C151.574 329.608 155.324 326.495 159.927 325.673Z" fill="#FEFEFE"/>
<path d="M585.225 233.613C587.891 234.54 590.606 235.223 591.896 237.828C593.611 241.284 593.887 310.586 592.027 314.971C591.406 316.435 589.926 317.53 588.399 318.094C587.138 318.561 585.824 318.834 584.49 319.04C584.062 301.208 584.542 282.634 584.352 264.736C584.289 258.685 584.039 238.22 585.225 233.613Z" fill="#4462C4"/>
<path d="M21.6041 318.858C17.662 317.469 14.3334 316.581 14.3845 312.012C14.6445 288.741 14.0144 265.432 14.4675 242.178C14.5596 237.451 16.8147 235.462 21.9141 235.392C19.278 247.123 18.0392 309.545 21.6041 318.858Z" fill="#4462C4"/>
<path d="M117.576 50.7562C158.472 50.1747 201.24 51.0753 242.243 51.0906L412.174 50.7876L499.436 50.9906C514.483 50.995 529.598 50.7117 544.625 51.2258C551.541 51.4625 558.739 53.5648 560.24 60.7611C562.161 69.9537 561.76 79.7371 561.867 89.1043L562.177 129.882L562.263 265.143L488.311 265.848L203.12 265.753L112.911 265.826C90.4996 265.709 66.055 265.15 43.7995 265.554C43.7932 265.412 43.7878 265.271 43.7833 265.13C43.1467 245.408 44.193 225.08 44.4523 205.308C45.0655 158.558 42.6294 111.753 44.481 65.0491C45.1526 48.1101 67.9913 50.8243 80.4759 50.8866C92.8424 51.0607 105.211 51.0172 117.576 50.7562Z" fill="#4462C4"/>
<path d="M49.6741 118.569C49.5933 107.125 49.5742 95.6812 49.6172 84.2372C49.6024 76.1743 47.9632 63.208 53.8273 56.7897C55.3706 55.1002 63.6094 55.0462 66.2926 54.8462C88.336 54.7203 110.476 54.8416 132.518 54.8839L252.479 54.9362L440.455 54.8696C472.752 54.8514 505.047 54.7925 537.346 54.8358C539.869 54.8392 550.525 55.1931 552.308 56.5468C555.247 58.7768 556.462 66.1879 556.436 69.5726C556.389 75.5458 556.631 81.8065 556.451 87.8143C556.146 97.9695 556.748 108.482 556.29 118.614L556.433 123.515L556.274 127.237L556.365 223.472L556.347 229.179L556.331 233.235C556.368 236.518 556.595 241.843 556.292 244.966L555.482 246.25L556.224 247.568C556.394 251.474 556.313 256.098 556.344 260.057L246.691 259.858C181.102 259.94 115.116 259.395 49.5748 260.106C49.47 256.085 49.5727 252.075 49.6456 248.055L49.6378 244.949C49.4353 241.513 49.5643 236.9 49.5479 233.373L49.5357 229.004L49.5268 223.732L49.5656 127.622L49.6146 123.259L49.6741 118.569Z" fill="#EE88AE"/>
<path d="M49.6741 118.569C49.5933 107.125 49.5742 95.6812 49.6172 84.2372C49.6024 76.1743 47.9632 63.208 53.8273 56.7897C55.3706 55.1002 63.6094 55.0462 66.2926 54.8462C88.336 54.7203 110.476 54.8416 132.518 54.8839L252.479 54.9362L440.455 54.8696C472.752 54.8514 505.047 54.7925 537.346 54.8358C539.869 54.8392 550.525 55.1931 552.308 56.5468C555.247 58.7768 556.462 66.1879 556.436 69.5726C556.389 75.5458 556.631 81.8065 556.451 87.8143C556.146 97.9695 556.748 108.482 556.29 118.614C529.432 117.838 499.751 118.406 472.666 118.393L319.865 118.367H137.767C108.742 118.394 78.6115 118.032 49.6741 118.569Z" fill="#FEFEFE"/>
<path d="M78.6833 68.3488C85.9216 67.867 106.119 67.372 111.918 69.6232C116.119 73.3234 115.48 104.122 112.453 108.422C110.468 109.795 107.658 109.641 105.106 109.778C99.2855 109.889 76.497 111.06 72.7154 108.545C68.3182 103.269 69.7744 92.7082 69.5792 86.1629C69.4667 82.3956 69.3994 72.4901 71.5945 69.6944C73.6022 68.3804 76.1796 68.4971 78.6833 68.3488Z" fill="#676D70"/>
<path d="M78.6701 70.7746C83.2149 70.1125 106.465 69.8827 110.445 71.4925C112.216 75.1871 111.873 101.953 110.896 105.971C109.211 107.42 109.118 107.071 106.634 107.48C100.441 107.536 77.3439 108.48 73.5724 106.245C71.3526 101.141 71.5274 77.4456 72.616 72.0188C73.9282 70.7721 76.6723 70.904 78.6701 70.7746Z" fill="#FEFEFE"/>
<path d="M470.949 72.1881C471.155 69.9576 470.746 70.0116 472.059 68.6959C473.524 70.293 473.902 105.37 472.447 108.342L471.564 108.34C470.837 107.048 470.897 106.773 470.967 105.344C470.326 102.105 470.423 94.3372 470.381 90.7173C401.94 91.7962 331.54 90.9899 262.902 90.989L174.121 90.8987C163.21 90.8246 152.306 90.6475 141.395 90.8124C138.557 90.8552 135.638 90.7341 133.658 88.6675L134.454 87.9977C138.664 87.2297 149.639 87.1275 154.238 87.0327C169.417 86.8194 184.598 86.7381 199.778 86.7885L337.524 86.7917L428.567 86.8308C436.377 86.8376 464.499 86.4704 470.615 87.5108C470.514 82.9368 470.227 76.5579 470.949 72.1881Z" fill="#7683EF"/>
<path d="M470.949 72.1881C471.155 69.9576 470.746 70.0116 472.059 68.6959C473.524 70.293 473.902 105.37 472.448 108.342L471.564 108.34C470.837 107.048 470.897 106.773 470.967 105.344C471.564 98.3512 471.199 79.2952 470.949 72.1881Z" fill="#676D70"/>
<path d="M506.587 77.483C510.968 77.3115 518.142 76.2606 520.78 79.875C520.769 81.8309 520.488 82.1432 519.239 83.7617C515.015 84.0998 508.13 85.5834 505.573 82.167C505.576 79.5238 505.104 79.3387 506.587 77.483Z" fill="#FEFEFE"/>
<path d="M505.568 91.1755C509.657 91.0201 516.889 89.9572 519.823 92.7695C520.772 94.5359 520.545 95.1337 520.185 97.1278C515.653 97.6721 510.202 99.0462 506.621 96.6747C505.187 95.0445 505.505 93.288 505.568 91.1755Z" fill="#FEFEFE"/>
<path d="M49.548 233.373L403.46 233.473L508.304 233.492L540.301 233.489C543.997 233.477 552.972 233.613 556.331 233.235C556.368 236.518 556.595 241.843 556.292 244.966L555.482 246.25L556.225 247.568C556.394 251.474 556.313 256.098 556.344 260.057L246.691 259.858C181.102 259.94 115.116 259.395 49.5748 260.106C49.4701 256.085 49.5728 252.075 49.6457 248.055L49.6379 244.949C49.4354 241.513 49.5644 236.9 49.548 233.373Z" fill="#FEFEFE"/>
<path d="M49.6379 244.949L170.713 244.929C180.933 244.922 244.196 243.954 250.242 246.029L250.139 246.685C243.138 248.835 201.59 247.828 191.105 247.986C144.509 248.687 96.1001 246.875 49.6458 248.055L49.6379 244.949Z" fill="#7683EF"/>
<path d="M556.292 244.966L555.482 246.25L556.225 247.568C534.443 248.546 506.498 247.979 484.42 247.989L359.947 248.052C358.182 248.052 356.316 248.064 355.05 246.863L355.172 245.647C357.231 244.453 537.542 245.01 556.292 244.966Z" fill="#7683EF"/>
<path d="M49.5269 223.732L397.093 223.706L502.039 223.762C515.685 223.785 543.859 224.565 556.365 223.472L556.347 229.179L556.331 233.235C552.972 233.613 543.997 233.477 540.302 233.489L508.304 233.492L403.46 233.473L49.548 233.373L49.5357 229.004L49.5269 223.732Z" fill="#FBDAEF"/>
<path d="M49.5356 229.004C79.0852 227.681 116.469 228.598 146.677 228.61L327.478 228.657L475.325 228.637L523.258 228.621C533.674 228.623 546.05 228.43 556.347 229.179L556.331 233.235C552.972 233.613 543.997 233.477 540.301 233.489L508.304 233.492L403.46 233.473L49.5479 233.373L49.5356 229.004Z" fill="#EE88AE"/>
<path d="M49.6741 118.569C78.6115 118.032 108.742 118.394 137.767 118.367H319.865L472.666 118.393C499.751 118.406 529.432 117.838 556.29 118.614L556.433 123.515L556.274 127.237C542.699 128.25 523.578 127.773 509.633 127.765L431.201 127.748L169.313 127.797L88.9477 127.716C77.2449 127.691 60.8267 127.151 49.5657 127.622L49.6147 123.259L49.6741 118.569Z" fill="#EE88AE"/>
<path d="M49.6147 123.259C77.7958 124.377 110.319 123.853 138.772 123.811L281.194 123.643L455.198 123.774C488.308 123.808 523.487 124.358 556.433 123.515L556.274 127.237C542.699 128.25 523.578 127.773 509.633 127.765L431.201 127.748L169.313 127.797L88.9477 127.716C77.2449 127.691 60.8267 127.151 49.5657 127.622L49.6147 123.259Z" fill="#FBDAEF"/>
<path d="M134.231 136.243C137.81 136.762 157.224 136.569 161.907 136.584L228.674 136.432L397.018 136.526C421.58 136.625 447.56 135.982 471.887 136.708C471.59 156.448 471.843 176.199 471.7 195.941C471.655 202.103 471.663 208.264 472.038 214.418L471.793 214.67C468.158 216.105 338.853 214.855 327.334 214.835C262.946 215.235 198.557 215.307 134.169 215.052L134.231 136.243Z" fill="#4462C4"/>
<path d="M234.199 154.897C233.464 152.143 231.609 147.245 233.347 144.909C238.552 144.017 253.097 144.268 259.002 144.254C274.178 144.172 289.356 144.18 304.534 144.279C310.251 169.718 310.551 181.087 304.583 207.133C297.844 207.865 239.75 208.436 233.831 207.051C231.889 204.098 233.514 199.916 234.366 196.422C232.736 194.509 232.774 193.204 232.762 190.838C232.702 179.274 232.148 167.574 232.998 156.039C232.998 156.039 234.111 154.981 234.199 154.897Z" fill="#1D4A60"/>
<path d="M234.366 196.422C232.736 194.509 232.774 193.203 232.762 190.838C232.702 179.274 232.148 167.574 232.998 156.039C232.998 156.039 234.111 154.981 234.199 154.897C238.59 167.067 239.701 184.394 234.366 196.422Z" fill="#7683EF"/>
<path d="M254.882 162.179C257.119 162.266 258.136 161.954 259.797 163.018C260.506 168.397 260.034 183.696 259.973 189.877C258.231 189.824 257.367 189.903 255.831 189.157C254.018 186.019 254.825 166.853 254.882 162.179Z" fill="#7683EF"/>
<path d="M270.48 162.106C272.638 162.289 273.167 161.996 274.674 163.14C275.515 167.73 275.028 184.285 274.981 189.925C273.225 189.893 272.302 190.025 270.926 189.049C269.448 185.505 270.358 166.902 270.48 162.106Z" fill="#7683EF"/>
<path d="M240.084 161.941L243.304 162.488C245.762 165.54 244.434 184.925 244.26 190.047C242.534 190.056 242.001 190.147 240.633 189.206C239.755 185.043 240.01 167.084 240.084 161.941Z" fill="#B4CACA"/>
<path d="M301.214 161.89L303.856 162.518C306.788 165.869 305.071 185.022 304.797 190.258C303.447 190.245 303.181 190.008 302.1 189.337C300.025 185.556 301.065 167.38 301.214 161.89Z" fill="#B4CACA"/>
<path d="M286.602 161.727C287.305 161.883 288.069 162.281 288.733 162.589C290.336 166.536 289.612 185.595 288.997 190.352L287.034 189.428C285.437 185.402 286.26 166.725 286.602 161.727Z" fill="#FEFEFE"/>
<path d="M368.106 144.753C370.631 143.982 369.813 143.895 372.101 144.463C374.473 146.765 374.102 151.073 373.057 153.891C374.454 155.749 374.53 195.602 373.008 197.711C374.34 199.584 374.405 205.426 373.6 207.495C371.218 208.113 369.698 206.852 367.679 206.714C363.577 208.382 310.218 207.82 304.583 207.133C310.551 181.087 310.251 169.718 304.534 144.279C311.437 144.082 365.719 143.576 368.106 144.753Z" fill="#7683EF"/>
<path d="M368.106 144.753C370.631 143.982 369.813 143.895 372.101 144.463C374.473 146.764 374.103 151.073 373.058 153.891C374.454 155.749 374.53 195.602 373.008 197.711C374.34 199.584 374.405 205.426 373.6 207.495C371.218 208.113 369.698 206.852 367.679 206.714C364.916 201.439 363.009 196.517 361.091 190.948L364.304 189.852C366.152 186.424 366.569 165.335 364.236 162.297C362.774 161.705 362.451 161.585 361.205 160.647C362.594 155.402 365.539 149.578 368.106 144.753Z" fill="#1D4A60"/>
<path d="M373.057 153.891C374.454 155.749 374.53 195.602 373.008 197.711C365.51 184.941 367.024 166.871 373.057 153.891Z" fill="#7683EF"/>
<path d="M364.236 162.297C366.569 165.335 366.152 186.424 364.304 189.852L362.735 189.28C361.283 186.727 361.349 165.486 362.709 162.804L364.236 162.297Z" fill="#D5DDE5"/>
<path d="M361.205 160.647C362.451 161.585 362.774 161.705 364.236 162.297L362.709 162.804C361.349 165.486 361.283 186.727 362.735 189.28L364.304 189.852L361.091 190.948C358.542 182.326 358.894 169.278 361.205 160.647Z" fill="#3C4753"/>
<path d="M346.116 162.249C346.517 162.257 346.916 162.27 347.315 162.288C347.925 162.317 350.288 162.597 350.403 162.909C352.097 167.448 351.135 185.792 350.64 189.94C348.954 189.915 348.621 189.847 346.994 189.417C345.235 185.98 345.887 166.855 346.116 162.249Z" fill="#D5DDE5"/>
<path d="M316.253 161.924C317.705 162.115 318.007 162.114 319.242 162.901C321.202 167.738 319.959 184.247 319.623 190.167C318.27 190.033 317.887 190.055 316.746 189.27C314.924 185.338 315.74 166.834 316.253 161.924Z" fill="#D5DDE5"/>
<path d="M331.426 161.932L333.951 162.391C337.042 165.666 334.999 185.202 334.696 190.423C334.073 190.424 333.224 190.163 332.593 190.001C330.365 186.62 331.11 166.726 331.426 161.932Z" fill="#D5DDE5"/>
<path d="M415.072 143.426C434.467 138.755 454.223 149.739 459.058 167.88C463.889 186.022 451.948 204.361 432.465 208.712C413.227 213.008 393.872 202.03 389.1 184.114C384.326 166.198 395.918 148.04 415.072 143.426Z" fill="#1D4A60"/>
<path d="M422.023 148.152C438.272 147.065 452.441 158.369 453.819 173.52C455.195 188.67 443.267 202.039 427.052 203.52C416.373 204.495 405.959 200.034 399.79 191.841C393.622 183.648 392.655 172.992 397.257 163.948C401.86 154.903 411.32 148.869 422.023 148.152Z" fill="#C2E0F5"/>
<path d="M427.014 154.407C431.358 156.133 440.578 159.554 441.798 164.249C443.064 165.892 443.664 166.676 444.633 168.487C448.123 171.294 446.788 181.165 444.735 184.287C444.245 185.711 443.909 186.531 443.247 187.893C440.317 191.696 432.262 195.141 427.636 196.929L426.177 195.145L421.689 195.252C421.064 196.665 421.481 196.189 420.107 197.046C413.66 194.966 410.027 193.117 405.425 188.483C407.624 187.53 409.574 186.316 411.62 185.11C412.367 183.403 412.425 183.969 411.974 182.389C409.41 181.303 406.501 183.782 402.884 182.943C400.369 180.382 401.445 170.715 403.635 168.135C407.301 167.95 406.446 170.239 409.814 170.293C411.885 169.268 411.455 169.791 412.545 168.112C411.372 164.838 406.853 166.941 406.759 162.11C408.886 159.079 418.015 154.53 421.668 156.003C421.718 156.512 421.778 157.02 421.848 157.527C422.096 159.276 422.573 162.031 424.1 163.115L425.419 162.707C427.269 160.039 426.787 157.928 427.014 154.407Z" fill="#FEFEFE"/>
<path d="M443.247 187.893C440.018 187.013 436.659 186.413 436.286 182.754L437.495 181.972C439.981 181.59 442.402 183.154 444.735 184.287C444.245 185.711 443.909 186.532 443.247 187.893Z" fill="#D5DDE5"/>
<path d="M441.798 164.249C443.064 165.892 443.664 166.676 444.633 168.487C441.462 169.295 439.106 170.353 436.234 168.418L436.213 167.215C437.456 165.376 439.58 164.967 441.798 164.249Z" fill="#D5DDE5"/>
<path d="M421.689 195.252C421.496 192.237 421.092 193.053 422.599 190.81L423.886 190.253C426.763 191.394 426.349 192.252 426.177 195.145L421.689 195.252Z" fill="#D5DDE5"/>
<path d="M174.358 142.958C187.023 140.406 200.181 144.397 208.817 153.411C217.453 162.426 220.237 175.074 216.108 186.535C211.978 197.996 201.572 206.505 188.854 208.818C169.465 212.345 150.65 200.642 146.675 182.584C142.701 164.526 155.05 146.85 174.358 142.958Z" fill="#1D4A60"/>
<path d="M176.233 148.62C186.751 146.654 197.591 150.114 204.616 157.681C211.641 165.247 213.767 175.753 210.183 185.189C206.599 194.626 197.859 201.538 187.296 203.287C171.213 205.95 155.829 196.038 152.798 181.059C149.766 166.08 160.216 151.615 176.233 148.62Z" fill="#C2E0F5"/>
<path d="M203.109 183.882C200.97 183.166 197.066 181.252 195.085 181.534C194.433 184.522 198.689 187.497 197.379 191.226C194.447 193.345 191.073 196.123 187.262 196.096C184.649 194.817 184.406 193.274 183.202 190.582L181.811 190.291C177.313 191.686 180.679 192.669 178.599 196.019C176.922 196.332 175.012 195.645 173.519 194.924C155.873 186.397 168.216 187.585 170.195 183.92C168.788 180.699 165.887 184.507 161.21 182.393C157.729 179.322 159.814 171.767 161.909 168.531C164.561 168.163 164.657 170.06 168.322 170.477C169.937 169.42 169.452 169.929 170.13 168.084C168.407 164.687 166.724 165.979 165.137 163.031C165.798 159.143 174.794 156.06 178.365 154.711C178.794 158.055 178.337 160.716 181.764 162.356L183.207 161.709C184.783 160.067 184.684 157.417 184.89 155.133C189.396 156.141 199.239 159.399 199.427 164.786C199.969 165.653 200.88 167.006 201.33 167.856C207.008 170.98 204.132 178.689 203.109 183.882Z" fill="#FEFEFE"/>
<path d="M201.33 167.856C199.86 168.627 198.87 169.047 197.313 169.66C195.144 169.365 195.77 169.713 194.292 168.453L194.429 166.971C196.373 165.139 196.559 165.512 199.427 164.786C199.969 165.653 200.88 167.006 201.33 167.856Z" fill="#D5DDE5"/>
<path d="M103.939 166.808C109.522 165.735 114.993 169.043 116.227 174.236C117.46 179.43 113.999 184.585 108.453 185.815C104.791 186.627 100.944 185.534 98.3867 182.956C95.8296 180.377 94.9594 176.713 96.1098 173.368C97.2598 170.023 100.252 167.516 103.939 166.808Z" fill="#EE88AE"/>
<path d="M71.9487 165.812C80.8922 166.593 79.4515 174.157 73.7503 178.844C65.3634 176.808 64.4667 170.217 71.9487 165.812Z" fill="#EE88AE"/>
<path d="M261.44 255.24C260.56 255.24 259.728 255.16 258.944 255C258.16 254.824 257.48 254.616 256.904 254.376C256.328 254.136 255.904 253.912 255.632 253.704V249.408C256.4 249.84 257.368 250.248 258.536 250.632C259.704 251 261 251.184 262.424 251.184C263 251.184 263.424 251.112 263.696 250.968C263.984 250.808 264.128 250.536 264.128 250.152C264.128 249.736 263.808 249.392 263.168 249.12C262.544 248.832 261.552 248.48 260.192 248.064C259.136 247.728 258.232 247.36 257.48 246.96C256.744 246.544 256.176 246.032 255.776 245.424C255.392 244.8 255.2 244.008 255.2 243.048C255.2 242.056 255.456 241.16 255.968 240.36C256.48 239.56 257.28 238.928 258.368 238.464C259.456 238 260.848 237.768 262.544 237.768C263.056 237.768 263.6 237.792 264.176 237.84C264.768 237.872 265.24 237.92 265.592 237.984L268.304 239.976L267.368 242.904L261.68 241.344C261.024 241.344 260.536 241.48 260.216 241.752C259.912 242.024 259.76 242.352 259.76 242.736C259.76 243.2 260.024 243.568 260.552 243.84C261.08 244.112 261.84 244.384 262.832 244.656C264.4 245.088 265.616 245.568 266.48 246.096C267.344 246.624 267.952 247.224 268.304 247.896C268.656 248.552 268.832 249.296 268.832 250.128C268.832 251.664 268.216 252.904 266.984 253.848C265.752 254.776 263.904 255.24 261.44 255.24ZM275.077 255V241.848L270.277 242.088V238.008H284.317V242.088L279.397 241.848V251.16L279.661 253.56L279.397 255H275.077ZM286.717 255L286.237 253.56L286.717 251.16V238.008H298.597L299.797 238.728L298.213 242.088L296.053 241.848H291.037V244.488H297.493V248.208H294.661L291.037 247.968V251.16H298.213L301.069 253.464L299.653 255H286.717ZM303.24 255V241.872L302.76 239.448L303.24 238.008H310.92C312.088 238.008 313.136 238.192 314.064 238.56C315.008 238.912 315.752 239.52 316.296 240.384C316.856 241.232 317.136 242.408 317.136 243.912C317.136 245.272 316.888 246.376 316.392 247.224C315.896 248.056 315.208 248.68 314.328 249.096L314.568 249.36L316.944 252.336L318.312 253.56V255H312.912L309.552 249.888H307.56V251.136L307.8 253.536L307.56 255H303.24ZM307.56 246.12H309.912C310.744 246.12 311.408 245.968 311.904 245.664C312.4 245.344 312.648 244.76 312.648 243.912C312.648 243.32 312.528 242.88 312.288 242.592C312.048 242.288 311.712 242.088 311.28 241.992C310.864 241.896 310.376 241.848 309.816 241.848H307.32L307.56 246.12ZM320.467 255L319.987 253.56L320.467 251.16V238.008H332.347L333.547 238.728L331.963 242.088L329.803 241.848H324.787V244.488H331.243V248.208H328.411L324.787 247.968V251.16H331.963L334.819 253.464L333.403 255H320.467ZM343.205 255.24C342.181 255.24 341.181 255.12 340.205 254.88C339.245 254.624 338.373 254.176 337.589 253.536C336.821 252.896 336.205 252.008 335.741 250.872C335.293 249.736 335.069 248.28 335.069 246.504C335.069 244.728 335.293 243.272 335.741 242.136C336.205 241 336.821 240.112 337.589 239.472C338.373 238.832 339.245 238.392 340.205 238.152C341.181 237.896 342.181 237.768 343.205 237.768C344.229 237.768 345.221 237.896 346.181 238.152C347.157 238.408 348.029 238.856 348.797 239.496C349.581 240.136 350.197 241.024 350.645 242.16C351.109 243.296 351.341 244.744 351.341 246.504C351.341 248.264 351.109 249.712 350.645 250.848C350.197 251.984 349.581 252.872 348.797 253.512C348.029 254.152 347.157 254.6 346.181 254.856C345.221 255.112 344.229 255.24 343.205 255.24ZM343.205 251.16C344.389 251.16 345.285 250.808 345.893 250.104C346.501 249.4 346.805 248.2 346.805 246.504C346.805 244.808 346.501 243.608 345.893 242.904C345.285 242.2 344.389 241.848 343.205 241.848C342.037 241.848 341.149 242.208 340.541 242.928C339.933 243.648 339.629 244.84 339.629 246.504C339.629 248.168 339.933 249.36 340.541 250.08C341.149 250.8 342.037 251.16 343.205 251.16Z" fill="#1D4A60"/>
<mask id="path-54-outside-1_66_170" maskUnits="userSpaceOnUse" x="58" y="152" width="66" height="42" fill="black">
<rect fill="white" x="58" y="152" width="66" height="42"/>
<path d="M64.3594 188.695C64.3594 188.273 64.4297 187.914 64.5703 187.617C64.7266 187.305 64.9219 187.055 65.1562 186.867C65.4062 186.664 65.6797 186.523 65.9766 186.445C66.2734 186.352 66.5781 186.305 66.8906 186.305C67.5625 186.305 68.0938 186.398 68.4844 186.586C68.8906 186.758 69.2578 186.945 69.5859 187.148C69.7891 187.273 69.9766 187.375 70.1484 187.453C70.3203 187.531 70.5312 187.594 70.7812 187.641C71.0469 187.688 71.3828 187.727 71.7891 187.758C72.2109 187.773 72.7656 187.781 73.4531 187.781C74.7812 187.781 76 187.5 77.1094 186.938C78.2344 186.359 79.2188 185.57 80.0625 184.57C80.9219 183.57 81.625 182.391 82.1719 181.031C82.7344 179.656 83.125 178.18 83.3438 176.602C82.6719 177.352 81.9141 177.977 81.0703 178.477C80.2266 178.977 79.3594 179.375 78.4688 179.672C77.5938 179.953 76.7266 180.156 75.8672 180.281C75.0234 180.391 74.2578 180.445 73.5703 180.445C71.7109 180.445 69.9531 180.164 68.2969 179.602C66.6406 179.023 65.1875 178.164 63.9375 177.023C62.7031 175.883 61.7266 174.477 61.0078 172.805C60.2891 171.117 59.9297 169.156 59.9297 166.922C59.9297 165.266 60.2109 163.648 60.7734 162.07C61.3516 160.492 62.2188 159.086 63.375 157.852C64.5312 156.617 65.9922 155.625 67.7578 154.875C69.5234 154.109 71.5938 153.727 73.9688 153.727C75.7969 153.727 77.4375 153.938 78.8906 154.359C80.3438 154.766 81.625 155.344 82.7344 156.094C83.8438 156.844 84.7969 157.734 85.5938 158.766C86.3906 159.797 87.0391 160.93 87.5391 162.164C88.0391 163.398 88.4062 164.711 88.6406 166.102C88.875 167.477 88.9922 168.883 88.9922 170.32C88.9922 172.086 88.8672 173.867 88.6172 175.664C88.3828 177.445 88 179.172 87.4688 180.844C86.9375 182.5 86.2578 184.047 85.4297 185.484C84.6016 186.922 83.6016 188.18 82.4297 189.258C81.2734 190.32 79.9375 191.164 78.4219 191.789C76.9062 192.398 75.1953 192.703 73.2891 192.703C72.8359 192.703 72.2969 192.68 71.6719 192.633C71.0625 192.586 70.4297 192.508 69.7734 192.398C69.1172 192.289 68.4609 192.141 67.8047 191.953C67.1641 191.75 66.5859 191.5 66.0703 191.203C65.5547 190.906 65.1406 190.555 64.8281 190.148C64.5156 189.727 64.3594 189.242 64.3594 188.695ZM73.5703 175.664C74.4453 175.664 75.375 175.531 76.3594 175.266C77.3594 174.984 78.3125 174.578 79.2188 174.047C80.1406 173.516 80.9766 172.859 81.7266 172.078C82.4766 171.281 83.0547 170.367 83.4609 169.336V167.648C83.4609 166.414 83.25 165.234 82.8281 164.109C82.4062 162.984 81.7891 162 80.9766 161.156C80.1797 160.297 79.1953 159.617 78.0234 159.117C76.8672 158.602 75.5469 158.344 74.0625 158.344C73 158.344 71.9297 158.5 70.8516 158.812C69.7891 159.125 68.8281 159.609 67.9688 160.266C67.125 160.922 66.4375 161.758 65.9062 162.773C65.375 163.789 65.1094 165 65.1094 166.406C65.1094 167.656 65.2266 168.758 65.4609 169.711C65.6953 170.648 66.0156 171.461 66.4219 172.148C66.8281 172.836 67.3047 173.406 67.8516 173.859C68.3984 174.312 68.9844 174.672 69.6094 174.938C70.2344 175.203 70.8828 175.391 71.5547 175.5C72.2266 175.609 72.8984 175.664 73.5703 175.664ZM109.148 192.703C106.867 192.703 104.859 192.188 103.125 191.156C101.391 190.109 99.9375 188.695 98.7656 186.914C97.6094 185.133 96.7344 183.055 96.1406 180.68C95.5469 178.305 95.25 175.773 95.25 173.086C95.25 170.242 95.5703 167.633 96.2109 165.258C96.8672 162.883 97.7969 160.844 99 159.141C100.219 157.422 101.68 156.094 103.383 155.156C105.102 154.203 107.023 153.727 109.148 153.727C111.352 153.727 113.305 154.203 115.008 155.156C116.711 156.094 118.141 157.422 119.297 159.141C120.469 160.844 121.352 162.883 121.945 165.258C122.555 167.633 122.859 170.242 122.859 173.086C122.859 175.773 122.562 178.305 121.969 180.68C121.391 183.055 120.523 185.133 119.367 186.914C118.227 188.695 116.797 190.109 115.078 191.156C113.375 192.188 111.398 192.703 109.148 192.703ZM109.266 187.875C110.266 187.875 111.164 187.68 111.961 187.289C112.758 186.898 113.461 186.359 114.07 185.672C114.695 184.969 115.227 184.148 115.664 183.211C116.102 182.258 116.461 181.234 116.742 180.141C117.023 179.047 117.227 177.906 117.352 176.719C117.492 175.516 117.562 174.305 117.562 173.086C117.562 171.148 117.398 169.305 117.07 167.555C116.742 165.789 116.234 164.242 115.547 162.914C114.875 161.57 114.016 160.508 112.969 159.727C111.922 158.93 110.688 158.531 109.266 158.531C107.828 158.531 106.57 158.883 105.492 159.586C104.414 160.289 103.508 161.281 102.773 162.562C102.039 163.844 101.484 165.383 101.109 167.18C100.75 168.961 100.57 170.93 100.57 173.086C100.57 174.289 100.641 175.492 100.781 176.695C100.938 177.898 101.164 179.047 101.461 180.141C101.773 181.234 102.164 182.258 102.633 183.211C103.102 184.148 103.656 184.969 104.297 185.672C104.938 186.359 105.672 186.898 106.5 187.289C107.328 187.68 108.25 187.875 109.266 187.875Z"/>
</mask>
<path d="M64.3594 188.695C64.3594 188.273 64.4297 187.914 64.5703 187.617C64.7266 187.305 64.9219 187.055 65.1562 186.867C65.4062 186.664 65.6797 186.523 65.9766 186.445C66.2734 186.352 66.5781 186.305 66.8906 186.305C67.5625 186.305 68.0938 186.398 68.4844 186.586C68.8906 186.758 69.2578 186.945 69.5859 187.148C69.7891 187.273 69.9766 187.375 70.1484 187.453C70.3203 187.531 70.5312 187.594 70.7812 187.641C71.0469 187.688 71.3828 187.727 71.7891 187.758C72.2109 187.773 72.7656 187.781 73.4531 187.781C74.7812 187.781 76 187.5 77.1094 186.938C78.2344 186.359 79.2188 185.57 80.0625 184.57C80.9219 183.57 81.625 182.391 82.1719 181.031C82.7344 179.656 83.125 178.18 83.3438 176.602C82.6719 177.352 81.9141 177.977 81.0703 178.477C80.2266 178.977 79.3594 179.375 78.4688 179.672C77.5938 179.953 76.7266 180.156 75.8672 180.281C75.0234 180.391 74.2578 180.445 73.5703 180.445C71.7109 180.445 69.9531 180.164 68.2969 179.602C66.6406 179.023 65.1875 178.164 63.9375 177.023C62.7031 175.883 61.7266 174.477 61.0078 172.805C60.2891 171.117 59.9297 169.156 59.9297 166.922C59.9297 165.266 60.2109 163.648 60.7734 162.07C61.3516 160.492 62.2188 159.086 63.375 157.852C64.5312 156.617 65.9922 155.625 67.7578 154.875C69.5234 154.109 71.5938 153.727 73.9688 153.727C75.7969 153.727 77.4375 153.938 78.8906 154.359C80.3438 154.766 81.625 155.344 82.7344 156.094C83.8438 156.844 84.7969 157.734 85.5938 158.766C86.3906 159.797 87.0391 160.93 87.5391 162.164C88.0391 163.398 88.4062 164.711 88.6406 166.102C88.875 167.477 88.9922 168.883 88.9922 170.32C88.9922 172.086 88.8672 173.867 88.6172 175.664C88.3828 177.445 88 179.172 87.4688 180.844C86.9375 182.5 86.2578 184.047 85.4297 185.484C84.6016 186.922 83.6016 188.18 82.4297 189.258C81.2734 190.32 79.9375 191.164 78.4219 191.789C76.9062 192.398 75.1953 192.703 73.2891 192.703C72.8359 192.703 72.2969 192.68 71.6719 192.633C71.0625 192.586 70.4297 192.508 69.7734 192.398C69.1172 192.289 68.4609 192.141 67.8047 191.953C67.1641 191.75 66.5859 191.5 66.0703 191.203C65.5547 190.906 65.1406 190.555 64.8281 190.148C64.5156 189.727 64.3594 189.242 64.3594 188.695ZM73.5703 175.664C74.4453 175.664 75.375 175.531 76.3594 175.266C77.3594 174.984 78.3125 174.578 79.2188 174.047C80.1406 173.516 80.9766 172.859 81.7266 172.078C82.4766 171.281 83.0547 170.367 83.4609 169.336V167.648C83.4609 166.414 83.25 165.234 82.8281 164.109C82.4062 162.984 81.7891 162 80.9766 161.156C80.1797 160.297 79.1953 159.617 78.0234 159.117C76.8672 158.602 75.5469 158.344 74.0625 158.344C73 158.344 71.9297 158.5 70.8516 158.812C69.7891 159.125 68.8281 159.609 67.9688 160.266C67.125 160.922 66.4375 161.758 65.9062 162.773C65.375 163.789 65.1094 165 65.1094 166.406C65.1094 167.656 65.2266 168.758 65.4609 169.711C65.6953 170.648 66.0156 171.461 66.4219 172.148C66.8281 172.836 67.3047 173.406 67.8516 173.859C68.3984 174.312 68.9844 174.672 69.6094 174.938C70.2344 175.203 70.8828 175.391 71.5547 175.5C72.2266 175.609 72.8984 175.664 73.5703 175.664ZM109.148 192.703C106.867 192.703 104.859 192.188 103.125 191.156C101.391 190.109 99.9375 188.695 98.7656 186.914C97.6094 185.133 96.7344 183.055 96.1406 180.68C95.5469 178.305 95.25 175.773 95.25 173.086C95.25 170.242 95.5703 167.633 96.2109 165.258C96.8672 162.883 97.7969 160.844 99 159.141C100.219 157.422 101.68 156.094 103.383 155.156C105.102 154.203 107.023 153.727 109.148 153.727C111.352 153.727 113.305 154.203 115.008 155.156C116.711 156.094 118.141 157.422 119.297 159.141C120.469 160.844 121.352 162.883 121.945 165.258C122.555 167.633 122.859 170.242 122.859 173.086C122.859 175.773 122.562 178.305 121.969 180.68C121.391 183.055 120.523 185.133 119.367 186.914C118.227 188.695 116.797 190.109 115.078 191.156C113.375 192.188 111.398 192.703 109.148 192.703ZM109.266 187.875C110.266 187.875 111.164 187.68 111.961 187.289C112.758 186.898 113.461 186.359 114.07 185.672C114.695 184.969 115.227 184.148 115.664 183.211C116.102 182.258 116.461 181.234 116.742 180.141C117.023 179.047 117.227 177.906 117.352 176.719C117.492 175.516 117.562 174.305 117.562 173.086C117.562 171.148 117.398 169.305 117.07 167.555C116.742 165.789 116.234 164.242 115.547 162.914C114.875 161.57 114.016 160.508 112.969 159.727C111.922 158.93 110.688 158.531 109.266 158.531C107.828 158.531 106.57 158.883 105.492 159.586C104.414 160.289 103.508 161.281 102.773 162.562C102.039 163.844 101.484 165.383 101.109 167.18C100.75 168.961 100.57 170.93 100.57 173.086C100.57 174.289 100.641 175.492 100.781 176.695C100.938 177.898 101.164 179.047 101.461 180.141C101.773 181.234 102.164 182.258 102.633 183.211C103.102 184.148 103.656 184.969 104.297 185.672C104.938 186.359 105.672 186.898 106.5 187.289C107.328 187.68 108.25 187.875 109.266 187.875Z" fill="#F5F5F4"/>
<path d="M64.5703 187.617L63.6759 187.17L63.6711 187.179L63.6666 187.189L64.5703 187.617ZM65.1562 186.867L65.781 187.648L65.7868 187.643L65.1562 186.867ZM65.9766 186.445L66.2311 187.412L66.2545 187.406L66.2777 187.399L65.9766 186.445ZM68.4844 186.586L68.0516 187.487L68.073 187.498L68.0947 187.507L68.4844 186.586ZM69.5859 187.148L69.0596 187.999L69.0618 188L69.5859 187.148ZM70.7812 187.641L70.597 188.624L70.6075 188.625L70.7812 187.641ZM71.7891 187.758L71.7124 188.755L71.7322 188.756L71.7521 188.757L71.7891 187.758ZM77.1094 186.938L77.5616 187.829L77.5664 187.827L77.1094 186.938ZM80.0625 184.57L79.304 183.919L79.2982 183.925L80.0625 184.57ZM82.1719 181.031L81.2463 180.653L81.2441 180.658L82.1719 181.031ZM83.3438 176.602L84.3343 176.739L84.7839 173.495L82.5989 175.934L83.3438 176.602ZM78.4688 179.672L78.7748 180.624L78.785 180.621L78.4688 179.672ZM75.8672 180.281L75.9957 181.273L76.0034 181.272L76.0111 181.271L75.8672 180.281ZM68.2969 179.602L67.9673 180.546L67.9753 180.548L68.2969 179.602ZM63.9375 177.023L63.2588 177.758L63.2634 177.762L63.9375 177.023ZM61.0078 172.805L60.0878 173.197L60.0891 173.2L61.0078 172.805ZM60.7734 162.07L59.8344 161.726L59.8315 161.735L60.7734 162.07ZM67.7578 154.875L68.1488 155.795L68.1556 155.792L67.7578 154.875ZM78.8906 154.359L78.6118 155.32L78.6214 155.322L78.8906 154.359ZM88.6406 166.102L87.6545 166.268L87.6548 166.27L88.6406 166.102ZM88.6172 175.664L87.6267 175.526L87.6257 175.534L88.6172 175.664ZM87.4688 180.844L88.421 181.149L88.4218 181.147L87.4688 180.844ZM82.4297 189.258L83.1063 189.994L83.1067 189.994L82.4297 189.258ZM78.4219 191.789L78.7949 192.717L78.8031 192.714L78.4219 191.789ZM71.6719 192.633L71.5952 193.63L71.5971 193.63L71.6719 192.633ZM67.8047 191.953L67.5024 192.906L67.5161 192.911L67.53 192.915L67.8047 191.953ZM64.8281 190.148L64.0246 190.744L64.03 190.751L64.0355 190.758L64.8281 190.148ZM76.3594 175.266L76.6199 176.231L76.6301 176.228L76.3594 175.266ZM79.2188 174.047L78.7194 173.18L78.713 173.184L79.2188 174.047ZM81.7266 172.078L82.448 172.771L82.4548 172.763L81.7266 172.078ZM83.4609 169.336L84.3913 169.702L84.4609 169.526V169.336H83.4609ZM80.9766 161.156L80.2433 161.836L80.2497 161.843L80.2562 161.85L80.9766 161.156ZM78.0234 159.117L77.6162 160.03L77.6236 160.034L77.631 160.037L78.0234 159.117ZM70.8516 158.812L70.5732 157.852L70.5694 157.853L70.8516 158.812ZM67.9688 160.266L67.3618 159.471L67.3548 159.476L67.9688 160.266ZM65.4609 169.711L64.4899 169.95L64.4908 169.953L65.4609 169.711ZM64.3594 188.695H65.3594C65.3594 188.381 65.4122 188.176 65.4741 188.045L64.5703 187.617L63.6666 187.189C63.4472 187.652 63.3594 188.166 63.3594 188.695H64.3594ZM64.5703 187.617L65.4647 188.064C65.5668 187.86 65.6766 187.732 65.7809 187.648L65.1562 186.867L64.5316 186.086C64.1671 186.378 63.8863 186.749 63.6759 187.17L64.5703 187.617ZM65.1562 186.867L65.7868 187.643C65.932 187.525 66.0785 187.453 66.2311 187.412L65.9766 186.445L65.7221 185.478C65.2809 185.594 64.8805 185.803 64.5257 186.091L65.1562 186.867ZM65.9766 186.445L66.2777 187.399C66.4768 187.336 66.6799 187.305 66.8906 187.305V186.305V185.305C66.4764 185.305 66.0701 185.367 65.6754 185.492L65.9766 186.445ZM66.8906 186.305V187.305C67.487 187.305 67.85 187.391 68.0516 187.487L68.4844 186.586L68.9171 185.684C68.3375 185.406 67.638 185.305 66.8906 185.305V186.305ZM68.4844 186.586L68.0947 187.507C68.4602 187.662 68.7808 187.826 69.0596 187.999L69.5859 187.148L70.1123 186.298C69.7348 186.064 69.321 185.854 68.874 185.665L68.4844 186.586ZM69.5859 187.148L69.0618 188C69.2917 188.142 69.5165 188.264 69.7346 188.363L70.1484 187.453L70.5622 186.543C70.4367 186.486 70.2864 186.405 70.11 186.297L69.5859 187.148ZM70.1484 187.453L69.7346 188.363C70.0001 188.484 70.2932 188.567 70.597 188.623L70.7812 187.641L70.9655 186.658C70.7693 186.621 70.6405 186.578 70.5622 186.543L70.1484 187.453ZM70.7812 187.641L70.6075 188.625C70.917 188.68 71.2882 188.722 71.7124 188.755L71.7891 187.758L71.8658 186.761C71.4774 186.731 71.1768 186.695 70.955 186.656L70.7812 187.641ZM71.7891 187.758L71.7521 188.757C72.1915 188.773 72.7599 188.781 73.4531 188.781V187.781V186.781C72.7714 186.781 72.2304 186.773 71.8261 186.758L71.7891 187.758ZM73.4531 187.781V188.781C74.9275 188.781 76.3027 188.468 77.5616 187.829L77.1094 186.938L76.6571 186.046C75.6973 186.532 74.635 186.781 73.4531 186.781V187.781ZM77.1094 186.938L77.5664 187.827C78.8131 187.186 79.9008 186.313 80.8268 185.215L80.0625 184.57L79.2982 183.925C78.5367 184.828 77.6557 185.532 76.6523 186.048L77.1094 186.938ZM80.0625 184.57L80.8209 185.222C81.7591 184.13 82.5164 182.854 83.0996 181.404L82.1719 181.031L81.2441 180.658C80.7336 181.927 80.0847 183.01 79.3041 183.919L80.0625 184.57ZM82.1719 181.031L83.0974 181.41C83.6938 179.952 84.1049 178.394 84.3343 176.739L83.3438 176.602L82.3532 176.464C82.1451 177.966 81.775 179.36 81.2463 180.653L82.1719 181.031ZM83.3438 176.602L82.5989 175.934C81.9932 176.61 81.3142 177.17 80.5605 177.616L81.0703 178.477L81.5801 179.337C82.5139 178.783 83.3505 178.093 84.0886 177.269L83.3438 176.602ZM81.0703 178.477L80.5605 177.616C79.7752 178.082 78.9727 178.45 78.1525 178.723L78.4688 179.672L78.785 180.621C79.746 180.3 80.6779 179.872 81.5801 179.337L81.0703 178.477ZM78.4688 179.672L78.1627 178.72C77.3376 178.985 76.5246 179.175 75.7232 179.292L75.8672 180.281L76.0111 181.271C76.9286 181.137 77.8499 180.921 78.7748 180.624L78.4688 179.672ZM75.8672 180.281L75.7386 179.29C74.928 179.395 74.2062 179.445 73.5703 179.445V180.445V181.445C74.3095 181.445 75.1189 181.387 75.9957 181.273L75.8672 180.281ZM73.5703 180.445V179.445C71.8134 179.445 70.1648 179.18 68.6185 178.655L68.2969 179.602L67.9753 180.548C69.7415 181.148 71.6085 181.445 73.5703 181.445V180.445ZM68.2969 179.602L68.6264 178.657C67.0929 178.122 65.7581 177.331 64.6116 176.285L63.9375 177.023L63.2634 177.762C64.6169 178.997 66.1883 179.925 67.9673 180.546L68.2969 179.602ZM63.9375 177.023L64.6162 176.289C63.493 175.251 62.5946 173.964 61.9265 172.41L61.0078 172.805L60.0891 173.2C60.8586 174.989 61.9133 176.515 63.2588 177.758L63.9375 177.023ZM61.0078 172.805L61.9278 172.413C61.272 170.873 60.9297 169.05 60.9297 166.922H59.9297H58.9297C58.9297 169.262 59.3061 171.361 60.0878 173.197L61.0078 172.805ZM59.9297 166.922H60.9297C60.9297 165.381 61.1909 163.878 61.7154 162.406L60.7734 162.07L59.8315 161.735C59.231 163.419 58.9297 165.15 58.9297 166.922H59.9297ZM60.7734 162.07L61.7124 162.414C62.244 160.963 63.0398 159.672 64.1048 158.535L63.375 157.852L62.6452 157.168C61.3977 158.5 60.4591 160.021 59.8345 161.726L60.7734 162.07ZM63.375 157.852L64.1048 158.535C65.1539 157.415 66.4942 156.498 68.1488 155.795L67.7578 154.875L67.3668 153.955C65.4902 154.752 63.9086 155.819 62.6452 157.168L63.375 157.852ZM67.7578 154.875L68.1556 155.792C69.77 155.092 71.6995 154.727 73.9688 154.727V153.727V152.727C71.488 152.727 69.2769 153.126 67.36 153.958L67.7578 154.875ZM73.9688 153.727V154.727C75.7214 154.727 77.2658 154.929 78.6118 155.32L78.8906 154.359L79.1694 153.399C77.6092 152.946 75.8723 152.727 73.9688 152.727V153.727ZM78.8906 154.359L78.6214 155.322C79.9839 155.703 81.1645 156.24 82.1743 156.922L82.7344 156.094L83.2944 155.265C82.0855 154.448 80.7036 153.828 79.1599 153.396L78.8906 154.359ZM82.7344 156.094L82.1743 156.922C83.198 157.614 84.0724 158.432 84.8025 159.377L85.5938 158.766L86.385 158.154C85.5213 157.036 84.4895 156.073 83.2944 155.265L82.7344 156.094ZM85.5938 158.766L84.8025 159.377C85.5424 160.335 86.1457 161.388 86.6122 162.539L87.5391 162.164L88.4659 161.789C87.9324 160.472 87.2389 159.259 86.385 158.154L85.5938 158.766ZM87.5391 162.164L86.6122 162.539C87.0834 163.703 87.4315 164.945 87.6545 166.268L88.6406 166.102L89.6267 165.935C89.381 164.477 88.9948 163.094 88.4659 161.789L87.5391 162.164ZM88.6406 166.102L87.6548 166.27C87.8795 167.587 87.9922 168.937 87.9922 170.32H88.9922H89.9922C89.9922 168.828 89.8705 167.366 89.6264 165.934L88.6406 166.102ZM88.9922 170.32H87.9922C87.9922 172.039 87.8706 173.774 87.6267 175.526L88.6172 175.664L89.6076 175.802C89.8638 173.961 89.9922 172.133 89.9922 170.32H88.9922ZM88.6172 175.664L87.6257 175.534C87.3989 177.258 87.0287 178.927 86.5157 180.541L87.4688 180.844L88.4218 181.147C88.9713 179.417 89.3668 177.633 89.6086 175.795L88.6172 175.664ZM87.4688 180.844L86.5165 180.538C86.0059 182.13 85.3543 183.612 84.5632 184.985L85.4297 185.484L86.2962 185.984C87.1613 184.482 87.8691 182.87 88.421 181.149L87.4688 180.844ZM85.4297 185.484L84.5632 184.985C83.7837 186.338 82.8466 187.515 81.7526 188.522L82.4297 189.258L83.1067 189.994C84.3565 188.844 85.4195 187.505 86.2962 185.984L85.4297 185.484ZM82.4297 189.258L81.7531 188.521C80.6872 189.501 79.4524 190.282 78.0406 190.865L78.4219 191.789L78.8031 192.714C80.4226 192.046 81.8597 191.14 83.1063 189.994L82.4297 189.258ZM78.4219 191.789L78.0488 190.861C76.6699 191.416 75.0885 191.703 73.2891 191.703V192.703V193.703C75.3021 193.703 77.1426 193.381 78.7949 192.717L78.4219 191.789ZM73.2891 192.703V191.703C72.8683 191.703 72.3554 191.681 71.7467 191.636L71.6719 192.633L71.5971 193.63C72.2383 193.678 72.8036 193.703 73.2891 193.703V192.703ZM71.6719 192.633L71.7486 191.636C71.171 191.591 70.5675 191.517 69.9378 191.412L69.7734 192.398L69.609 193.385C70.2918 193.499 70.954 193.581 71.5952 193.63L71.6719 192.633ZM69.7734 192.398L69.9378 191.412C69.3197 191.309 68.7003 191.169 68.0794 190.992L67.8047 191.953L67.53 192.915C68.2216 193.112 68.9146 193.269 69.609 193.385L69.7734 192.398ZM67.8047 191.953L68.1069 191C67.5261 190.816 67.0152 190.593 66.5693 190.337L66.0703 191.203L65.5713 192.07C66.1567 192.407 66.802 192.684 67.5024 192.906L67.8047 191.953ZM66.0703 191.203L66.5693 190.337C66.1494 190.095 65.8414 189.826 65.6207 189.539L64.8281 190.148L64.0355 190.758C64.4399 191.284 64.96 191.718 65.5713 192.07L66.0703 191.203ZM64.8281 190.148L65.6317 189.553C65.4523 189.311 65.3594 189.037 65.3594 188.695H64.3594H63.3594C63.3594 189.447 63.5789 190.142 64.0246 190.744L64.8281 190.148ZM73.5703 175.664V176.664C74.5464 176.664 75.5642 176.516 76.6199 176.231L76.3594 175.266L76.0989 174.3C75.1858 174.547 74.3442 174.664 73.5703 174.664V175.664ZM76.3594 175.266L76.6301 176.228C77.7133 175.924 78.7453 175.484 79.7245 174.91L79.2188 174.047L78.713 173.184C77.8797 173.673 77.0054 174.045 76.0886 174.303L76.3594 175.266ZM79.2188 174.047L79.718 174.913C80.7233 174.334 81.6337 173.619 82.448 172.771L81.7266 172.078L81.0052 171.386C80.3194 172.1 79.558 172.697 78.7195 173.18L79.2188 174.047ZM81.7266 172.078L82.4548 172.763C83.2929 171.873 83.9392 170.85 84.3913 169.702L83.4609 169.336L82.5305 168.969C82.1702 169.884 81.6602 170.69 80.9984 171.393L81.7266 172.078ZM83.4609 169.336H84.4609V167.648H83.4609H82.4609V169.336H83.4609ZM83.4609 167.648H84.4609C84.4609 166.297 84.2296 164.999 83.7645 163.758L82.8281 164.109L81.8918 164.46C82.2704 165.47 82.4609 166.531 82.4609 167.648H83.4609ZM82.8281 164.109L83.7645 163.758C83.296 162.509 82.6065 161.407 81.6969 160.463L80.9766 161.156L80.2562 161.85C80.9717 162.593 81.5165 163.46 81.8918 164.46L82.8281 164.109ZM80.9766 161.156L81.7098 160.476C80.8094 159.505 79.7056 158.748 78.4159 158.197L78.0234 159.117L77.631 160.037C78.6851 160.487 79.55 161.089 80.2433 161.836L80.9766 161.156ZM78.0234 159.117L78.4307 158.204C77.1261 157.622 75.6633 157.344 74.0625 157.344V158.344V159.344C75.4305 159.344 76.6083 159.581 77.6162 160.03L78.0234 159.117ZM74.0625 158.344V157.344C72.9006 157.344 71.7367 157.515 70.5732 157.852L70.8516 158.812L71.13 159.773C72.1227 159.485 73.0994 159.344 74.0625 159.344V158.344ZM70.8516 158.812L70.5694 157.853C69.3924 158.199 68.3209 158.739 67.3618 159.471L67.9688 160.266L68.5757 161.06C69.3354 160.48 70.1857 160.051 71.1337 159.772L70.8516 158.812ZM67.9688 160.266L67.3548 159.476C66.39 160.227 65.6129 161.177 65.0202 162.31L65.9062 162.773L66.7923 163.237C67.2621 162.339 67.86 161.617 68.5827 161.055L67.9688 160.266ZM65.9062 162.773L65.0202 162.31C64.399 163.498 64.1094 164.875 64.1094 166.406H65.1094H66.1094C66.1094 165.125 66.351 164.081 66.7923 163.237L65.9062 162.773ZM65.1094 166.406H64.1094C64.1094 167.716 64.2319 168.901 64.4899 169.95L65.4609 169.711L66.432 169.472C66.2212 168.615 66.1094 167.597 66.1094 166.406H65.1094ZM65.4609 169.711L64.4908 169.953C64.7438 170.966 65.0966 171.871 65.5609 172.657L66.4219 172.148L67.2828 171.64C66.9346 171.05 66.6468 170.331 66.4311 169.468L65.4609 169.711ZM66.4219 172.148L65.5609 172.657C66.0186 173.432 66.5675 174.094 67.2135 174.629L67.8516 173.859L68.4896 173.089C68.0418 172.718 67.6376 172.24 67.2828 171.64L66.4219 172.148ZM67.8516 173.859L67.2135 174.629C67.8316 175.141 68.5001 175.553 69.2182 175.858L69.6094 174.938L70.0005 174.017C69.4687 173.791 68.9653 173.484 68.4896 173.089L67.8516 173.859ZM69.6094 174.938L69.2182 175.858C69.9173 176.155 70.6431 176.365 71.394 176.487L71.5547 175.5L71.7154 174.513C71.1225 174.416 70.5515 174.251 70.0005 174.017L69.6094 174.938ZM71.5547 175.5L71.394 176.487C72.1183 176.605 72.8439 176.664 73.5703 176.664V175.664V174.664C72.953 174.664 72.3348 174.614 71.7154 174.513L71.5547 175.5ZM103.125 191.156L102.608 192.012L102.614 192.016L103.125 191.156ZM98.7656 186.914L97.9268 187.459L97.9302 187.464L98.7656 186.914ZM96.2109 165.258L95.247 164.991L95.2454 164.997L96.2109 165.258ZM99 159.141L98.1843 158.562L98.1832 158.564L99 159.141ZM103.383 155.156L103.865 156.032L103.868 156.031L103.383 155.156ZM115.008 155.156L114.519 156.029L114.526 156.032L115.008 155.156ZM119.297 159.141L118.467 159.699L118.473 159.707L119.297 159.141ZM121.945 165.258L120.975 165.5L120.977 165.506L121.945 165.258ZM121.969 180.68L120.999 180.437L120.997 180.443L121.969 180.68ZM119.367 186.914L118.528 186.37L118.525 186.375L119.367 186.914ZM115.078 191.156L115.596 192.012L115.598 192.01L115.078 191.156ZM114.07 185.672L113.323 185.008L113.322 185.009L114.07 185.672ZM115.664 183.211L116.57 183.634L116.573 183.628L115.664 183.211ZM117.352 176.719L116.358 176.603L116.357 176.614L117.352 176.719ZM117.07 167.555L116.087 167.737L116.087 167.739L117.07 167.555ZM115.547 162.914L114.652 163.361L114.659 163.374L115.547 162.914ZM112.969 159.727L112.363 160.522L112.371 160.528L112.969 159.727ZM101.109 167.18L100.13 166.975L100.129 166.982L101.109 167.18ZM100.781 176.695L99.7879 176.811L99.7896 176.824L100.781 176.695ZM101.461 180.141L100.496 180.403L100.499 180.415L101.461 180.141ZM102.633 183.211L101.735 183.652L101.738 183.658L102.633 183.211ZM104.297 185.672L103.558 186.345L103.565 186.354L104.297 185.672ZM109.148 192.703V191.703C107.023 191.703 105.196 191.224 103.636 190.297L103.125 191.156L102.614 192.016C104.522 193.151 106.711 193.703 109.148 193.703V192.703ZM103.125 191.156L103.642 190.3C102.042 189.334 100.695 188.028 99.601 186.364L98.7656 186.914L97.9302 187.464C99.1797 189.363 100.739 190.884 102.608 192.012L103.125 191.156ZM98.7656 186.914L99.6044 186.37C98.5167 184.694 97.6817 182.721 97.1108 180.437L96.1406 180.68L95.1705 180.922C95.787 183.388 96.702 185.572 97.9268 187.459L98.7656 186.914ZM96.1406 180.68L97.1108 180.437C96.5387 178.149 96.25 175.7 96.25 173.086H95.25H94.25C94.25 175.847 94.5551 178.461 95.1705 180.922L96.1406 180.68ZM95.25 173.086H96.25C96.25 170.317 96.5619 167.796 97.1764 165.518L96.2109 165.258L95.2454 164.997C94.5787 167.469 94.25 170.168 94.25 173.086H95.25ZM96.2109 165.258L97.1748 165.524C97.8058 163.241 98.6911 161.311 99.8168 159.718L99 159.141L98.1832 158.564C96.9026 160.376 95.9286 162.525 95.2471 164.991L96.2109 165.258ZM99 159.141L99.8157 159.719C100.955 158.113 102.305 156.891 103.865 156.032L103.383 155.156L102.901 154.28C101.054 155.296 99.4829 156.731 98.1843 158.562L99 159.141ZM103.383 155.156L103.868 156.031C105.426 155.167 107.179 154.727 109.148 154.727V153.727V152.727C106.868 152.727 104.777 153.24 102.898 154.282L103.383 155.156ZM109.148 153.727V154.727C111.203 154.727 112.984 155.17 114.519 156.029L115.008 155.156L115.496 154.284C113.625 153.237 111.5 152.727 109.148 152.727V153.727ZM115.008 155.156L114.526 156.032C116.08 156.888 117.394 158.103 118.467 159.699L119.297 159.141L120.127 158.582C118.887 156.74 117.342 155.299 115.49 154.28L115.008 155.156ZM119.297 159.141L118.473 159.707C119.566 161.296 120.405 163.22 120.975 165.5L121.945 165.258L122.915 165.015C122.298 162.545 121.372 160.392 120.121 158.574L119.297 159.141ZM121.945 165.258L120.977 165.506C121.562 167.788 121.859 170.313 121.859 173.086H122.859H123.859C123.859 170.171 123.547 167.477 122.914 165.009L121.945 165.258ZM122.859 173.086H121.859C121.859 175.7 121.571 178.149 120.999 180.437L121.969 180.68L122.939 180.922C123.554 178.461 123.859 175.847 123.859 173.086H122.859ZM121.969 180.68L120.997 180.443C120.442 182.725 119.615 184.696 118.528 186.37L119.367 186.914L120.206 187.459C121.432 185.57 122.34 183.384 122.94 180.916L121.969 180.68ZM119.367 186.914L118.525 186.375C117.462 188.035 116.14 189.338 114.558 190.302L115.078 191.156L115.598 192.01C117.454 190.88 118.991 189.356 120.209 187.453L119.367 186.914ZM115.078 191.156L114.56 190.301C113.033 191.226 111.24 191.703 109.148 191.703V192.703V193.703C111.557 193.703 113.717 193.149 115.596 192.012L115.078 191.156ZM109.266 187.875V188.875C110.399 188.875 111.451 188.653 112.401 188.187L111.961 187.289L111.521 186.391C110.877 186.707 110.133 186.875 109.266 186.875V187.875ZM111.961 187.289L112.401 188.187C113.319 187.737 114.126 187.117 114.819 186.335L114.07 185.672L113.322 185.009C112.796 185.602 112.196 186.06 111.521 186.391L111.961 187.289ZM114.07 185.672L114.818 186.336C115.513 185.554 116.096 184.65 116.57 183.634L115.664 183.211L114.758 182.788C114.357 183.646 113.878 184.384 113.323 185.008L114.07 185.672ZM115.664 183.211L116.573 183.628C117.037 182.617 117.416 181.537 117.711 180.39L116.742 180.141L115.774 179.892C115.506 180.932 115.166 181.899 114.755 182.794L115.664 183.211ZM116.742 180.141L117.711 180.39C118.005 179.246 118.216 178.057 118.346 176.823L117.352 176.719L116.357 176.614C116.237 177.756 116.042 178.848 115.774 179.892L116.742 180.141ZM117.352 176.719L118.345 176.835C118.49 175.593 118.562 174.343 118.562 173.086H117.562H116.562C116.562 174.266 116.494 175.438 116.358 176.603L117.352 176.719ZM117.562 173.086H118.562C118.562 171.092 118.394 169.186 118.053 167.37L117.07 167.555L116.087 167.739C116.403 169.423 116.562 171.205 116.562 173.086H117.562ZM117.07 167.555L118.053 167.372C117.711 165.529 117.176 163.885 116.435 162.454L115.547 162.914L114.659 163.374C115.293 164.599 115.773 166.05 116.087 167.737L117.07 167.555ZM115.547 162.914L116.441 162.467C115.71 161.005 114.756 159.813 113.567 158.925L112.969 159.727L112.371 160.528C113.275 161.203 114.04 162.136 114.652 163.361L115.547 162.914ZM112.969 159.727L113.574 158.931C112.339 157.991 110.888 157.531 109.266 157.531V158.531V159.531C110.487 159.531 111.505 159.869 112.363 160.522L112.969 159.727ZM109.266 158.531V157.531C107.658 157.531 106.205 157.927 104.946 158.748L105.492 159.586L106.038 160.424C106.936 159.839 107.999 159.531 109.266 159.531V158.531ZM105.492 159.586L104.946 158.748C103.717 159.55 102.707 160.667 101.906 162.065L102.773 162.562L103.641 163.06C104.308 161.895 105.111 161.028 106.038 160.424L105.492 159.586ZM102.773 162.562L101.906 162.065C101.108 163.457 100.522 165.1 100.13 166.975L101.109 167.18L102.088 167.384C102.447 165.666 102.97 164.231 103.641 163.06L102.773 162.562ZM101.109 167.18L100.129 166.982C99.7545 168.839 99.5703 170.875 99.5703 173.086H100.57H101.57C101.57 170.984 101.746 169.083 102.09 167.377L101.109 167.18ZM100.57 173.086H99.5703C99.5703 174.328 99.6429 175.57 99.788 176.811L100.781 176.695L101.774 176.579C101.638 175.414 101.57 174.25 101.57 173.086H100.57ZM100.781 176.695L99.7896 176.824C99.9513 178.069 100.186 179.262 100.496 180.403L101.461 180.141L102.426 179.879C102.142 178.832 101.924 177.728 101.773 176.567L100.781 176.695ZM101.461 180.141L100.499 180.415C100.827 181.562 101.239 182.642 101.735 183.652L102.633 183.211L103.53 182.77C103.09 181.874 102.72 180.906 102.422 179.866L101.461 180.141ZM102.633 183.211L101.738 183.658C102.244 184.67 102.849 185.568 103.558 186.345L104.297 185.672L105.036 184.998C104.463 184.37 103.959 183.627 103.527 182.764L102.633 183.211ZM104.297 185.672L103.565 186.354C104.29 187.132 105.127 187.747 106.073 188.193L106.5 187.289L106.927 186.385C106.216 186.05 105.585 185.587 105.028 184.99L104.297 185.672ZM106.5 187.289L106.073 188.193C107.049 188.654 108.119 188.875 109.266 188.875V187.875V186.875C108.381 186.875 107.607 186.706 106.927 186.385L106.5 187.289Z" fill="#F5F5F4" mask="url(#path-54-outside-1_66_170)"/>
<mask id="path-56-outside-2_66_170" maskUnits="userSpaceOnUse" x="496" y="68" width="36" height="44" fill="black">
<rect fill="white" x="496" y="68" width="36" height="44"/>
<path d="M508.04 101C508.637 101.171 509.405 101.299 510.344 101.384C511.283 101.427 512.179 101.448 513.032 101.448C514.739 101.448 516.147 101.107 517.256 100.424C518.408 99.6987 518.984 98.5893 518.984 97.096C518.984 95.688 518.515 94.6853 517.576 94.088C516.637 93.4907 515.208 93.192 513.288 93.192H508.04V101ZM508.04 85.384H512.712C514.547 85.384 515.869 85.0427 516.68 84.36C517.533 83.6773 517.96 82.6747 517.96 81.352C517.96 80.2 517.469 79.2827 516.488 78.6C515.549 77.9173 514.12 77.576 512.2 77.576C511.56 77.576 510.813 77.5973 509.96 77.64C509.149 77.6827 508.509 77.7467 508.04 77.832V85.384ZM512.2 110.024C511.475 110.024 510.621 110.003 509.64 109.96C508.659 109.917 507.635 109.832 506.568 109.704C505.544 109.576 504.52 109.405 503.496 109.192C502.472 109.021 501.533 108.765 500.68 108.424C498.333 107.528 497.16 105.971 497.16 103.752V73.864C497.16 72.968 497.395 72.2853 497.864 71.816C498.376 71.304 499.059 70.8987 499.912 70.6C501.363 70.088 503.176 69.7253 505.352 69.512C507.528 69.256 509.768 69.128 512.072 69.128C517.533 69.128 521.736 70.0453 524.68 71.88C527.624 73.7147 529.096 76.552 529.096 80.392C529.096 82.312 528.541 83.976 527.432 85.384C526.323 86.7493 524.829 87.752 522.952 88.392C525.085 88.9893 526.856 90.0773 528.264 91.656C529.715 93.2347 530.44 95.2187 530.44 97.608C530.44 101.832 528.861 104.968 525.704 107.016C522.589 109.021 518.088 110.024 512.2 110.024Z"/>
</mask>
<path d="M508.04 101C508.637 101.171 509.405 101.299 510.344 101.384C511.283 101.427 512.179 101.448 513.032 101.448C514.739 101.448 516.147 101.107 517.256 100.424C518.408 99.6987 518.984 98.5893 518.984 97.096C518.984 95.688 518.515 94.6853 517.576 94.088C516.637 93.4907 515.208 93.192 513.288 93.192H508.04V101ZM508.04 85.384H512.712C514.547 85.384 515.869 85.0427 516.68 84.36C517.533 83.6773 517.96 82.6747 517.96 81.352C517.96 80.2 517.469 79.2827 516.488 78.6C515.549 77.9173 514.12 77.576 512.2 77.576C511.56 77.576 510.813 77.5973 509.96 77.64C509.149 77.6827 508.509 77.7467 508.04 77.832V85.384ZM512.2 110.024C511.475 110.024 510.621 110.003 509.64 109.96C508.659 109.917 507.635 109.832 506.568 109.704C505.544 109.576 504.52 109.405 503.496 109.192C502.472 109.021 501.533 108.765 500.68 108.424C498.333 107.528 497.16 105.971 497.16 103.752V73.864C497.16 72.968 497.395 72.2853 497.864 71.816C498.376 71.304 499.059 70.8987 499.912 70.6C501.363 70.088 503.176 69.7253 505.352 69.512C507.528 69.256 509.768 69.128 512.072 69.128C517.533 69.128 521.736 70.0453 524.68 71.88C527.624 73.7147 529.096 76.552 529.096 80.392C529.096 82.312 528.541 83.976 527.432 85.384C526.323 86.7493 524.829 87.752 522.952 88.392C525.085 88.9893 526.856 90.0773 528.264 91.656C529.715 93.2347 530.44 95.2187 530.44 97.608C530.44 101.832 528.861 104.968 525.704 107.016C522.589 109.021 518.088 110.024 512.2 110.024Z" fill="#1D4A60"/>
<path d="M508.04 101H507.04V101.754L507.765 101.962L508.04 101ZM510.344 101.384L510.253 102.38L510.276 102.382L510.299 102.383L510.344 101.384ZM517.256 100.424L517.78 101.276L517.789 101.27L517.256 100.424ZM517.576 94.088L517.039 94.9317L517.576 94.088ZM508.04 93.192V92.192H507.04V93.192H508.04ZM508.04 85.384H507.04V86.384H508.04V85.384ZM516.68 84.36L516.055 83.5791L516.045 83.587L516.036 83.5951L516.68 84.36ZM516.488 78.6L515.9 79.4087L515.908 79.4149L515.917 79.4209L516.488 78.6ZM509.96 77.64L509.91 76.6412L509.907 76.6414L509.96 77.64ZM508.04 77.832L507.861 76.8481L507.04 76.9974V77.832H508.04ZM509.64 109.96L509.597 110.959L509.64 109.96ZM506.568 109.704L506.444 110.696L506.449 110.697L506.568 109.704ZM503.496 109.192L503.7 108.213L503.68 108.209L503.66 108.206L503.496 109.192ZM500.68 108.424L501.051 107.496L501.044 107.493L501.037 107.49L500.68 108.424ZM497.864 71.816L498.571 72.5231H498.571L497.864 71.816ZM499.912 70.6L500.242 71.5439L500.245 71.543L499.912 70.6ZM505.352 69.512L505.45 70.5072L505.459 70.5063L505.469 70.5051L505.352 69.512ZM524.68 71.88L525.209 71.0313L524.68 71.88ZM527.432 85.384L528.208 86.0146L528.213 86.0088L528.217 86.0029L527.432 85.384ZM522.952 88.392L522.629 87.4455L519.578 88.4857L522.682 89.355L522.952 88.392ZM528.264 91.656L527.518 92.3216L527.523 92.3272L527.528 92.3326L528.264 91.656ZM525.704 107.016L526.245 107.857L526.248 107.855L525.704 107.016ZM508.04 101L507.765 101.962C508.445 102.156 509.281 102.291 510.253 102.38L510.344 101.384L510.435 100.388C509.53 100.306 508.83 100.186 508.315 100.038L508.04 101ZM510.344 101.384L510.299 102.383C511.251 102.426 512.162 102.448 513.032 102.448V101.448V100.448C512.195 100.448 511.314 100.427 510.389 100.385L510.344 101.384ZM513.032 101.448V102.448C514.868 102.448 516.471 102.081 517.78 101.276L517.256 100.424L516.732 99.5723C515.822 100.132 514.61 100.448 513.032 100.448V101.448ZM517.256 100.424L517.789 101.27C519.264 100.342 519.984 98.8932 519.984 97.096H518.984H517.984C517.984 98.2855 517.552 99.0557 516.723 99.5778L517.256 100.424ZM518.984 97.096H519.984C519.984 95.4495 519.418 94.0746 518.113 93.2443L517.576 94.088L517.039 94.9317C517.612 95.2961 517.984 95.9265 517.984 97.096H518.984ZM517.576 94.088L518.113 93.2443C516.935 92.4949 515.277 92.192 513.288 92.192V93.192V94.192C515.139 94.192 516.339 94.4864 517.039 94.9317L517.576 94.088ZM513.288 93.192V92.192H508.04V93.192V94.192H513.288V93.192ZM508.04 93.192H507.04V101H508.04H509.04V93.192H508.04ZM508.04 85.384V86.384H512.712V85.384V84.384H508.04V85.384ZM512.712 85.384V86.384C514.626 86.384 516.242 86.0364 517.324 85.1249L516.68 84.36L516.036 83.5951C515.497 84.0489 514.467 84.384 512.712 84.384V85.384ZM516.68 84.36L517.305 85.1409C518.446 84.2282 518.96 82.9076 518.96 81.352H517.96H516.96C516.96 82.4417 516.621 83.1264 516.055 83.5791L516.68 84.36ZM517.96 81.352H518.96C518.96 79.8582 518.297 78.6403 517.059 77.7791L516.488 78.6L515.917 79.4209C516.642 79.925 516.96 80.5418 516.96 81.352H517.96ZM516.488 78.6L517.076 77.7913C515.887 76.9265 514.206 76.576 512.2 76.576V77.576V78.576C514.034 78.576 515.212 78.9082 515.9 79.4087L516.488 78.6ZM512.2 77.576V76.576C511.539 76.576 510.775 76.598 509.91 76.6412L509.96 77.64L510.01 78.6388C510.852 78.5967 511.581 78.576 512.2 78.576V77.576ZM509.96 77.64L509.907 76.6414C509.079 76.685 508.391 76.7518 507.861 76.8481L508.04 77.832L508.219 78.8159C508.628 78.7416 509.219 78.6804 510.013 78.6386L509.96 77.64ZM508.04 77.832H507.04V85.384H508.04H509.04V77.832H508.04ZM512.2 110.024V109.024C511.493 109.024 510.655 109.003 509.683 108.961L509.64 109.96L509.597 110.959C510.588 111.002 511.456 111.024 512.2 111.024V110.024ZM509.64 109.96L509.683 108.961C508.73 108.919 507.731 108.836 506.687 108.711L506.568 109.704L506.449 110.697C507.538 110.828 508.588 110.915 509.597 110.959L509.64 109.96ZM506.568 109.704L506.692 108.712C505.695 108.587 504.698 108.421 503.7 108.213L503.496 109.192L503.292 110.171C504.342 110.39 505.393 110.565 506.444 110.696L506.568 109.704ZM503.496 109.192L503.66 108.206C502.698 108.045 501.83 107.807 501.051 107.496L500.68 108.424L500.309 109.352C501.237 109.724 502.246 109.997 503.332 110.178L503.496 109.192ZM500.68 108.424L501.037 107.49C499.989 107.09 499.284 106.573 498.839 105.982C498.4 105.4 498.16 104.676 498.16 103.752H497.16H496.16C496.16 105.047 496.506 106.21 497.241 107.186C497.969 108.152 499.024 108.862 500.323 109.358L500.68 108.424ZM497.16 103.752H498.16V73.864H497.16H496.16V103.752H497.16ZM497.16 73.864H498.16C498.16 73.1378 498.347 72.7467 498.571 72.5231L497.864 71.816L497.157 71.1089C496.442 71.8239 496.16 72.7982 496.16 73.864H497.16ZM497.864 71.816L498.571 72.5231C498.954 72.1404 499.496 71.8049 500.242 71.5439L499.912 70.6L499.582 69.6561C498.621 69.9924 497.798 70.4676 497.157 71.1089L497.864 71.816ZM499.912 70.6L500.245 71.543C501.595 71.0664 503.323 70.7157 505.45 70.5072L505.352 69.512L505.254 68.5168C503.029 68.735 501.13 69.1096 499.579 69.657L499.912 70.6ZM505.352 69.512L505.469 70.5051C507.604 70.2539 509.805 70.128 512.072 70.128V69.128V68.128C509.731 68.128 507.452 68.2581 505.235 68.5188L505.352 69.512ZM512.072 69.128V70.128C517.445 70.128 521.432 71.0344 524.151 72.7287L524.68 71.88L525.209 71.0313C522.04 69.0562 517.622 68.128 512.072 68.128V69.128ZM524.68 71.88L524.151 72.7287C526.767 74.3586 528.096 76.8532 528.096 80.392H529.096H530.096C530.096 76.2508 528.481 73.0707 525.209 71.0313L524.68 71.88ZM529.096 80.392H528.096C528.096 82.1046 527.607 83.5465 526.647 84.7651L527.432 85.384L528.217 86.0029C529.476 84.4055 530.096 82.5194 530.096 80.392H529.096ZM527.432 85.384L526.656 84.7534C525.68 85.9549 524.352 86.8582 522.629 87.4455L522.952 88.392L523.275 89.3385C525.307 88.6458 526.966 87.5437 528.208 86.0146L527.432 85.384ZM522.952 88.392L522.682 89.355C524.641 89.9033 526.243 90.8925 527.518 92.3216L528.264 91.656L529.01 90.9904C527.469 89.2622 525.53 88.0753 523.222 87.429L522.952 88.392ZM528.264 91.656L527.528 92.3326C528.789 93.7051 529.44 95.4383 529.44 97.608H530.44H531.44C531.44 94.999 530.64 92.7642 529 90.9794L528.264 91.656ZM530.44 97.608H529.44C529.44 101.542 527.994 104.339 525.16 106.177L525.704 107.016L526.248 107.855C529.728 105.597 531.44 102.122 531.44 97.608H530.44ZM525.704 107.016L525.163 106.175C522.279 108.032 517.999 109.024 512.2 109.024V110.024V111.024C518.177 111.024 522.9 110.011 526.245 107.857L525.704 107.016Z" fill="#F5F5F4" mask="url(#path-56-outside-2_66_170)"/>
</svg>
