<svg width="146" height="146" viewBox="0 0 146 146" fill="none" xmlns="http://www.w3.org/2000/svg">
<path d="M71.0572 21.8448C99.3167 20.772 123.091 42.8188 124.15 71.0787C125.209 99.3386 103.151 123.102 74.8902 124.147C46.6494 125.192 22.9057 103.152 21.8476 74.9117C20.7895 46.6715 42.8175 22.9168 71.0572 21.8448Z" fill="#50BA6A"/>
<path d="M62.2156 48.9438C64.0314 48.8397 66.7003 48.8812 68.5224 48.9329C76.2551 49.1238 83.9399 50.2018 91.4269 52.1458C96.3567 53.428 101.132 55.2444 105.667 57.5628C106.52 58.0029 107.984 58.7628 108.71 59.3465C109.186 59.7274 109.586 60.1941 109.889 60.7226C110.51 61.8307 110.669 63.1384 110.331 64.3627C109.98 65.6055 109.149 66.6576 108.021 67.2865C105.416 68.7308 103.518 67.2988 101.27 66.1031C100.359 65.6188 99.4319 65.1647 98.4905 64.7415C95.4366 63.3616 92.4961 62.4004 89.2894 61.4818C77.5341 58.4338 65.3008 57.6875 53.2624 59.2839C51.2375 59.5553 49.2263 59.9206 47.2354 60.3786C44.4215 61.0458 41.6219 62.5159 39.1479 60.1936C38.2239 59.3257 37.6818 58.1267 37.6406 56.8596C37.5902 55.098 38.7068 52.9628 40.3479 52.393C46.9801 50.0902 55.3392 49.1613 62.2156 48.9438Z" fill="black"/>
<path d="M62.0524 66.5442C63.4285 66.4496 65.6021 66.5026 66.9856 66.5499C73.6716 66.7566 80.303 67.828 86.7133 69.7373C91.1077 71.0357 95.3493 72.8029 99.3659 75.0084C100.108 75.4178 101.325 76.0667 101.944 76.599C102.331 76.9321 102.649 77.3358 102.882 77.7898C103.368 78.7472 103.454 79.8574 103.122 80.8786C102.79 81.893 102.06 82.7287 101.1 83.1941C98.7674 84.3378 97.0945 82.9089 95.1417 81.8223C94.4049 81.4185 93.6574 81.033 92.9008 80.6665C90.6766 79.5806 88.1398 78.6232 85.7947 77.8438C75.6165 74.6109 64.837 73.7325 54.2697 75.275C52.4398 75.5527 50.6227 75.9095 48.8235 76.3443C48.0494 76.5389 46.0866 77.1739 45.3978 77.2203C44.327 77.2993 43.2688 76.948 42.4574 76.2446C41.6467 75.541 41.158 74.5369 41.1046 73.4646C41.0146 71.7171 41.9997 70.1554 43.6324 69.5303C44.5597 69.1754 45.5432 68.9303 46.5053 68.6867C49.6701 67.887 52.8865 67.3076 56.1315 66.9528C58.0991 66.7406 60.0743 66.6042 62.0524 66.5442Z" fill="black"/>
<path d="M63.1281 83.2253C68.6145 83.0428 74.1017 83.5606 79.4566 84.7682C84.273 85.8677 88.9154 87.6243 93.2536 89.9899C94.3531 90.5808 95.858 91.2887 96.502 92.3632C96.9378 93.0848 97.061 93.9532 96.8442 94.7676C96.61 95.6505 96.08 96.3341 95.2823 96.7767C93.4247 97.8078 91.9814 96.6307 90.3967 95.7432C89.6157 95.3083 88.8234 94.8931 88.0211 94.4992C85.5992 93.3015 83.083 92.4324 80.5037 91.6545C71.828 89.2364 63.1999 89.1261 54.3127 90.4226C52.8687 90.631 51.4307 90.8789 50.0003 91.1663C48.9734 91.3769 47.952 91.6127 46.9159 91.7815C45.9484 91.9396 45.1901 91.7746 44.3998 91.1313C43.7082 90.5701 43.2828 89.7458 43.2267 88.8569C43.0184 85.6442 46.3266 85.3628 48.6153 84.9149C51.7079 84.3005 54.8292 83.842 57.9677 83.5401C59.6842 83.3827 61.4052 83.2777 63.1281 83.2253Z" fill="black"/>
</svg>
